<svg width="1500" height="500" viewBox="0 0 1500 500" fill="none" xmlns="http://www.w3.org/2000/svg">
<g clip-path="url(#clip0_388_270)">
<rect opacity="0.03" x="515.548" y="822.621" width="408" height="1343.46" transform="rotate(-140 515.548 822.621)" fill="url(#paint0_linear_388_270)"/>
<rect opacity="0.07" x="1299.23" y="-522" width="408" height="1266.72" transform="rotate(40 1299.23 -522)" fill="url(#paint1_linear_388_270)"/>
<rect opacity="0.07" x="1184.23" y="-537" width="408" height="1266.72" transform="rotate(40 1184.23 -537)" fill="url(#paint2_linear_388_270)"/>
<rect opacity="0.12" width="408" height="1524.09" transform="matrix(-0.766044 0.642788 0.642788 0.766044 334.548 -565)" fill="url(#paint3_linear_388_270)"/>
<g opacity="0.88" filter="url(#filter0_f_388_270)">
<path d="M278.374 597.089C278.374 615.069 183.191 662.199 164.266 662.199C145.342 662.199 130 647.624 130 629.644C130 611.665 145.342 597.089 164.266 597.089C196.134 509.843 278.374 579.11 278.374 597.089Z" fill="#DAF8FF"/>
<path d="M485 716.891C485 734.87 389.818 782 370.893 782C351.968 782 336.626 767.425 336.626 749.445C336.626 731.466 351.968 716.891 370.893 716.891C402.761 629.644 485 698.911 485 716.891Z" fill="#DAF8FF"/>
</g>
<rect opacity="0.1" x="1120.28" y="-77" width="408" height="842.074" transform="rotate(40 1120.28 -77)" fill="url(#paint4_linear_388_270)"/>
<g opacity="0.53" filter="url(#filter1_f_388_270)">
<circle cx="1287" cy="-53" r="50" fill="#557079" fill-opacity="0.54"/>
</g>
<g opacity="0.53" filter="url(#filter2_f_388_270)">
<circle cx="1163" cy="-27" r="50" fill="#C3F9FF" fill-opacity="0.32"/>
</g>
<g opacity="0.53" filter="url(#filter3_f_388_270)">
<circle cx="700" cy="500" r="50" fill="#C3F9FF" fill-opacity="0.18"/>
</g>
<path d="M796.674 494.91L787.8 478.261L788.604 477.303L806.734 482.921L805.689 484.166L800.727 482.613L795.231 489.163L797.687 493.704L796.674 494.91ZM794.534 487.893L799.339 482.167L789.817 479.202L794.534 487.893ZM818.917 468.403L805.511 457.154L809.448 452.462C810.166 451.607 810.944 451.003 811.783 450.652C812.627 450.294 813.479 450.193 814.338 450.348C815.196 450.492 816.012 450.888 816.784 451.536C817.461 452.104 817.927 452.767 818.183 453.526C818.437 454.272 818.481 455.076 818.314 455.936C818.146 456.785 817.762 457.644 817.164 458.512L826.823 458.98L825.634 460.398L816.042 459.888L813.969 462.359L819.849 467.292L818.917 468.403ZM812.935 461.491L815.667 458.235C816.561 457.169 817.019 456.144 817.039 455.161C817.059 454.165 816.663 453.327 815.852 452.647C815.01 451.94 814.116 451.625 813.17 451.702C812.224 451.778 811.302 452.353 810.402 453.426L807.477 456.911L812.935 461.491ZM839.511 443.859L826.106 432.61L827.038 431.499L840.444 442.748L839.511 443.859ZM857.617 422.865C856.91 423.707 856.107 424.437 855.209 425.054C854.304 425.666 853.408 426.066 852.519 426.256L852.114 424.872C852.671 424.741 853.212 424.543 853.739 424.278C854.266 424.013 854.77 423.691 855.252 423.311C855.732 422.92 856.181 422.476 856.599 421.978C857.515 420.886 858.028 419.827 858.14 418.8C858.25 417.761 857.874 416.88 857.012 416.157C856.4 415.643 855.697 415.423 854.905 415.498C854.119 415.567 853.063 416.041 851.738 416.92L849.909 418.127C848.595 418.993 847.439 419.476 846.442 419.575C845.445 419.662 844.521 419.349 843.672 418.637C843.091 418.15 842.668 417.604 842.402 417C842.13 416.391 842.006 415.748 842.029 415.072C842.052 414.384 842.216 413.689 842.521 412.988C842.826 412.276 843.262 411.581 843.83 410.904C844.494 410.113 845.225 409.475 846.022 408.991C846.82 408.507 847.603 408.19 848.37 408.04L848.719 409.394C848.226 409.502 847.738 409.675 847.256 409.912C846.774 410.15 846.315 410.444 845.879 410.796C845.436 411.142 845.032 411.532 844.668 411.966C844.111 412.63 843.72 413.303 843.496 413.985C843.271 414.656 843.232 415.298 843.38 415.912C843.534 416.52 843.895 417.062 844.463 417.539C844.859 417.871 845.282 418.079 845.733 418.164C846.183 418.237 846.715 418.161 847.328 417.936C847.94 417.699 848.688 417.287 849.572 416.701L851.551 415.392C852.809 414.555 853.94 414.101 854.945 414.031C855.951 413.961 856.903 414.303 857.804 415.058C858.544 415.68 859.045 416.405 859.307 417.234C859.574 418.056 859.572 418.947 859.301 419.905C859.03 420.863 858.469 421.85 857.617 422.865ZM875.476 406.482L874.595 405.743L882.63 396.167L883.511 396.906L875.476 406.482ZM891.646 381.727L889.747 374.423L882.63 373.803L883.771 372.443L889.464 373.01L887.853 367.579L888.929 366.296L890.814 373.034L898.379 373.703L897.222 375.082L891.098 374.447L892.739 380.425L891.646 381.727ZM914.56 355.003C913.746 355.973 912.809 356.662 911.75 357.068C910.691 357.462 909.57 357.533 908.389 357.282C907.206 357.019 906.021 356.389 904.834 355.393C903.704 354.444 902.832 353.37 902.219 352.17C901.604 350.958 901.234 349.674 901.11 348.319C900.985 346.963 901.105 345.589 901.468 344.197C901.825 342.799 902.412 341.438 903.231 340.112L904.542 340.494C903.681 341.741 903.082 342.967 902.743 344.174C902.404 345.369 902.28 346.516 902.37 347.614C902.46 348.712 902.721 349.736 903.154 350.686C903.585 351.624 904.134 352.467 904.803 353.213C904.464 352.243 904.388 351.238 904.575 350.198C904.762 349.158 905.212 348.214 905.924 347.365C906.642 346.51 907.475 345.887 908.422 345.496C909.364 345.1 910.328 344.969 911.316 345.101C912.297 345.228 913.209 345.645 914.051 346.352C914.69 346.888 915.185 347.51 915.537 348.219C915.894 348.921 916.098 349.663 916.149 350.445C916.198 351.216 916.095 351.994 915.838 352.779C915.575 353.56 915.149 354.301 914.56 355.003ZM913.468 354.087C914.063 353.378 914.447 352.635 914.622 351.857C914.795 351.067 914.764 350.306 914.529 349.576C914.293 348.845 913.853 348.209 913.208 347.668C912.576 347.138 911.875 346.827 911.104 346.734C910.332 346.63 909.568 346.73 908.814 347.032C908.06 347.335 907.396 347.828 906.823 348.511C906.25 349.194 905.88 349.933 905.713 350.729C905.546 351.524 905.578 352.296 905.809 353.045C906.039 353.782 906.47 354.415 907.102 354.946C907.747 355.487 908.446 355.813 909.202 355.924C909.962 356.029 910.716 355.928 911.464 355.62C912.206 355.307 912.874 354.796 913.468 354.087ZM935.956 328.921L932.968 326.414L927.119 333.385L926.161 332.582L921.2 319.281L922.245 318.036L927.129 331.273L931.934 325.546L928.602 322.75L929.502 321.678L932.834 324.474L934.778 322.157L935.812 323.024L933.868 325.342L936.856 327.849L935.956 328.921Z" fill="white" fill-opacity="0.02"/>
<mask id="mask0_388_270" style="mask-type:alpha" maskUnits="userSpaceOnUse" x="30" y="88" width="37" height="123">
<path d="M31.0879 208.31H66V210.873H31.0879V208.31ZM64.7793 176.996H62.0938C63.3958 173.334 64.0469 169.298 64.0469 164.887C64.0469 157.579 61.2799 153.925 55.7461 153.925C51.6771 153.925 49.6426 156.301 49.6426 161.054V168.231C49.6426 174.726 46.7129 177.973 40.8535 177.973C34.1803 177.973 30.8438 173.212 30.8438 163.69C30.8438 159.784 31.332 156 32.3086 152.338H34.75C33.6107 156 33.041 159.784 33.041 163.69C33.041 171.503 35.6452 175.409 40.8535 175.409C45.0853 175.409 47.2012 173.017 47.2012 168.231V161.054C47.2012 154.592 50.0495 151.361 55.7461 151.361C62.7448 151.361 66.2441 155.87 66.2441 164.887C66.2441 169.298 65.7559 173.334 64.7793 176.996ZM48.4463 120.683C58.8467 120.683 64.0469 115.775 64.0469 105.961C64.0469 96.3255 58.8467 91.5078 48.4463 91.5078C38.1761 91.5078 33.041 96.3255 33.041 105.961C33.041 115.775 38.1761 120.683 48.4463 120.683ZM48.5928 123.49C36.7601 123.49 30.8438 117.647 30.8438 105.961C30.8438 94.4538 36.7601 88.7002 48.5928 88.7002C60.3604 88.7002 66.2441 94.4538 66.2441 105.961C66.2441 117.647 60.3604 123.49 48.5928 123.49Z" fill="white"/>
</mask>
<g mask="url(#mask0_388_270)">
<g filter="url(#filter4_f_388_270)">
<circle cx="77" cy="216" r="50" fill="#D9D9D9"/>
</g>
<g filter="url(#filter5_f_388_270)">
<circle cx="27" cy="81" r="50" fill="#D9D9D9"/>
</g>
</g>
<mask id="mask1_388_270" style="mask-type:alpha" maskUnits="userSpaceOnUse" x="32" y="30" width="194" height="37">
<path d="M46.5996 48.5439L32.8545 31.0879H35.9062L48.1133 46.6152L60.3203 31.0879H63.3721L49.6514 48.5439L63.3721 66H60.3203L48.1133 50.4727L35.9062 66H32.8545L46.5996 48.5439ZM92.2197 48.4463C92.2197 58.8467 96.3132 64.0469 104.5 64.0469C112.508 64.0469 116.512 58.8467 116.512 48.4463C116.512 38.1761 112.508 33.041 104.5 33.041C96.3132 33.041 92.2197 38.1761 92.2197 48.4463ZM89.4121 48.5928C89.4121 36.7601 94.4414 30.8438 104.5 30.8438C114.38 30.8438 119.319 36.7601 119.319 48.5928C119.319 60.3604 114.38 66.2441 104.5 66.2441C94.9622 66.2441 89.9329 60.3604 89.4121 48.5928ZM147.215 52.5723C147.215 43.5228 152.57 36.0114 163.279 30.0381L164.402 31.918C157.257 36.1986 152.83 40.585 151.121 45.0771C154.067 44.0518 156.964 43.5391 159.812 43.5391C168.341 43.5391 172.605 47.2012 172.605 54.5254C172.605 62.3379 168.431 66.2441 160.081 66.2441C151.504 66.2441 147.215 61.6868 147.215 52.5723ZM149.534 52.4258C149.534 60.1732 153.123 64.0469 160.301 64.0469C166.86 64.0469 170.14 60.873 170.14 54.5254C170.14 48.666 166.705 45.7363 159.837 45.7363C156.354 45.7363 153.229 46.2897 150.462 47.3965C149.843 48.5358 149.534 50.2122 149.534 52.4258ZM221.644 66H219.08V57.6992H199.012V55.502L214.271 31.0879H217.054L201.771 55.502H219.08V41.6348H221.644V55.502L225.501 56.3809V57.6992H221.644V66Z" fill="white"/>
</mask>
<g mask="url(#mask1_388_270)">
<g filter="url(#filter6_f_388_270)">
<circle cx="27" cy="60" r="50" fill="#D9D9D9"/>
</g>
<g filter="url(#filter7_f_388_270)">
<circle cx="116" cy="129" r="50" fill="#D9D9D9"/>
</g>
<g filter="url(#filter8_f_388_270)">
<circle cx="238" cy="31" r="50" fill="#D9D9D9"/>
</g>
</g>
<path opacity="0.9" d="M165.91 203V166.502L154.632 170.597L152.422 164.032L173.125 156.525H173.71V203H165.91ZM211.955 203.975C208.51 203.975 205.444 203.238 202.757 201.765C200.071 200.27 197.958 198.136 196.42 195.362C194.903 192.567 194.145 189.22 194.145 185.32C194.145 181.485 194.871 177.953 196.322 174.725C197.774 171.475 199.8 168.604 202.4 166.112C205 163.599 208.044 161.53 211.532 159.905C215.021 158.258 218.802 157.132 222.875 156.525L225.767 162.895C222.647 163.242 219.863 163.881 217.415 164.812C214.967 165.722 212.843 166.86 211.045 168.225C209.268 169.568 207.784 171.074 206.592 172.742C205.422 174.389 204.534 176.133 203.927 177.975C205.054 176.632 206.462 175.581 208.152 174.822C209.842 174.042 211.673 173.652 213.645 173.652C216.592 173.652 219.235 174.281 221.575 175.537C223.915 176.772 225.757 178.484 227.1 180.672C228.465 182.861 229.147 185.385 229.147 188.245C229.147 190.433 228.725 192.492 227.88 194.42C227.035 196.327 225.843 197.995 224.305 199.425C222.788 200.855 220.979 201.971 218.877 202.772C216.797 203.574 214.49 203.975 211.955 203.975ZM211.955 196.987C213.732 196.987 215.302 196.63 216.667 195.915C218.054 195.2 219.137 194.214 219.917 192.957C220.719 191.701 221.12 190.271 221.12 188.667C221.12 187.064 220.708 185.634 219.885 184.377C219.083 183.121 217.989 182.135 216.602 181.42C215.237 180.683 213.688 180.315 211.955 180.315C210.222 180.315 208.662 180.683 207.275 181.42C205.888 182.135 204.794 183.121 203.992 184.377C203.191 185.634 202.79 187.064 202.79 188.667C202.79 190.271 203.18 191.701 203.96 192.957C204.74 194.214 205.823 195.2 207.21 195.915C208.597 196.63 210.178 196.987 211.955 196.987ZM283.605 203V183.565L267.583 157.5H277.17L288.025 175.44L298.783 157.5H308.11L292.088 183.63V203H283.605ZM320.141 210.475L313.284 207.777L336.651 150.675L343.509 153.372L320.141 210.475ZM377.466 203.975C374.021 203.975 370.825 203.379 367.879 202.187C364.954 200.974 362.408 199.295 360.241 197.15C358.075 195.005 356.395 192.492 355.204 189.61C354.012 186.728 353.416 183.608 353.416 180.25C353.416 176.87 354.012 173.739 355.204 170.857C356.395 167.976 358.075 165.462 360.241 163.317C362.408 161.172 364.954 159.504 367.879 158.312C370.825 157.121 374.021 156.525 377.466 156.525C380.89 156.525 384.064 157.132 386.989 158.345C389.914 159.558 392.46 161.248 394.626 163.415C396.793 165.582 398.483 168.106 399.696 170.987C400.91 173.847 401.516 176.935 401.516 180.25C401.516 183.608 400.91 186.728 399.696 189.61C398.483 192.492 396.793 195.005 394.626 197.15C392.46 199.295 389.914 200.974 386.989 202.187C384.064 203.379 380.89 203.975 377.466 203.975ZM377.466 196.012C379.611 196.012 381.605 195.644 383.446 194.907C385.31 194.149 386.924 193.087 388.289 191.722C389.675 190.336 390.748 188.678 391.506 186.75C392.286 184.8 392.676 182.633 392.676 180.25C392.676 177.065 392.005 174.292 390.661 171.93C389.318 169.568 387.498 167.737 385.201 166.437C382.905 165.137 380.326 164.487 377.466 164.487C375.3 164.487 373.295 164.856 371.454 165.592C369.612 166.329 367.998 167.391 366.611 168.777C365.246 170.164 364.174 171.822 363.394 173.75C362.635 175.678 362.256 177.845 362.256 180.25C362.256 183.435 362.917 186.208 364.239 188.57C365.582 190.932 367.402 192.762 369.699 194.062C371.995 195.362 374.585 196.012 377.466 196.012ZM466.083 203.975C461.36 203.975 457.221 203 453.668 201.05C450.115 199.1 447.352 196.359 445.381 192.827C443.409 189.274 442.423 185.103 442.423 180.315C442.423 176.827 442.997 173.642 444.146 170.76C445.316 167.857 446.962 165.343 449.086 163.22C451.231 161.075 453.744 159.428 456.626 158.28C459.529 157.11 462.714 156.525 466.181 156.525C469.756 156.525 472.811 156.98 475.346 157.89C477.881 158.778 480.134 160.046 482.106 161.692L477.783 168.615C476.396 167.293 474.771 166.318 472.908 165.69C471.066 165.04 469.019 164.715 466.766 164.715C464.361 164.715 462.205 165.072 460.298 165.787C458.391 166.502 456.766 167.542 455.423 168.907C454.08 170.251 453.051 171.876 452.336 173.782C451.621 175.689 451.263 177.834 451.263 180.217C451.263 183.489 451.902 186.284 453.181 188.602C454.459 190.899 456.279 192.665 458.641 193.9C461.002 195.135 463.808 195.752 467.058 195.752C469.246 195.752 471.381 195.417 473.461 194.745C475.562 194.073 477.545 193.001 479.408 191.527L483.308 198.645C481.141 200.335 478.628 201.646 475.768 202.577C472.93 203.509 469.701 203.975 466.083 203.975ZM520.657 203.975C517.212 203.975 514.016 203.379 511.069 202.187C508.144 200.974 505.598 199.295 503.432 197.15C501.265 195.005 499.586 192.492 498.394 189.61C497.202 186.728 496.607 183.608 496.607 180.25C496.607 176.87 497.202 173.739 498.394 170.857C499.586 167.976 501.265 165.462 503.432 163.317C505.598 161.172 508.144 159.504 511.069 158.312C514.016 157.121 517.212 156.525 520.657 156.525C524.08 156.525 527.254 157.132 530.179 158.345C533.104 159.558 535.65 161.248 537.817 163.415C539.983 165.582 541.673 168.106 542.887 170.987C544.1 173.847 544.707 176.935 544.707 180.25C544.707 183.608 544.1 186.728 542.887 189.61C541.673 192.492 539.983 195.005 537.817 197.15C535.65 199.295 533.104 200.974 530.179 202.187C527.254 203.379 524.08 203.975 520.657 203.975ZM520.657 196.012C522.802 196.012 524.795 195.644 526.637 194.907C528.5 194.149 530.114 193.087 531.479 191.722C532.866 190.336 533.938 188.678 534.697 186.75C535.477 184.8 535.867 182.633 535.867 180.25C535.867 177.065 535.195 174.292 533.852 171.93C532.508 169.568 530.688 167.737 528.392 166.437C526.095 165.137 523.517 164.487 520.657 164.487C518.49 164.487 516.486 164.856 514.644 165.592C512.802 166.329 511.188 167.391 509.802 168.777C508.437 170.164 507.364 171.822 506.584 173.75C505.826 175.678 505.447 177.845 505.447 180.25C505.447 183.435 506.107 186.208 507.429 188.57C508.772 190.932 510.592 192.762 512.889 194.062C515.186 195.362 517.775 196.012 520.657 196.012ZM563.076 203V157.5H577.766C582.337 157.5 586.378 158.464 589.888 160.392C593.398 162.321 596.139 164.997 598.111 168.42C600.082 171.843 601.068 175.797 601.068 180.282C601.068 183.619 600.505 186.685 599.378 189.48C598.252 192.253 596.648 194.647 594.568 196.662C592.51 198.677 590.051 200.237 587.191 201.342C584.352 202.447 581.211 203 577.766 203H563.076ZM571.526 195.135H576.986C579.261 195.135 581.33 194.799 583.193 194.127C585.057 193.456 586.66 192.481 588.003 191.202C589.368 189.924 590.408 188.364 591.123 186.522C591.86 184.681 592.228 182.601 592.228 180.282C592.228 177.141 591.589 174.465 590.311 172.255C589.054 170.023 587.277 168.322 584.981 167.152C582.706 165.961 580.041 165.365 576.986 165.365H571.526V195.135ZM619.481 203V157.5H649.738V164.91H627.931V175.927H646.586V182.85H627.931V195.525H649.966V203H619.481ZM669.539 203V157.5H687.154C690.382 157.5 693.188 158.052 695.571 159.157C697.954 160.241 699.796 161.801 701.096 163.837C702.396 165.874 703.046 168.301 703.046 171.117C703.046 173.371 702.58 175.353 701.649 177.065C700.717 178.777 699.428 180.196 697.781 181.322C696.156 182.449 694.271 183.24 692.126 183.695L705.354 203H695.214L683.449 185.19H677.989V203H669.539ZM677.989 178.267H685.919C688.627 178.267 690.739 177.704 692.256 176.577C693.773 175.429 694.531 173.761 694.531 171.572C694.531 169.297 693.838 167.564 692.451 166.372C691.064 165.181 689.028 164.585 686.341 164.585H677.989V178.267Z" fill="white"/>
<path opacity="0.9" d="M169.25 281.641C168.552 281.641 167.927 281.488 167.375 281.181C166.831 280.867 166.402 280.445 166.087 279.916C165.781 279.38 165.627 278.77 165.627 278.088C165.627 277.406 165.781 276.796 166.087 276.259C166.402 275.723 166.831 275.301 167.375 274.994C167.927 274.688 168.552 274.534 169.25 274.534C169.948 274.534 170.569 274.688 171.113 274.994C171.665 275.301 172.094 275.723 172.401 276.259C172.715 276.796 172.872 277.406 172.872 278.088C172.872 278.77 172.715 279.38 172.401 279.916C172.094 280.445 171.665 280.867 171.113 281.181C170.569 281.488 169.948 281.641 169.25 281.641ZM193.124 286L186.776 269.9H188.731L193.998 283.504L199.012 269.9H200.932L194.814 286H193.124ZM208.204 286.345C207.407 286.345 206.717 286.199 206.134 285.908C205.552 285.617 205.103 285.21 204.789 284.689C204.474 284.16 204.317 283.543 204.317 282.837C204.317 282.255 204.467 281.722 204.766 281.239C205.072 280.748 205.552 280.342 206.203 280.02C206.863 279.69 207.721 279.472 208.779 279.364C209.837 279.257 211.125 279.288 212.643 279.456L212.701 280.802C211.451 280.641 210.393 280.583 209.527 280.629C208.668 280.675 207.978 280.798 207.457 280.997C206.935 281.197 206.556 281.454 206.318 281.768C206.088 282.082 205.973 282.427 205.973 282.803C205.973 283.447 206.199 283.949 206.652 284.309C207.104 284.67 207.733 284.85 208.538 284.85C209.212 284.85 209.818 284.723 210.355 284.47C210.891 284.217 211.317 283.869 211.631 283.424C211.946 282.979 212.103 282.469 212.103 281.894V278.64C212.103 278.073 211.98 277.586 211.735 277.179C211.489 276.773 211.129 276.459 210.654 276.236C210.186 276.014 209.615 275.903 208.94 275.903C208.358 275.903 207.775 275.991 207.192 276.167C206.617 276.344 206.054 276.635 205.502 277.041L204.95 275.65C205.624 275.175 206.318 274.845 207.031 274.661C207.744 274.477 208.423 274.385 209.067 274.385C210.086 274.385 210.945 274.546 211.643 274.868C212.34 275.19 212.869 275.665 213.23 276.294C213.59 276.923 213.77 277.701 213.77 278.628V286H212.16V284.585C211.762 285.153 211.213 285.59 210.516 285.896C209.818 286.195 209.048 286.345 208.204 286.345ZM219.927 286V274.845H221.629V276.432C222.128 275.742 222.703 275.247 223.354 274.948C224.014 274.649 224.685 274.5 225.367 274.5C226.364 274.5 227.192 274.703 227.851 275.109C228.518 275.508 229.012 276.022 229.334 276.65C229.664 277.271 229.829 277.904 229.829 278.548V286H228.127V279.065C228.127 278.184 227.843 277.471 227.276 276.926C226.716 276.374 225.953 276.098 224.987 276.098C224.359 276.098 223.791 276.24 223.285 276.524C222.779 276.808 222.377 277.206 222.078 277.72C221.779 278.226 221.629 278.816 221.629 279.491V286H219.927ZM236.024 286V274.845H237.726V286H236.024ZM236.875 272.614C236.522 272.614 236.219 272.495 235.966 272.257C235.721 272.02 235.598 271.725 235.598 271.372C235.598 271.012 235.721 270.713 235.966 270.475C236.219 270.237 236.522 270.118 236.875 270.118C237.228 270.118 237.527 270.237 237.772 270.475C238.025 270.713 238.151 271.012 238.151 271.372C238.151 271.725 238.025 272.02 237.772 272.257C237.527 272.495 237.228 272.614 236.875 272.614ZM244.034 286V269.44H245.736V286H244.034ZM252.045 286V269.44H253.747V286H252.045ZM263.126 286.345C262.328 286.345 261.638 286.199 261.056 285.908C260.473 285.617 260.025 285.21 259.71 284.689C259.396 284.16 259.239 283.543 259.239 282.837C259.239 282.255 259.388 281.722 259.687 281.239C259.994 280.748 260.473 280.342 261.125 280.02C261.784 279.69 262.643 279.472 263.701 279.364C264.759 279.257 266.047 279.288 267.565 279.456L267.622 280.802C266.373 280.641 265.315 280.583 264.448 280.629C263.59 280.675 262.9 280.798 262.378 280.997C261.857 281.197 261.477 281.454 261.24 281.768C261.01 282.082 260.895 282.427 260.895 282.803C260.895 283.447 261.121 283.949 261.573 284.309C262.026 284.67 262.654 284.85 263.459 284.85C264.134 284.85 264.74 284.723 265.276 284.47C265.813 284.217 266.238 283.869 266.553 283.424C266.867 282.979 267.024 282.469 267.024 281.894V278.64C267.024 278.073 266.902 277.586 266.656 277.179C266.411 276.773 266.051 276.459 265.575 276.236C265.108 276.014 264.536 275.903 263.862 275.903C263.279 275.903 262.696 275.991 262.114 276.167C261.539 276.344 260.975 276.635 260.423 277.041L259.871 275.65C260.546 275.175 261.24 274.845 261.953 274.661C262.666 274.477 263.344 274.385 263.988 274.385C265.008 274.385 265.867 274.546 266.564 274.868C267.262 275.19 267.791 275.665 268.151 276.294C268.512 276.923 268.692 277.701 268.692 278.628V286H267.082V284.585C266.683 285.153 266.135 285.59 265.437 285.896C264.74 286.195 263.969 286.345 263.126 286.345ZM290.831 286.345C289.168 286.345 287.715 285.996 286.473 285.298C285.238 284.601 284.28 283.619 283.598 282.354C282.915 281.089 282.574 279.617 282.574 277.938C282.574 276.719 282.777 275.604 283.184 274.592C283.59 273.572 284.161 272.687 284.897 271.935C285.641 271.176 286.515 270.59 287.519 270.176C288.531 269.762 289.639 269.555 290.843 269.555C291.985 269.555 292.997 269.701 293.879 269.992C294.76 270.276 295.516 270.678 296.144 271.199L295.178 272.625C294.634 272.15 294.009 271.797 293.304 271.567C292.598 271.337 291.824 271.222 290.981 271.222C289.984 271.222 289.079 271.38 288.267 271.694C287.462 272.008 286.768 272.457 286.185 273.039C285.61 273.614 285.166 274.316 284.851 275.144C284.545 275.964 284.391 276.892 284.391 277.927C284.391 279.353 284.667 280.568 285.219 281.572C285.771 282.569 286.549 283.332 287.554 283.861C288.566 284.39 289.754 284.654 291.119 284.654C291.993 284.654 292.821 284.528 293.603 284.275C294.392 284.014 295.125 283.589 295.799 282.998L296.627 284.493C295.83 285.122 294.948 285.59 293.982 285.896C293.024 286.195 291.974 286.345 290.831 286.345ZM169.25 310.641C168.552 310.641 167.927 310.488 167.375 310.181C166.831 309.867 166.402 309.445 166.087 308.916C165.781 308.38 165.627 307.77 165.627 307.088C165.627 306.406 165.781 305.796 166.087 305.259C166.402 304.723 166.831 304.301 167.375 303.994C167.927 303.688 168.552 303.534 169.25 303.534C169.948 303.534 170.569 303.688 171.113 303.994C171.665 304.301 172.094 304.723 172.401 305.259C172.715 305.796 172.872 306.406 172.872 307.088C172.872 307.77 172.715 308.38 172.401 308.916C172.094 309.445 171.665 309.867 171.113 310.181C170.569 310.488 169.948 310.641 169.25 310.641ZM195.976 315.345C194.312 315.345 192.859 314.996 191.617 314.298C190.383 313.601 189.425 312.619 188.742 311.354C188.06 310.089 187.719 308.617 187.719 306.938C187.719 305.719 187.922 304.604 188.328 303.592C188.735 302.572 189.306 301.687 190.042 300.935C190.786 300.176 191.66 299.59 192.664 299.176C193.676 298.762 194.784 298.555 195.987 298.555C197.13 298.555 198.142 298.701 199.023 298.992C199.905 299.276 200.66 299.678 201.289 300.199L200.323 301.625C199.779 301.15 199.154 300.797 198.448 300.567C197.743 300.337 196.969 300.222 196.125 300.222C195.129 300.222 194.224 300.38 193.411 300.694C192.606 301.008 191.913 301.457 191.33 302.039C190.755 302.614 190.31 303.316 189.996 304.144C189.689 304.964 189.536 305.892 189.536 306.927C189.536 308.353 189.812 309.568 190.364 310.572C190.916 311.569 191.694 312.332 192.698 312.861C193.71 313.39 194.899 313.654 196.263 313.654C197.137 313.654 197.965 313.528 198.747 313.275C199.537 313.014 200.269 312.589 200.944 311.998L201.772 313.493C200.975 314.122 200.093 314.59 199.127 314.896C198.169 315.195 197.118 315.345 195.976 315.345ZM211.795 312.631V308.031H206.954V306.674H211.795V302.085H213.198V306.674H218.04V308.031H213.198V312.631H211.795ZM229.239 312.631V308.031H224.398V306.674H229.239V302.085H230.642V306.674H235.484V308.031H230.642V312.631H229.239ZM169.25 339.641C168.552 339.641 167.927 339.488 167.375 339.181C166.831 338.867 166.402 338.445 166.087 337.916C165.781 337.38 165.627 336.77 165.627 336.088C165.627 335.406 165.781 334.796 166.087 334.259C166.402 333.723 166.831 333.301 167.375 332.994C167.927 332.688 168.552 332.534 169.25 332.534C169.948 332.534 170.569 332.688 171.113 332.994C171.665 333.301 172.094 333.723 172.401 334.259C172.715 334.796 172.872 335.406 172.872 336.088C172.872 336.77 172.715 337.38 172.401 337.916C172.094 338.445 171.665 338.867 171.113 339.181C170.569 339.488 169.948 339.641 169.25 339.641ZM188.731 344V327.9H190.479V334.581H199.242V327.9H200.99V344H199.242V336.203H190.479V344H188.731ZM211.169 344V329.51H206.488V327.9H217.597V329.51H212.917V344H211.169ZM223.103 344V327.9H224.805L231.67 338.94L231.015 338.951L237.685 327.9H239.329V344H237.593L237.604 330.361L237.972 330.476L231.946 340.239H230.509L224.425 330.476L224.69 330.361L224.701 344H223.103ZM246.319 344V327.9H248.067V342.378H255.45V344H246.319ZM264.885 344.345C263.935 344.345 263.015 344.211 262.125 343.942C261.236 343.666 260.504 343.306 259.929 342.861L260.596 341.366C261.132 341.796 261.78 342.133 262.539 342.378C263.298 342.616 264.05 342.735 264.793 342.735C265.652 342.735 266.396 342.585 267.024 342.286C267.661 341.987 268.147 341.562 268.485 341.01C268.83 340.458 269.002 339.799 269.002 339.032C269.002 338.311 268.818 337.69 268.45 337.169C268.09 336.648 267.592 336.249 266.955 335.973C266.327 335.689 265.617 335.547 264.828 335.547C264.337 335.547 263.827 335.609 263.298 335.731C262.769 335.846 262.233 336.023 261.688 336.26L260.952 335.513L261.78 327.934L270.382 327.9V329.487H263.08L262.505 334.604C262.98 334.428 263.452 334.298 263.919 334.213C264.395 334.121 264.858 334.075 265.311 334.075C266.338 334.075 267.262 334.275 268.082 334.673C268.91 335.064 269.566 335.636 270.049 336.387C270.539 337.131 270.785 338.024 270.785 339.066C270.785 340.132 270.532 341.064 270.026 341.861C269.527 342.651 268.834 343.264 267.944 343.701C267.063 344.13 266.043 344.345 264.885 344.345ZM289.874 341.631V337.031H285.032V335.674H289.874V331.085H291.277V335.674H296.118V337.031H291.277V341.631H289.874ZM318.436 344.345C316.772 344.345 315.319 343.996 314.077 343.298C312.843 342.601 311.885 341.619 311.202 340.354C310.52 339.089 310.179 337.617 310.179 335.938C310.179 334.719 310.382 333.604 310.788 332.592C311.195 331.572 311.766 330.687 312.502 329.935C313.245 329.176 314.119 328.59 315.124 328.176C316.136 327.762 317.244 327.555 318.447 327.555C319.59 327.555 320.602 327.701 321.483 327.992C322.365 328.276 323.12 328.678 323.749 329.199L322.783 330.625C322.238 330.15 321.614 329.797 320.908 329.567C320.203 329.337 319.429 329.222 318.585 329.222C317.589 329.222 316.684 329.38 315.871 329.694C315.066 330.008 314.372 330.457 313.79 331.039C313.215 331.614 312.77 332.316 312.456 333.144C312.149 333.964 311.996 334.892 311.996 335.927C311.996 337.353 312.272 338.568 312.824 339.572C313.376 340.569 314.154 341.332 315.158 341.861C316.17 342.39 317.359 342.654 318.723 342.654C319.597 342.654 320.425 342.528 321.207 342.275C321.997 342.014 322.729 341.589 323.404 340.998L324.232 342.493C323.434 343.122 322.553 343.59 321.587 343.896C320.628 344.195 319.578 344.345 318.436 344.345ZM334.715 344.345C333.672 344.345 332.653 344.203 331.656 343.919C330.659 343.628 329.82 343.21 329.137 342.666L330.046 341.274C330.452 341.596 330.905 341.869 331.403 342.091C331.909 342.313 332.442 342.482 333.001 342.597C333.569 342.712 334.148 342.769 334.738 342.769C335.965 342.769 336.95 342.528 337.693 342.045C338.437 341.554 338.809 340.837 338.809 339.894C338.809 339.212 338.564 338.633 338.073 338.158C337.582 337.683 336.67 337.249 335.336 336.858L333.496 336.318C332.062 335.896 331.012 335.348 330.345 334.673C329.678 333.999 329.344 333.144 329.344 332.109C329.344 331.404 329.482 330.775 329.758 330.223C330.034 329.663 330.422 329.184 330.92 328.785C331.426 328.387 332.024 328.084 332.714 327.877C333.404 327.662 334.163 327.555 334.991 327.555C335.988 327.555 336.911 327.701 337.762 327.992C338.613 328.283 339.326 328.667 339.901 329.142L338.958 330.476C338.606 330.185 338.203 329.939 337.751 329.74C337.306 329.533 336.831 329.376 336.325 329.268C335.819 329.161 335.305 329.107 334.784 329.107C334.04 329.107 333.381 329.219 332.806 329.441C332.239 329.663 331.794 329.989 331.472 330.418C331.15 330.848 330.989 331.377 330.989 332.005C330.989 332.442 331.089 332.83 331.288 333.167C331.495 333.497 331.848 333.799 332.346 334.075C332.844 334.344 333.538 334.608 334.427 334.869L336.405 335.455C337.793 335.862 338.817 336.406 339.476 337.088C340.135 337.763 340.465 338.649 340.465 339.745C340.465 340.657 340.243 341.458 339.798 342.148C339.361 342.838 338.713 343.379 337.854 343.77C336.996 344.153 335.949 344.345 334.715 344.345ZM351.508 344.345C350.465 344.345 349.445 344.203 348.449 343.919C347.452 343.628 346.612 343.21 345.93 342.666L346.839 341.274C347.245 341.596 347.697 341.869 348.196 342.091C348.702 342.313 349.234 342.482 349.794 342.597C350.361 342.712 350.94 342.769 351.531 342.769C352.757 342.769 353.742 342.528 354.486 342.045C355.23 341.554 355.602 340.837 355.602 339.894C355.602 339.212 355.356 338.633 354.866 338.158C354.375 337.683 353.463 337.249 352.129 336.858L350.289 336.318C348.855 335.896 347.805 335.348 347.138 334.673C346.471 333.999 346.137 333.144 346.137 332.109C346.137 331.404 346.275 330.775 346.551 330.223C346.827 329.663 347.214 329.184 347.713 328.785C348.219 328.387 348.817 328.084 349.507 327.877C350.197 327.662 350.956 327.555 351.784 327.555C352.78 327.555 353.704 327.701 354.555 327.992C355.406 328.283 356.119 328.667 356.694 329.142L355.751 330.476C355.398 330.185 354.996 329.939 354.544 329.74C354.099 329.533 353.624 329.376 353.118 329.268C352.612 329.161 352.098 329.107 351.577 329.107C350.833 329.107 350.174 329.219 349.599 329.441C349.031 329.663 348.587 329.989 348.265 330.418C347.943 330.848 347.782 331.377 347.782 332.005C347.782 332.442 347.881 332.83 348.081 333.167C348.288 333.497 348.64 333.799 349.139 334.075C349.637 334.344 350.331 334.608 351.22 334.869L353.198 335.455C354.586 335.862 355.609 336.406 356.269 337.088C356.928 337.763 357.258 338.649 357.258 339.745C357.258 340.657 357.035 341.458 356.591 342.148C356.154 342.838 355.506 343.379 354.647 343.77C353.788 344.153 352.742 344.345 351.508 344.345ZM367.104 344.345C366.468 344.345 365.839 344.28 365.218 344.149C364.605 344.027 364.03 343.854 363.493 343.632C362.964 343.41 362.52 343.153 362.159 342.861L362.838 341.343C363.359 341.765 363.999 342.102 364.758 342.355C365.525 342.608 366.276 342.735 367.012 342.735C367.848 342.735 368.572 342.593 369.186 342.309C369.799 342.026 370.271 341.623 370.6 341.102C370.938 340.581 371.106 339.963 371.106 339.25C371.106 338.177 370.715 337.341 369.933 336.743C369.159 336.145 368.116 335.846 366.805 335.846C366.506 335.846 366.196 335.866 365.874 335.904C365.552 335.942 365.222 335.996 364.885 336.065L364.31 334.846L369.899 329.452H362.251V327.9H372.153V329.326L366.736 334.581C367.825 334.52 368.837 334.654 369.772 334.984C370.708 335.314 371.459 335.839 372.026 336.559C372.594 337.272 372.877 338.185 372.877 339.296C372.877 340.308 372.632 341.194 372.141 341.953C371.651 342.712 370.968 343.302 370.094 343.724C369.228 344.138 368.231 344.345 367.104 344.345ZM392.082 341.631V337.031H387.24V335.674H392.082V331.085H393.485V335.674H398.326V337.031H393.485V341.631H392.082ZM413.64 346.53V325.6H417.481V326.945H415.101V345.184H417.481V346.53H413.64ZM425.437 344.345C424.816 344.345 424.218 344.264 423.643 344.103C423.068 343.95 422.505 343.724 421.953 343.425L422.608 341.953C423.022 342.198 423.448 342.39 423.885 342.528C424.329 342.658 424.786 342.723 425.253 342.723C426.357 342.723 427.193 342.478 427.76 341.987C428.335 341.489 428.623 340.673 428.623 339.538V327.9H430.371V339.71C430.371 340.661 430.179 341.485 429.796 342.183C429.42 342.873 428.864 343.406 428.128 343.781C427.392 344.157 426.495 344.345 425.437 344.345ZM442.328 344.345C441.285 344.345 440.266 344.203 439.269 343.919C438.272 343.628 437.433 343.21 436.75 342.666L437.659 341.274C438.065 341.596 438.518 341.869 439.016 342.091C439.522 342.313 440.055 342.482 440.614 342.597C441.182 342.712 441.761 342.769 442.351 342.769C443.578 342.769 444.563 342.528 445.306 342.045C446.05 341.554 446.422 340.837 446.422 339.894C446.422 339.212 446.177 338.633 445.686 338.158C445.195 337.683 444.283 337.249 442.949 336.858L441.109 336.318C439.675 335.896 438.625 335.348 437.958 334.673C437.291 333.999 436.957 333.144 436.957 332.109C436.957 331.404 437.095 330.775 437.371 330.223C437.647 329.663 438.035 329.184 438.533 328.785C439.039 328.387 439.637 328.084 440.327 327.877C441.017 327.662 441.776 327.555 442.604 327.555C443.601 327.555 444.524 327.701 445.375 327.992C446.226 328.283 446.939 328.667 447.514 329.142L446.571 330.476C446.219 330.185 445.816 329.939 445.364 329.74C444.919 329.533 444.444 329.376 443.938 329.268C443.432 329.161 442.918 329.107 442.397 329.107C441.653 329.107 440.994 329.219 440.419 329.441C439.852 329.663 439.407 329.989 439.085 330.418C438.763 330.848 438.602 331.377 438.602 332.005C438.602 332.442 438.702 332.83 438.901 333.167C439.108 333.497 439.461 333.799 439.959 334.075C440.457 334.344 441.151 334.608 442.04 334.869L444.018 335.455C445.406 335.862 446.43 336.406 447.089 337.088C447.748 337.763 448.078 338.649 448.078 339.745C448.078 340.657 447.856 341.458 447.411 342.148C446.974 342.838 446.326 343.379 445.467 343.77C444.609 344.153 443.562 344.345 442.328 344.345ZM457.2 346.53H453.359V345.184H455.74V326.945H453.359V325.6H457.2V346.53ZM169.25 368.641C168.552 368.641 167.927 368.488 167.375 368.181C166.831 367.867 166.402 367.445 166.087 366.916C165.781 366.38 165.627 365.77 165.627 365.088C165.627 364.406 165.781 363.796 166.087 363.259C166.402 362.723 166.831 362.301 167.375 361.994C167.927 361.688 168.552 361.534 169.25 361.534C169.948 361.534 170.569 361.688 171.113 361.994C171.665 362.301 172.094 362.723 172.401 363.259C172.715 363.796 172.872 364.406 172.872 365.088C172.872 365.77 172.715 366.38 172.401 366.916C172.094 367.445 171.665 367.867 171.113 368.181C170.569 368.488 169.948 368.641 169.25 368.641ZM188.731 373V356.9H193.779C195.259 356.9 196.463 357.245 197.39 357.935C198.318 358.617 198.782 359.622 198.782 360.948C198.782 361.477 198.648 361.983 198.379 362.466C198.111 362.949 197.774 363.371 197.367 363.731C196.961 364.091 196.547 364.34 196.125 364.478C197.015 364.731 197.766 365.214 198.379 365.927C199 366.633 199.311 367.526 199.311 368.607C199.311 369.443 199.1 370.194 198.678 370.861C198.257 371.52 197.655 372.042 196.873 372.425C196.099 372.808 195.179 373 194.113 373H188.731ZM190.479 371.493H193.745C195.033 371.493 195.987 371.248 196.608 370.757C197.229 370.267 197.54 369.512 197.54 368.492C197.54 367.488 197.218 366.729 196.574 366.215C195.938 365.694 194.945 365.433 193.595 365.433H190.479V371.493ZM190.479 363.961H193.457C194.186 363.961 194.818 363.846 195.355 363.616C195.892 363.386 196.309 363.056 196.608 362.627C196.907 362.19 197.057 361.669 197.057 361.063C197.057 360.204 196.743 359.549 196.114 359.096C195.485 358.636 194.592 358.406 193.434 358.406H190.479V363.961ZM203.604 373L210.01 356.9H211.712L218.359 373H216.392L214.667 368.779H207.158L205.513 373H203.604ZM207.698 367.204H214.104L210.815 359.223L207.698 367.204ZM228.464 373.345C227.421 373.345 226.402 373.203 225.405 372.919C224.408 372.628 223.569 372.21 222.886 371.666L223.795 370.274C224.201 370.596 224.654 370.869 225.152 371.091C225.658 371.313 226.191 371.482 226.75 371.597C227.318 371.712 227.897 371.769 228.487 371.769C229.714 371.769 230.699 371.528 231.442 371.045C232.186 370.554 232.558 369.837 232.558 368.894C232.558 368.212 232.313 367.633 231.822 367.158C231.331 366.683 230.419 366.249 229.085 365.858L227.245 365.318C225.811 364.896 224.761 364.348 224.094 363.673C223.427 362.999 223.093 362.144 223.093 361.109C223.093 360.404 223.231 359.775 223.507 359.223C223.783 358.663 224.171 358.184 224.669 357.785C225.175 357.387 225.773 357.084 226.463 356.877C227.153 356.662 227.912 356.555 228.74 356.555C229.737 356.555 230.66 356.701 231.511 356.992C232.362 357.283 233.075 357.667 233.65 358.142L232.707 359.476C232.355 359.185 231.952 358.939 231.5 358.74C231.055 358.533 230.58 358.376 230.074 358.268C229.568 358.161 229.054 358.107 228.533 358.107C227.789 358.107 227.13 358.219 226.555 358.441C225.988 358.663 225.543 358.989 225.221 359.418C224.899 359.848 224.738 360.377 224.738 361.005C224.738 361.442 224.838 361.83 225.037 362.167C225.244 362.497 225.597 362.799 226.095 363.075C226.593 363.344 227.287 363.608 228.176 363.869L230.154 364.455C231.542 364.862 232.566 365.406 233.225 366.088C233.884 366.763 234.214 367.649 234.214 368.745C234.214 369.657 233.992 370.458 233.547 371.148C233.11 371.838 232.462 372.379 231.603 372.77C230.745 373.153 229.698 373.345 228.464 373.345ZM240.277 373V356.9H242.025V363.581H250.788V356.9H252.536V373H250.788V365.203H242.025V373H240.277Z" fill="white"/>
<path opacity="0.9" d="M574.25 281.641C573.552 281.641 572.927 281.488 572.375 281.181C571.831 280.867 571.402 280.445 571.087 279.916C570.781 279.38 570.627 278.77 570.627 278.088C570.627 277.406 570.781 276.796 571.087 276.259C571.402 275.723 571.831 275.301 572.375 274.994C572.927 274.688 573.552 274.534 574.25 274.534C574.948 274.534 575.569 274.688 576.113 274.994C576.665 275.301 577.094 275.723 577.401 276.259C577.715 276.796 577.872 277.406 577.872 278.088C577.872 278.77 577.715 279.38 577.401 279.916C577.094 280.445 576.665 280.867 576.113 281.181C575.569 281.488 574.948 281.641 574.25 281.641ZM593.731 286V269.9H595.318L604.437 282.814V269.9H606.162V286H604.575L595.456 272.947V286H593.731ZM613.152 286V269.9H622.938V271.487H614.9V276.742H621.972V278.283H614.9V284.401H623.007V286H613.152ZM636.811 286.345C635.622 286.345 634.515 286.134 633.487 285.712C632.468 285.283 631.578 284.689 630.819 283.93C630.068 283.171 629.478 282.282 629.048 281.262C628.627 280.242 628.416 279.138 628.416 277.95C628.416 276.754 628.627 275.646 629.048 274.626C629.478 273.607 630.068 272.717 630.819 271.958C631.578 271.199 632.468 270.609 633.487 270.187C634.515 269.766 635.622 269.555 636.811 269.555C637.991 269.555 639.092 269.77 640.111 270.199C641.131 270.628 642.02 271.226 642.779 271.993C643.538 272.76 644.129 273.653 644.55 274.672C644.98 275.684 645.194 276.777 645.194 277.95C645.194 279.138 644.98 280.242 644.55 281.262C644.129 282.282 643.538 283.171 642.779 283.93C642.02 284.689 641.131 285.283 640.111 285.712C639.092 286.134 637.991 286.345 636.811 286.345ZM636.811 284.677C637.723 284.677 638.578 284.52 639.375 284.206C640.173 283.884 640.87 283.428 641.468 282.837C642.066 282.239 642.534 281.53 642.871 280.71C643.209 279.882 643.377 278.962 643.377 277.95C643.377 276.601 643.082 275.424 642.492 274.419C641.909 273.407 641.119 272.622 640.123 272.062C639.134 271.502 638.03 271.222 636.811 271.222C635.898 271.222 635.044 271.383 634.246 271.705C633.449 272.02 632.751 272.472 632.153 273.062C631.555 273.653 631.084 274.362 630.739 275.19C630.401 276.01 630.233 276.93 630.233 277.95C630.233 279.299 630.528 280.48 631.118 281.492C631.709 282.496 632.498 283.278 633.487 283.838C634.484 284.398 635.592 284.677 636.811 284.677ZM655.24 286L648.892 269.9H650.847L656.114 283.504L661.128 269.9H663.049L656.931 286H655.24ZM668.067 286V269.9H669.815V286H668.067ZM676.796 286V269.9H678.498L685.364 280.94L684.708 280.951L691.378 269.9H693.023V286H691.286L691.298 272.361L691.666 272.476L685.64 282.239H684.202L678.119 272.476L678.383 272.361L678.395 286H676.796ZM708.474 288.53V267.6H709.946V288.53H708.474ZM729.785 286L723.437 269.9H725.392L730.659 283.504L735.673 269.9H737.593L731.475 286H729.785ZM742.611 286V269.9H744.359V286H742.611ZM751.34 286V269.9H753.042L759.908 280.94L759.252 280.951L765.922 269.9H767.567V286H765.83L765.842 272.361L766.21 272.476L760.184 282.239H758.746L752.663 272.476L752.927 272.361L752.939 286H751.34ZM574.25 310.641C573.552 310.641 572.927 310.488 572.375 310.181C571.831 309.867 571.402 309.445 571.087 308.916C570.781 308.38 570.627 307.77 570.627 307.088C570.627 306.406 570.781 305.796 571.087 305.259C571.402 304.723 571.831 304.301 572.375 303.994C572.927 303.688 573.552 303.534 574.25 303.534C574.948 303.534 575.569 303.688 576.113 303.994C576.665 304.301 577.094 304.723 577.401 305.259C577.715 305.796 577.872 306.406 577.872 307.088C577.872 307.77 577.715 308.38 577.401 308.916C577.094 309.445 576.665 309.867 576.113 310.181C575.569 310.488 574.948 310.641 574.25 310.641ZM598.124 315L591.776 298.9H593.731L598.998 312.504L604.012 298.9H605.932L599.814 315H598.124ZM615.93 315.345C614.887 315.345 613.868 315.203 612.871 314.919C611.874 314.628 611.035 314.21 610.352 313.666L611.261 312.274C611.667 312.596 612.12 312.869 612.618 313.091C613.124 313.313 613.657 313.482 614.216 313.597C614.784 313.712 615.363 313.769 615.953 313.769C617.18 313.769 618.165 313.528 618.908 313.045C619.652 312.554 620.024 311.837 620.024 310.894C620.024 310.212 619.779 309.633 619.288 309.158C618.797 308.683 617.885 308.249 616.551 307.858L614.711 307.318C613.277 306.896 612.227 306.348 611.56 305.673C610.893 304.999 610.559 304.144 610.559 303.109C610.559 302.404 610.697 301.775 610.973 301.223C611.249 300.663 611.637 300.184 612.135 299.785C612.641 299.387 613.239 299.084 613.929 298.877C614.619 298.662 615.378 298.555 616.206 298.555C617.203 298.555 618.126 298.701 618.977 298.992C619.828 299.283 620.541 299.667 621.116 300.142L620.173 301.476C619.821 301.185 619.418 300.939 618.966 300.74C618.521 300.533 618.046 300.376 617.54 300.268C617.034 300.161 616.52 300.107 615.999 300.107C615.255 300.107 614.596 300.219 614.021 300.441C613.454 300.663 613.009 300.989 612.687 301.418C612.365 301.848 612.204 302.377 612.204 303.005C612.204 303.442 612.304 303.83 612.503 304.167C612.71 304.497 613.063 304.799 613.561 305.075C614.059 305.344 614.753 305.608 615.642 305.869L617.62 306.455C619.008 306.862 620.032 307.406 620.691 308.088C621.35 308.763 621.68 309.649 621.68 310.745C621.68 311.657 621.458 312.458 621.013 313.148C620.576 313.838 619.928 314.379 619.069 314.77C618.211 315.153 617.164 315.345 615.93 315.345ZM634.988 315.345C633.324 315.345 631.872 314.996 630.63 314.298C629.395 313.601 628.437 312.619 627.755 311.354C627.072 310.089 626.731 308.617 626.731 306.938C626.731 305.719 626.934 304.604 627.341 303.592C627.747 302.572 628.318 301.687 629.054 300.935C629.798 300.176 630.672 299.59 631.676 299.176C632.688 298.762 633.796 298.555 635 298.555C636.142 298.555 637.154 298.701 638.036 298.992C638.917 299.276 639.672 299.678 640.301 300.199L639.335 301.625C638.791 301.15 638.166 300.797 637.461 300.567C636.755 300.337 635.981 300.222 635.138 300.222C634.141 300.222 633.236 300.38 632.424 300.694C631.619 301.008 630.925 301.457 630.342 302.039C629.767 302.614 629.322 303.316 629.008 304.144C628.701 304.964 628.548 305.892 628.548 306.927C628.548 308.353 628.824 309.568 629.376 310.572C629.928 311.569 630.706 312.332 631.711 312.861C632.723 313.39 633.911 313.654 635.276 313.654C636.15 313.654 636.978 313.528 637.76 313.275C638.549 313.014 639.281 312.589 639.956 311.998L640.784 313.493C639.987 314.122 639.105 314.59 638.139 314.896C637.181 315.195 636.13 315.345 634.988 315.345ZM574.25 339.641C573.552 339.641 572.927 339.488 572.375 339.181C571.831 338.867 571.402 338.445 571.087 337.916C570.781 337.38 570.627 336.77 570.627 336.088C570.627 335.406 570.781 334.796 571.087 334.259C571.402 333.723 571.831 333.301 572.375 332.994C572.927 332.688 573.552 332.534 574.25 332.534C574.948 332.534 575.569 332.688 576.113 332.994C576.665 333.301 577.094 333.723 577.401 334.259C577.715 334.796 577.872 335.406 577.872 336.088C577.872 336.77 577.715 337.38 577.401 337.916C577.094 338.445 576.665 338.867 576.113 339.181C575.569 339.488 574.948 339.641 574.25 339.641ZM593.731 344V327.9H595.318L604.437 340.814V327.9H606.162V344H604.575L595.456 330.947V344H593.731ZM611.277 344L617.683 327.9H619.385L626.032 344H624.065L622.34 339.779H614.831L613.186 344H611.277ZM615.371 338.204H621.777L618.488 330.223L615.371 338.204ZM631.157 344V327.9H632.744L641.864 340.814V327.9H643.589V344H642.002L632.882 330.947V344H631.157ZM657.961 344.345C656.772 344.345 655.665 344.134 654.637 343.712C653.618 343.283 652.728 342.689 651.969 341.93C651.218 341.171 650.628 340.282 650.198 339.262C649.777 338.242 649.566 337.138 649.566 335.95C649.566 334.754 649.777 333.646 650.198 332.626C650.628 331.607 651.218 330.717 651.969 329.958C652.728 329.199 653.618 328.609 654.637 328.187C655.665 327.766 656.772 327.555 657.961 327.555C659.141 327.555 660.242 327.77 661.261 328.199C662.281 328.628 663.17 329.226 663.929 329.993C664.688 330.76 665.279 331.653 665.7 332.672C666.13 333.684 666.344 334.777 666.344 335.95C666.344 337.138 666.13 338.242 665.7 339.262C665.279 340.282 664.688 341.171 663.929 341.93C663.17 342.689 662.281 343.283 661.261 343.712C660.242 344.134 659.141 344.345 657.961 344.345ZM657.961 342.677C658.873 342.677 659.728 342.52 660.525 342.206C661.323 341.884 662.02 341.428 662.618 340.837C663.216 340.239 663.684 339.53 664.021 338.71C664.359 337.882 664.527 336.962 664.527 335.95C664.527 334.601 664.232 333.424 663.642 332.419C663.059 331.407 662.269 330.622 661.273 330.062C660.284 329.502 659.18 329.222 657.961 329.222C657.048 329.222 656.194 329.383 655.396 329.705C654.599 330.02 653.901 330.472 653.303 331.062C652.705 331.653 652.234 332.362 651.889 333.19C651.551 334.01 651.383 334.93 651.383 335.95C651.383 337.299 651.678 338.48 652.268 339.492C652.859 340.496 653.648 341.278 654.637 341.838C655.634 342.398 656.742 342.677 657.961 342.677Z" fill="white"/>
<path d="M894 29V477" stroke="#FFFDFD" stroke-opacity="0.33"/>
<g clip-path="url(#clip1_388_270)">
<path d="M1192.84 246.699V245.853L1194.67 244.167C1195.25 243.631 1195.72 243.165 1196.09 242.769C1196.45 242.369 1196.72 242.005 1196.89 241.677C1197.06 241.345 1197.15 241.011 1197.15 240.675C1197.15 240.187 1196.98 239.803 1196.64 239.523C1196.3 239.243 1195.84 239.103 1195.24 239.103C1194.87 239.103 1194.52 239.165 1194.17 239.289C1193.83 239.413 1193.54 239.593 1193.31 239.829L1192.88 239.001C1193.21 238.713 1193.59 238.495 1194.01 238.347C1194.44 238.195 1194.89 238.119 1195.37 238.119C1195.94 238.119 1196.43 238.221 1196.86 238.425C1197.29 238.625 1197.62 238.911 1197.86 239.283C1198.1 239.651 1198.22 240.085 1198.22 240.585C1198.22 240.933 1198.15 241.283 1198.01 241.635C1197.87 241.987 1197.62 242.383 1197.26 242.823C1196.9 243.259 1196.4 243.783 1195.74 244.395L1194.3 245.721H1198.43V246.699H1192.84ZM1203.21 246.879C1202.69 246.879 1202.21 246.765 1201.79 246.537C1201.37 246.309 1201.01 245.993 1200.71 245.589C1200.42 245.185 1200.2 244.719 1200.04 244.191C1199.88 243.663 1199.81 243.099 1199.81 242.499C1199.81 241.895 1199.88 241.329 1200.04 240.801C1200.2 240.273 1200.42 239.809 1200.71 239.409C1201.01 239.005 1201.37 238.689 1201.79 238.461C1202.21 238.233 1202.69 238.119 1203.21 238.119C1203.74 238.119 1204.21 238.233 1204.63 238.461C1205.05 238.689 1205.41 239.005 1205.7 239.409C1206 239.809 1206.23 240.273 1206.38 240.801C1206.54 241.329 1206.62 241.895 1206.62 242.499C1206.62 243.099 1206.54 243.663 1206.38 244.191C1206.23 244.719 1206 245.185 1205.7 245.589C1205.41 245.993 1205.05 246.309 1204.63 246.537C1204.21 246.765 1203.74 246.879 1203.21 246.879ZM1203.21 245.859C1203.55 245.859 1203.86 245.783 1204.14 245.631C1204.42 245.475 1204.66 245.251 1204.86 244.959C1205.06 244.667 1205.22 244.315 1205.33 243.903C1205.44 243.487 1205.49 243.019 1205.49 242.499C1205.49 241.807 1205.4 241.209 1205.21 240.705C1205.01 240.201 1204.75 239.813 1204.4 239.541C1204.06 239.269 1203.67 239.133 1203.21 239.133C1202.87 239.133 1202.56 239.211 1202.28 239.367C1202 239.523 1201.76 239.747 1201.56 240.039C1201.36 240.331 1201.2 240.685 1201.1 241.101C1200.99 241.513 1200.93 241.979 1200.93 242.499C1200.93 243.191 1201.03 243.789 1201.22 244.293C1201.41 244.797 1201.67 245.185 1202.01 245.457C1202.36 245.725 1202.76 245.859 1203.21 245.859Z" fill="#D7DAF9"/>
<path d="M1236.97 247.301L1202.5 222.26L1168.03 247.301L1181.2 287.819H1223.8L1236.97 247.301Z" stroke="#D7DAF9" stroke-linejoin="round"/>
<path d="M1196.55 211.66V209.884H1192.31V209.014L1195.43 203.26H1196.61L1193.51 208.924H1196.55V206.986H1197.55V208.924H1198.9V209.884H1197.55V211.66H1196.55ZM1203.36 211.84C1202.83 211.84 1202.35 211.726 1201.93 211.498C1201.51 211.27 1201.15 210.954 1200.85 210.55C1200.56 210.146 1200.34 209.68 1200.18 209.152C1200.03 208.624 1199.95 208.06 1199.95 207.46C1199.95 206.856 1200.03 206.29 1200.18 205.762C1200.34 205.234 1200.56 204.77 1200.85 204.37C1201.15 203.966 1201.51 203.65 1201.93 203.422C1202.35 203.194 1202.83 203.08 1203.36 203.08C1203.88 203.08 1204.35 203.194 1204.77 203.422C1205.19 203.65 1205.55 203.966 1205.85 204.37C1206.14 204.77 1206.37 205.234 1206.52 205.762C1206.68 206.29 1206.76 206.856 1206.76 207.46C1206.76 208.06 1206.68 208.624 1206.52 209.152C1206.37 209.68 1206.14 210.146 1205.85 210.55C1205.55 210.954 1205.19 211.27 1204.77 211.498C1204.35 211.726 1203.88 211.84 1203.36 211.84ZM1203.36 210.82C1203.7 210.82 1204 210.744 1204.28 210.592C1204.56 210.436 1204.8 210.212 1205 209.92C1205.2 209.628 1205.36 209.276 1205.47 208.864C1205.58 208.448 1205.64 207.98 1205.64 207.46C1205.64 206.768 1205.54 206.17 1205.35 205.666C1205.16 205.162 1204.89 204.774 1204.54 204.502C1204.2 204.23 1203.81 204.094 1203.36 204.094C1203.02 204.094 1202.71 204.172 1202.43 204.328C1202.15 204.484 1201.9 204.708 1201.7 205C1201.5 205.292 1201.35 205.646 1201.24 206.062C1201.13 206.474 1201.08 206.94 1201.08 207.46C1201.08 208.152 1201.17 208.75 1201.36 209.254C1201.55 209.758 1201.82 210.146 1202.16 210.418C1202.5 210.686 1202.9 210.82 1203.36 210.82Z" fill="#D7DAF9"/>
<path d="M1271.43 236.102L1202.5 186.02L1133.57 236.102L1159.9 317.138H1245.1L1271.43 236.102Z" stroke="#D7DAF9" stroke-linejoin="round"/>
<path d="M1196.04 175.55C1195.42 175.55 1194.86 175.416 1194.38 175.148C1193.89 174.876 1193.51 174.484 1193.24 173.972C1192.96 173.456 1192.82 172.832 1192.82 172.1C1192.82 171.392 1192.95 170.74 1193.21 170.144C1193.47 169.544 1193.84 169.012 1194.31 168.548C1194.78 168.084 1195.34 167.704 1195.97 167.408C1196.6 167.108 1197.29 166.902 1198.04 166.79L1198.43 167.678C1197.79 167.742 1197.21 167.878 1196.71 168.086C1196.22 168.294 1195.79 168.554 1195.43 168.866C1195.08 169.178 1194.8 169.524 1194.58 169.904C1194.37 170.28 1194.21 170.672 1194.12 171.08C1194.35 170.744 1194.66 170.478 1195.03 170.282C1195.41 170.082 1195.82 169.982 1196.27 169.982C1196.81 169.982 1197.29 170.096 1197.73 170.324C1198.16 170.552 1198.51 170.868 1198.76 171.272C1199.01 171.676 1199.14 172.142 1199.14 172.67C1199.14 173.074 1199.06 173.452 1198.91 173.804C1198.76 174.152 1198.54 174.456 1198.27 174.716C1197.99 174.976 1197.66 175.18 1197.28 175.328C1196.91 175.476 1196.49 175.55 1196.04 175.55ZM1196.04 174.56C1196.42 174.56 1196.76 174.484 1197.06 174.332C1197.36 174.176 1197.6 173.962 1197.77 173.69C1197.94 173.418 1198.03 173.106 1198.03 172.754C1198.03 172.41 1197.94 172.102 1197.76 171.83C1197.59 171.558 1197.35 171.342 1197.05 171.182C1196.75 171.022 1196.41 170.942 1196.04 170.942C1195.66 170.942 1195.33 171.022 1195.03 171.182C1194.73 171.342 1194.49 171.558 1194.32 171.83C1194.14 172.102 1194.05 172.41 1194.05 172.754C1194.05 173.106 1194.14 173.418 1194.31 173.69C1194.48 173.962 1194.71 174.176 1195.01 174.332C1195.31 174.484 1195.65 174.56 1196.04 174.56ZM1203.81 175.55C1203.28 175.55 1202.81 175.436 1202.38 175.208C1201.96 174.98 1201.61 174.664 1201.31 174.26C1201.02 173.856 1200.79 173.39 1200.64 172.862C1200.48 172.334 1200.4 171.77 1200.4 171.17C1200.4 170.566 1200.48 170 1200.64 169.472C1200.79 168.944 1201.02 168.48 1201.31 168.08C1201.61 167.676 1201.96 167.36 1202.38 167.132C1202.81 166.904 1203.28 166.79 1203.81 166.79C1204.34 166.79 1204.81 166.904 1205.23 167.132C1205.65 167.36 1206.01 167.676 1206.3 168.08C1206.6 168.48 1206.82 168.944 1206.98 169.472C1207.14 170 1207.21 170.566 1207.21 171.17C1207.21 171.77 1207.14 172.334 1206.98 172.862C1206.82 173.39 1206.6 173.856 1206.3 174.26C1206.01 174.664 1205.65 174.98 1205.23 175.208C1204.81 175.436 1204.34 175.55 1203.81 175.55ZM1203.81 174.53C1204.15 174.53 1204.46 174.454 1204.74 174.302C1205.02 174.146 1205.26 173.922 1205.46 173.63C1205.66 173.338 1205.82 172.986 1205.92 172.574C1206.04 172.158 1206.09 171.69 1206.09 171.17C1206.09 170.478 1206 169.88 1205.8 169.376C1205.61 168.872 1205.34 168.484 1205 168.212C1204.66 167.94 1204.26 167.804 1203.81 167.804C1203.47 167.804 1203.16 167.882 1202.88 168.038C1202.6 168.194 1202.36 168.418 1202.16 168.71C1201.96 169.002 1201.8 169.356 1201.69 169.772C1201.59 170.184 1201.53 170.65 1201.53 171.17C1201.53 171.862 1201.63 172.46 1201.81 172.964C1202.01 173.468 1202.27 173.856 1202.61 174.128C1202.96 174.396 1203.36 174.53 1203.81 174.53Z" fill="#D7DAF9"/>
<path d="M1305.9 224.904L1202.5 149.78L1099.1 224.904L1138.6 346.456H1266.4L1305.9 224.904Z" stroke="#D7DAF9" stroke-linejoin="round"/>
<path d="M1195.74 139.26C1195.13 139.26 1194.6 139.148 1194.16 138.924C1193.71 138.7 1193.37 138.398 1193.12 138.018C1192.88 137.638 1192.76 137.212 1192.76 136.74C1192.76 136.4 1192.82 136.098 1192.94 135.834C1193.07 135.57 1193.25 135.34 1193.48 135.144C1193.71 134.948 1194 134.786 1194.32 134.658C1193.99 134.526 1193.69 134.302 1193.44 133.986C1193.18 133.67 1193.05 133.272 1193.05 132.792C1193.05 132.352 1193.17 131.96 1193.4 131.616C1193.63 131.268 1193.95 130.996 1194.36 130.8C1194.77 130.6 1195.23 130.5 1195.76 130.5C1196.29 130.5 1196.76 130.6 1197.17 130.8C1197.59 131 1197.91 131.274 1198.14 131.622C1198.37 131.966 1198.49 132.356 1198.49 132.792C1198.49 133.112 1198.43 133.396 1198.31 133.644C1198.19 133.892 1198.04 134.102 1197.84 134.274C1197.65 134.442 1197.44 134.57 1197.21 134.658C1197.67 134.846 1198.05 135.114 1198.33 135.462C1198.61 135.806 1198.75 136.232 1198.75 136.74C1198.75 137.212 1198.62 137.638 1198.37 138.018C1198.13 138.398 1197.78 138.7 1197.32 138.924C1196.88 139.148 1196.35 139.26 1195.74 139.26ZM1195.76 138.294C1196.09 138.294 1196.4 138.236 1196.68 138.12C1196.97 138 1197.2 137.822 1197.37 137.586C1197.55 137.35 1197.64 137.058 1197.64 136.71C1197.64 136.366 1197.55 136.076 1197.38 135.84C1197.22 135.604 1197 135.426 1196.71 135.306C1196.43 135.182 1196.11 135.12 1195.76 135.12C1195.22 135.12 1194.77 135.258 1194.41 135.534C1194.05 135.806 1193.87 136.198 1193.87 136.71C1193.87 137.058 1193.96 137.35 1194.13 137.586C1194.3 137.822 1194.53 138 1194.82 138.12C1195.1 138.236 1195.42 138.294 1195.76 138.294ZM1195.77 134.178C1196.09 134.178 1196.38 134.124 1196.63 134.016C1196.89 133.904 1197.08 133.748 1197.22 133.548C1197.36 133.348 1197.43 133.11 1197.43 132.834C1197.43 132.426 1197.28 132.084 1196.97 131.808C1196.67 131.532 1196.27 131.394 1195.77 131.394C1195.44 131.394 1195.15 131.458 1194.89 131.586C1194.65 131.71 1194.45 131.882 1194.31 132.102C1194.17 132.318 1194.1 132.562 1194.1 132.834C1194.1 133.246 1194.26 133.574 1194.57 133.818C1194.89 134.058 1195.29 134.178 1195.77 134.178ZM1203.51 139.26C1202.98 139.26 1202.5 139.146 1202.08 138.918C1201.66 138.69 1201.3 138.374 1201.01 137.97C1200.71 137.566 1200.49 137.1 1200.33 136.572C1200.18 136.044 1200.1 135.48 1200.1 134.88C1200.1 134.276 1200.18 133.71 1200.33 133.182C1200.49 132.654 1200.71 132.19 1201.01 131.79C1201.3 131.386 1201.66 131.07 1202.08 130.842C1202.5 130.614 1202.98 130.5 1203.51 130.5C1204.03 130.5 1204.5 130.614 1204.92 130.842C1205.34 131.07 1205.7 131.386 1206 131.79C1206.29 132.19 1206.52 132.654 1206.68 133.182C1206.83 133.71 1206.91 134.276 1206.91 134.88C1206.91 135.48 1206.83 136.044 1206.68 136.572C1206.52 137.1 1206.29 137.566 1206 137.97C1205.7 138.374 1205.34 138.69 1204.92 138.918C1204.5 139.146 1204.03 139.26 1203.51 139.26ZM1203.51 138.24C1203.85 138.24 1204.16 138.164 1204.43 138.012C1204.71 137.856 1204.95 137.632 1205.15 137.34C1205.36 137.048 1205.51 136.696 1205.62 136.284C1205.73 135.868 1205.79 135.4 1205.79 134.88C1205.79 134.188 1205.69 133.59 1205.5 133.086C1205.31 132.582 1205.04 132.194 1204.7 131.922C1204.36 131.65 1203.96 131.514 1203.51 131.514C1203.17 131.514 1202.86 131.592 1202.58 131.748C1202.3 131.904 1202.06 132.128 1201.85 132.42C1201.65 132.712 1201.5 133.066 1201.39 133.482C1201.28 133.894 1201.23 134.36 1201.23 134.88C1201.23 135.572 1201.32 136.17 1201.51 136.674C1201.7 137.178 1201.97 137.566 1202.31 137.838C1202.65 138.106 1203.05 138.24 1203.51 138.24Z" fill="#D7DAF9"/>
<path d="M1340.37 213.705L1202.5 113.54L1064.63 213.705L1117.29 375.775H1287.71L1340.37 213.705Z" stroke="#D7DAF9" stroke-linejoin="round"/>
<path d="M1191 102.79V95.5538L1188.73 96.3938L1188.44 95.5238L1191.97 94.2098H1192.05V102.79H1191ZM1197.49 102.97C1196.96 102.97 1196.49 102.856 1196.06 102.628C1195.64 102.4 1195.29 102.084 1194.99 101.68C1194.7 101.276 1194.47 100.81 1194.32 100.282C1194.16 99.7538 1194.08 99.1898 1194.08 98.5898C1194.08 97.9858 1194.16 97.4198 1194.32 96.8918C1194.47 96.3638 1194.7 95.8998 1194.99 95.4998C1195.29 95.0958 1195.64 94.7798 1196.06 94.5518C1196.49 94.3238 1196.96 94.2098 1197.49 94.2098C1198.02 94.2098 1198.49 94.3238 1198.91 94.5518C1199.33 94.7798 1199.69 95.0958 1199.98 95.4998C1200.28 95.8998 1200.5 96.3638 1200.66 96.8918C1200.82 97.4198 1200.89 97.9858 1200.89 98.5898C1200.89 99.1898 1200.82 99.7538 1200.66 100.282C1200.5 100.81 1200.28 101.276 1199.98 101.68C1199.69 102.084 1199.33 102.4 1198.91 102.628C1198.49 102.856 1198.02 102.97 1197.49 102.97ZM1197.49 101.95C1197.83 101.95 1198.14 101.874 1198.42 101.722C1198.7 101.566 1198.94 101.342 1199.14 101.05C1199.34 100.758 1199.5 100.406 1199.6 99.9938C1199.72 99.5778 1199.77 99.1098 1199.77 98.5898C1199.77 97.8978 1199.68 97.2998 1199.48 96.7958C1199.29 96.2918 1199.02 95.9038 1198.68 95.6318C1198.34 95.3598 1197.94 95.2238 1197.49 95.2238C1197.15 95.2238 1196.84 95.3018 1196.56 95.4578C1196.28 95.6138 1196.04 95.8378 1195.84 96.1298C1195.64 96.4218 1195.48 96.7758 1195.37 97.1918C1195.27 97.6038 1195.21 98.0698 1195.21 98.5898C1195.21 99.2818 1195.31 99.8798 1195.49 100.384C1195.69 100.888 1195.95 101.276 1196.29 101.548C1196.64 101.816 1197.04 101.95 1197.49 101.95ZM1205.62 102.97C1205.1 102.97 1204.62 102.856 1204.2 102.628C1203.78 102.4 1203.42 102.084 1203.12 101.68C1202.83 101.276 1202.61 100.81 1202.45 100.282C1202.29 99.7538 1202.22 99.1898 1202.22 98.5898C1202.22 97.9858 1202.29 97.4198 1202.45 96.8918C1202.61 96.3638 1202.83 95.8998 1203.12 95.4998C1203.42 95.0958 1203.78 94.7798 1204.2 94.5518C1204.62 94.3238 1205.1 94.2098 1205.62 94.2098C1206.15 94.2098 1206.62 94.3238 1207.04 94.5518C1207.46 94.7798 1207.82 95.0958 1208.11 95.4998C1208.41 95.8998 1208.64 96.3638 1208.79 96.8918C1208.95 97.4198 1209.03 97.9858 1209.03 98.5898C1209.03 99.1898 1208.95 99.7538 1208.79 100.282C1208.64 100.81 1208.41 101.276 1208.11 101.68C1207.82 102.084 1207.46 102.4 1207.04 102.628C1206.62 102.856 1206.15 102.97 1205.62 102.97ZM1205.62 101.95C1205.96 101.95 1206.27 101.874 1206.55 101.722C1206.83 101.566 1207.07 101.342 1207.27 101.05C1207.47 100.758 1207.63 100.406 1207.74 99.9938C1207.85 99.5778 1207.9 99.1098 1207.9 98.5898C1207.9 97.8978 1207.81 97.2998 1207.62 96.7958C1207.42 96.2918 1207.16 95.9038 1206.81 95.6318C1206.47 95.3598 1206.08 95.2238 1205.62 95.2238C1205.28 95.2238 1204.97 95.3018 1204.69 95.4578C1204.41 95.6138 1204.17 95.8378 1203.97 96.1298C1203.77 96.4218 1203.61 96.7758 1203.51 97.1918C1203.4 97.6038 1203.34 98.0698 1203.34 98.5898C1203.34 99.2818 1203.44 99.8798 1203.63 100.384C1203.82 100.888 1204.08 101.276 1204.42 101.548C1204.77 101.816 1205.17 101.95 1205.62 101.95Z" fill="#D7DAF9"/>
<path d="M1154.16 63V54.6H1156.98C1157.56 54.6 1158.07 54.698 1158.51 54.894C1158.95 55.09 1159.29 55.372 1159.54 55.74C1159.79 56.108 1159.91 56.548 1159.91 57.06C1159.91 57.592 1159.8 58.04 1159.57 58.404C1159.34 58.764 1159.01 59.038 1158.57 59.226C1158.13 59.41 1157.6 59.502 1156.97 59.502H1155.08V63H1154.16ZM1155.08 58.686H1157.03C1157.66 58.686 1158.14 58.552 1158.48 58.284C1158.83 58.012 1159 57.614 1159 57.09C1159 56.574 1158.82 56.168 1158.47 55.872C1158.12 55.572 1157.65 55.422 1157.04 55.422H1155.08V58.686ZM1162.3 63V54.6H1165.32C1165.87 54.6 1166.35 54.7 1166.75 54.9C1167.15 55.1 1167.46 55.384 1167.68 55.752C1167.9 56.116 1168.01 56.544 1168.01 57.036C1168.01 57.46 1167.91 57.834 1167.72 58.158C1167.53 58.482 1167.26 58.746 1166.9 58.95C1166.56 59.15 1166.14 59.278 1165.67 59.334L1168.39 63H1167.25L1164.63 59.412H1163.21V63H1162.3ZM1163.21 58.608H1165.11C1165.74 58.608 1166.22 58.47 1166.57 58.194C1166.92 57.918 1167.09 57.54 1167.09 57.06C1167.09 56.56 1166.94 56.16 1166.63 55.86C1166.33 55.56 1165.87 55.41 1165.24 55.41H1163.21V58.608ZM1174.55 63.18C1173.93 63.18 1173.35 63.07 1172.82 62.85C1172.28 62.626 1171.82 62.316 1171.42 61.92C1171.03 61.524 1170.72 61.06 1170.5 60.528C1170.28 59.996 1170.17 59.42 1170.17 58.8C1170.17 58.176 1170.28 57.598 1170.5 57.066C1170.72 56.534 1171.03 56.07 1171.42 55.674C1171.82 55.278 1172.28 54.97 1172.82 54.75C1173.35 54.53 1173.93 54.42 1174.55 54.42C1175.17 54.42 1175.74 54.532 1176.27 54.756C1176.8 54.98 1177.27 55.292 1177.66 55.692C1178.06 56.092 1178.37 56.558 1178.59 57.09C1178.81 57.618 1178.92 58.188 1178.92 58.8C1178.92 59.42 1178.81 59.996 1178.59 60.528C1178.37 61.06 1178.06 61.524 1177.66 61.92C1177.27 62.316 1176.8 62.626 1176.27 62.85C1175.74 63.07 1175.17 63.18 1174.55 63.18ZM1174.55 62.31C1175.03 62.31 1175.47 62.228 1175.89 62.064C1176.3 61.896 1176.67 61.658 1176.98 61.35C1177.29 61.038 1177.54 60.668 1177.71 60.24C1177.89 59.808 1177.98 59.328 1177.98 58.8C1177.98 58.096 1177.82 57.482 1177.51 56.958C1177.21 56.43 1176.8 56.02 1176.28 55.728C1175.76 55.436 1175.19 55.29 1174.55 55.29C1174.07 55.29 1173.63 55.374 1173.21 55.542C1172.8 55.706 1172.43 55.942 1172.12 56.25C1171.81 56.558 1171.56 56.928 1171.38 57.36C1171.21 57.788 1171.12 58.268 1171.12 58.8C1171.12 59.504 1171.27 60.12 1171.58 60.648C1171.89 61.172 1172.3 61.58 1172.82 61.872C1173.34 62.164 1173.91 62.31 1174.55 62.31ZM1185.7 63.18C1185.02 63.18 1184.4 63.078 1183.83 62.874C1183.27 62.666 1182.77 62.37 1182.35 61.986C1181.94 61.602 1181.61 61.144 1181.38 60.612C1181.15 60.076 1181.04 59.478 1181.04 58.818C1181.04 58.162 1181.15 57.566 1181.37 57.03C1181.59 56.49 1181.9 56.026 1182.3 55.638C1182.71 55.246 1183.18 54.946 1183.73 54.738C1184.28 54.526 1184.89 54.42 1185.55 54.42C1185.86 54.42 1186.16 54.446 1186.47 54.498C1186.77 54.546 1187.06 54.624 1187.34 54.732C1187.62 54.836 1187.88 54.974 1188.12 55.146L1187.7 55.878C1187.38 55.678 1187.04 55.528 1186.66 55.428C1186.28 55.328 1185.91 55.278 1185.53 55.278C1184.99 55.278 1184.5 55.36 1184.07 55.524C1183.63 55.688 1183.26 55.924 1182.95 56.232C1182.64 56.54 1182.4 56.91 1182.23 57.342C1182.06 57.774 1181.98 58.26 1181.98 58.8C1181.98 59.548 1182.14 60.188 1182.45 60.72C1182.76 61.248 1183.2 61.652 1183.76 61.932C1184.33 62.212 1184.98 62.352 1185.73 62.352C1186.13 62.352 1186.49 62.312 1186.8 62.232C1187.11 62.152 1187.34 62.062 1187.51 61.962V59.574H1185.48V58.77H1188.36V62.454C1188.16 62.606 1187.9 62.736 1187.58 62.844C1187.26 62.952 1186.93 63.034 1186.59 63.09C1186.25 63.15 1185.96 63.18 1185.7 63.18ZM1191.3 63V54.6H1194.32C1194.87 54.6 1195.34 54.7 1195.74 54.9C1196.15 55.1 1196.46 55.384 1196.67 55.752C1196.89 56.116 1197 56.544 1197 57.036C1197 57.46 1196.91 57.834 1196.72 58.158C1196.52 58.482 1196.25 58.746 1195.9 58.95C1195.55 59.15 1195.14 59.278 1194.66 59.334L1197.38 63H1196.25L1193.63 59.412H1192.21V63H1191.3ZM1192.21 58.608H1194.11C1194.73 58.608 1195.22 58.47 1195.56 58.194C1195.91 57.918 1196.09 57.54 1196.09 57.06C1196.09 56.56 1195.93 56.16 1195.63 55.86C1195.33 55.56 1194.86 55.41 1194.23 55.41H1192.21V58.608ZM1198.83 63L1202.17 54.6H1203.06L1206.53 63H1205.5L1204.6 60.798H1200.69L1199.83 63H1198.83ZM1200.97 59.976H1204.31L1202.59 55.812L1200.97 59.976ZM1208.61 63V54.6H1209.49L1213.08 60.36L1212.73 60.366L1216.21 54.6H1217.07V63H1216.17L1216.17 55.884L1216.36 55.944L1213.22 61.038H1212.47L1209.3 55.944L1209.43 55.884L1209.44 63H1208.61ZM1220.12 63V54.6H1221.01L1224.59 60.36L1224.25 60.366L1227.73 54.6H1228.58V63H1227.68L1227.68 55.884L1227.88 55.944L1224.73 61.038H1223.98L1220.81 55.944L1220.95 55.884L1220.95 63H1220.12ZM1231.63 63V54.6H1232.54V63H1231.63ZM1235.59 63V54.6H1236.41L1241.17 61.338V54.6H1242.07V63H1241.24L1236.49 56.19V63H1235.59ZM1249.25 63.18C1248.58 63.18 1247.95 63.078 1247.39 62.874C1246.82 62.666 1246.32 62.37 1245.9 61.986C1245.49 61.602 1245.16 61.144 1244.93 60.612C1244.7 60.076 1244.59 59.478 1244.59 58.818C1244.59 58.162 1244.7 57.566 1244.92 57.03C1245.14 56.49 1245.46 56.026 1245.86 55.638C1246.26 55.246 1246.74 54.946 1247.28 54.738C1247.84 54.526 1248.44 54.42 1249.1 54.42C1249.41 54.42 1249.72 54.446 1250.02 54.498C1250.32 54.546 1250.62 54.624 1250.9 54.732C1251.18 54.836 1251.43 54.974 1251.67 55.146L1251.25 55.878C1250.93 55.678 1250.59 55.528 1250.21 55.428C1249.84 55.328 1249.46 55.278 1249.08 55.278C1248.54 55.278 1248.06 55.36 1247.62 55.524C1247.18 55.688 1246.81 55.924 1246.5 56.232C1246.19 56.54 1245.95 56.91 1245.78 57.342C1245.62 57.774 1245.53 58.26 1245.53 58.8C1245.53 59.548 1245.69 60.188 1246 60.72C1246.32 61.248 1246.75 61.652 1247.31 61.932C1247.88 62.212 1248.53 62.352 1249.28 62.352C1249.69 62.352 1250.04 62.312 1250.35 62.232C1250.66 62.152 1250.9 62.062 1251.06 61.962V59.574H1249.04V58.77H1251.92V62.454C1251.72 62.606 1251.46 62.736 1251.14 62.844C1250.82 62.952 1250.49 63.034 1250.15 63.09C1249.81 63.15 1249.51 63.18 1249.25 63.18Z" fill="#D5FFF3"/>
<path d="M1364.76 185.18C1364.22 185.18 1363.69 185.106 1363.17 184.958C1362.65 184.806 1362.21 184.588 1361.85 184.304L1362.33 183.578C1362.54 183.746 1362.77 183.888 1363.03 184.004C1363.3 184.12 1363.58 184.208 1363.87 184.268C1364.16 184.328 1364.47 184.358 1364.77 184.358C1365.41 184.358 1365.93 184.232 1366.32 183.98C1366.7 183.724 1366.9 183.35 1366.9 182.858C1366.9 182.502 1366.77 182.2 1366.51 181.952C1366.26 181.704 1365.78 181.478 1365.09 181.274L1364.13 180.992C1363.38 180.772 1362.83 180.486 1362.48 180.134C1362.13 179.782 1361.96 179.336 1361.96 178.796C1361.96 178.428 1362.03 178.1 1362.18 177.812C1362.32 177.52 1362.52 177.27 1362.78 177.062C1363.05 176.854 1363.36 176.696 1363.72 176.588C1364.08 176.476 1364.47 176.42 1364.91 176.42C1365.43 176.42 1365.91 176.496 1366.35 176.648C1366.8 176.8 1367.17 177 1367.47 177.248L1366.98 177.944C1366.79 177.792 1366.58 177.664 1366.35 177.56C1366.11 177.452 1365.87 177.37 1365.6 177.314C1365.34 177.258 1365.07 177.23 1364.8 177.23C1364.41 177.23 1364.07 177.288 1363.77 177.404C1363.47 177.52 1363.24 177.69 1363.07 177.914C1362.9 178.138 1362.82 178.414 1362.82 178.742C1362.82 178.97 1362.87 179.172 1362.97 179.348C1363.08 179.52 1363.27 179.678 1363.53 179.822C1363.79 179.962 1364.15 180.1 1364.61 180.236L1365.64 180.542C1366.37 180.754 1366.9 181.038 1367.25 181.394C1367.59 181.746 1367.76 182.208 1367.76 182.78C1367.76 183.256 1367.65 183.674 1367.41 184.034C1367.19 184.394 1366.85 184.676 1366.4 184.88C1365.95 185.08 1365.41 185.18 1364.76 185.18ZM1374.11 185.18C1373.24 185.18 1372.48 184.998 1371.83 184.634C1371.19 184.27 1370.69 183.758 1370.33 183.098C1369.98 182.438 1369.8 181.67 1369.8 180.794C1369.8 180.158 1369.9 179.576 1370.12 179.048C1370.33 178.516 1370.63 178.054 1371.01 177.662C1371.4 177.266 1371.85 176.96 1372.38 176.744C1372.91 176.528 1373.48 176.42 1374.11 176.42C1374.71 176.42 1375.24 176.496 1375.7 176.648C1376.16 176.796 1376.55 177.006 1376.88 177.278L1376.37 178.022C1376.09 177.774 1375.76 177.59 1375.4 177.47C1375.03 177.35 1374.62 177.29 1374.18 177.29C1373.66 177.29 1373.19 177.372 1372.77 177.536C1372.35 177.7 1371.99 177.934 1371.68 178.238C1371.38 178.538 1371.15 178.904 1370.99 179.336C1370.83 179.764 1370.75 180.248 1370.75 180.788C1370.75 181.532 1370.89 182.166 1371.18 182.69C1371.47 183.21 1371.87 183.608 1372.4 183.884C1372.92 184.16 1373.54 184.298 1374.26 184.298C1374.71 184.298 1375.14 184.232 1375.55 184.1C1375.96 183.964 1376.35 183.742 1376.7 183.434L1377.13 184.214C1376.71 184.542 1376.25 184.786 1375.75 184.946C1375.25 185.102 1374.7 185.18 1374.11 185.18ZM1379.4 185V176.6H1382.42C1382.97 176.6 1383.45 176.7 1383.85 176.9C1384.25 177.1 1384.56 177.384 1384.78 177.752C1385 178.116 1385.11 178.544 1385.11 179.036C1385.11 179.46 1385.01 179.834 1384.82 180.158C1384.63 180.482 1384.35 180.746 1384 180.95C1383.65 181.15 1383.24 181.278 1382.77 181.334L1385.48 185H1384.35L1381.73 181.412H1380.31V185H1379.4ZM1380.31 180.608H1382.21C1382.84 180.608 1383.32 180.47 1383.67 180.194C1384.01 179.918 1384.19 179.54 1384.19 179.06C1384.19 178.56 1384.04 178.16 1383.73 177.86C1383.43 177.56 1382.97 177.41 1382.33 177.41H1380.31V180.608ZM1387.91 185V176.6H1388.83V185H1387.91ZM1391.87 185V176.6H1394.69C1395.27 176.6 1395.78 176.698 1396.21 176.894C1396.65 177.09 1397 177.372 1397.24 177.74C1397.49 178.108 1397.62 178.548 1397.62 179.06C1397.62 179.592 1397.5 180.04 1397.27 180.404C1397.05 180.764 1396.71 181.038 1396.27 181.226C1395.84 181.41 1395.3 181.502 1394.67 181.502H1392.78V185H1391.87ZM1392.78 180.686H1394.74C1395.36 180.686 1395.84 180.552 1396.19 180.284C1396.53 180.012 1396.7 179.614 1396.7 179.09C1396.7 178.574 1396.53 178.168 1396.18 177.872C1395.83 177.572 1395.35 177.422 1394.75 177.422H1392.78V180.686ZM1401.67 185V177.44H1399.23V176.6H1405.03V177.44H1402.59V185H1401.67ZM1407.3 185V176.6H1408.21V185H1407.3ZM1411.25 185V176.6H1412.08L1416.84 183.338V176.6H1417.74V185H1416.91L1412.15 178.19V185H1411.25ZM1424.92 185.18C1424.25 185.18 1423.62 185.078 1423.06 184.874C1422.49 184.666 1421.99 184.37 1421.57 183.986C1421.16 183.602 1420.83 183.144 1420.6 182.612C1420.37 182.076 1420.26 181.478 1420.26 180.818C1420.26 180.162 1420.37 179.566 1420.59 179.03C1420.81 178.49 1421.13 178.026 1421.53 177.638C1421.93 177.246 1422.41 176.946 1422.95 176.738C1423.51 176.526 1424.11 176.42 1424.77 176.42C1425.08 176.42 1425.39 176.446 1425.69 176.498C1425.99 176.546 1426.29 176.624 1426.57 176.732C1426.85 176.836 1427.1 176.974 1427.34 177.146L1426.92 177.878C1426.6 177.678 1426.26 177.528 1425.88 177.428C1425.51 177.328 1425.13 177.278 1424.75 177.278C1424.21 177.278 1423.73 177.36 1423.29 177.524C1422.85 177.688 1422.48 177.924 1422.17 178.232C1421.86 178.54 1421.62 178.91 1421.45 179.342C1421.29 179.774 1421.2 180.26 1421.2 180.8C1421.2 181.548 1421.36 182.188 1421.67 182.72C1421.99 183.248 1422.42 183.652 1422.98 183.932C1423.55 184.212 1424.2 184.352 1424.95 184.352C1425.36 184.352 1425.71 184.312 1426.02 184.232C1426.33 184.152 1426.57 184.062 1426.73 183.962V181.574H1424.71V180.77H1427.59V184.454C1427.39 184.606 1427.13 184.736 1426.81 184.844C1426.49 184.952 1426.16 185.034 1425.82 185.09C1425.48 185.15 1425.18 185.18 1424.92 185.18Z" fill="#D5FFF3"/>
<path d="M1297.16 432V423.6H1298.08V431.154H1301.93V432H1297.16ZM1304.27 432V423.6H1309.38V424.428H1305.18V427.17H1308.87V427.974H1305.18V431.166H1309.41V432H1304.27ZM1311.18 432L1314.53 423.6H1315.41L1318.88 432H1317.86L1316.96 429.798H1313.04L1312.18 432H1311.18ZM1313.32 428.976H1316.66L1314.95 424.812L1313.32 428.976ZM1320.96 432V423.6H1323.97C1324.53 423.6 1325 423.7 1325.4 423.9C1325.81 424.1 1326.12 424.384 1326.33 424.752C1326.55 425.116 1326.66 425.544 1326.66 426.036C1326.66 426.46 1326.57 426.834 1326.37 427.158C1326.18 427.482 1325.91 427.746 1325.56 427.95C1325.21 428.15 1324.8 428.278 1324.32 428.334L1327.04 432H1325.91L1323.28 428.412H1321.87V432H1320.96ZM1321.87 427.608H1323.76C1324.39 427.608 1324.88 427.47 1325.22 427.194C1325.57 426.918 1325.74 426.54 1325.74 426.06C1325.74 425.56 1325.59 425.16 1325.29 424.86C1324.99 424.56 1324.52 424.41 1323.89 424.41H1321.87V427.608ZM1329.47 432V423.6H1330.3L1335.06 430.338V423.6H1335.96V432H1335.13L1330.37 425.19V432H1329.47ZM1339 432V423.6H1339.91V432H1339ZM1342.96 432V423.6H1343.78L1348.54 430.338V423.6H1349.44V432H1348.61L1343.86 425.19V432H1342.96ZM1356.62 432.18C1355.95 432.18 1355.33 432.078 1354.76 431.874C1354.19 431.666 1353.7 431.37 1353.28 430.986C1352.86 430.602 1352.54 430.144 1352.3 429.612C1352.08 429.076 1351.96 428.478 1351.96 427.818C1351.96 427.162 1352.07 426.566 1352.29 426.03C1352.52 425.49 1352.83 425.026 1353.23 424.638C1353.63 424.246 1354.11 423.946 1354.66 423.738C1355.21 423.526 1355.81 423.42 1356.47 423.42C1356.78 423.42 1357.09 423.446 1357.39 423.498C1357.7 423.546 1357.99 423.624 1358.27 423.732C1358.55 423.836 1358.81 423.974 1359.04 424.146L1358.62 424.878C1358.31 424.678 1357.96 424.528 1357.58 424.428C1357.21 424.328 1356.83 424.278 1356.45 424.278C1355.91 424.278 1355.43 424.36 1354.99 424.524C1354.56 424.688 1354.18 424.924 1353.87 425.232C1353.56 425.54 1353.32 425.91 1353.16 426.342C1352.99 426.774 1352.9 427.26 1352.9 427.8C1352.9 428.548 1353.06 429.188 1353.37 429.72C1353.69 430.248 1354.13 430.652 1354.69 430.932C1355.25 431.212 1355.91 431.352 1356.65 431.352C1357.06 431.352 1357.41 431.312 1357.72 431.232C1358.03 431.152 1358.27 431.062 1358.44 430.962V428.574H1356.41V427.77H1359.29V431.454C1359.09 431.606 1358.83 431.736 1358.51 431.844C1358.19 431.952 1357.86 432.034 1357.52 432.09C1357.18 432.15 1356.88 432.18 1356.62 432.18Z" fill="#D5FFF3"/>
<path d="M1068.52 432.179V423.779H1071.53C1072.09 423.779 1072.56 423.879 1072.96 424.079C1073.37 424.279 1073.68 424.563 1073.89 424.931C1074.11 425.295 1074.22 425.723 1074.22 426.215C1074.22 426.639 1074.13 427.013 1073.93 427.337C1073.74 427.661 1073.47 427.925 1073.12 428.129C1072.77 428.329 1072.36 428.457 1071.88 428.513L1074.6 432.179H1073.47L1070.84 428.591H1069.43V432.179H1068.52ZM1069.43 427.787H1071.32C1071.95 427.787 1072.44 427.649 1072.78 427.373C1073.13 427.097 1073.3 426.719 1073.3 426.239C1073.3 425.739 1073.15 425.339 1072.85 425.039C1072.55 424.739 1072.08 424.589 1071.45 424.589H1069.43V427.787ZM1077.03 432.179V423.779H1077.94V432.179H1077.03ZM1084.76 432.359C1083.89 432.359 1083.14 432.177 1082.49 431.813C1081.84 431.449 1081.34 430.937 1080.99 430.277C1080.63 429.617 1080.45 428.849 1080.45 427.973C1080.45 427.337 1080.56 426.755 1080.77 426.227C1080.98 425.695 1081.28 425.233 1081.67 424.841C1082.05 424.445 1082.51 424.139 1083.03 423.923C1083.56 423.707 1084.14 423.599 1084.77 423.599C1085.36 423.599 1085.89 423.675 1086.35 423.827C1086.81 423.975 1087.21 424.185 1087.53 424.457L1087.03 425.201C1086.75 424.953 1086.42 424.769 1086.05 424.649C1085.68 424.529 1085.28 424.469 1084.84 424.469C1084.32 424.469 1083.85 424.551 1083.42 424.715C1083 424.879 1082.64 425.113 1082.34 425.417C1082.04 425.717 1081.81 426.083 1081.64 426.515C1081.48 426.943 1081.4 427.427 1081.4 427.967C1081.4 428.711 1081.55 429.345 1081.83 429.869C1082.12 430.389 1082.53 430.787 1083.05 431.063C1083.58 431.339 1084.2 431.477 1084.91 431.477C1085.37 431.477 1085.8 431.411 1086.21 431.279C1086.62 431.143 1087 430.921 1087.35 430.613L1087.79 431.393C1087.37 431.721 1086.91 431.965 1086.41 432.125C1085.91 432.281 1085.36 432.359 1084.76 432.359ZM1090.06 432.179V423.779H1090.97V432.179H1090.06ZM1094.01 432.179V423.779H1094.84L1099.6 430.517V423.779H1100.5V432.179H1099.67L1094.91 425.369V432.179H1094.01ZM1107.68 432.359C1107 432.359 1106.38 432.257 1105.81 432.053C1105.25 431.845 1104.75 431.549 1104.33 431.165C1103.92 430.781 1103.59 430.323 1103.36 429.791C1103.13 429.255 1103.02 428.657 1103.02 427.997C1103.02 427.341 1103.13 426.745 1103.35 426.209C1103.57 425.669 1103.88 425.205 1104.28 424.817C1104.69 424.425 1105.16 424.125 1105.71 423.917C1106.26 423.705 1106.87 423.599 1107.53 423.599C1107.84 423.599 1108.14 423.625 1108.45 423.677C1108.75 423.725 1109.04 423.803 1109.32 423.911C1109.6 424.015 1109.86 424.153 1110.1 424.325L1109.68 425.057C1109.36 424.857 1109.02 424.707 1108.64 424.607C1108.26 424.507 1107.89 424.457 1107.51 424.457C1106.97 424.457 1106.48 424.539 1106.05 424.703C1105.61 424.867 1105.24 425.103 1104.93 425.411C1104.62 425.719 1104.38 426.089 1104.21 426.521C1104.04 426.953 1103.96 427.439 1103.96 427.979C1103.96 428.727 1104.12 429.367 1104.43 429.899C1104.74 430.427 1105.18 430.831 1105.74 431.111C1106.31 431.391 1106.96 431.531 1107.71 431.531C1108.11 431.531 1108.47 431.491 1108.78 431.411C1109.09 431.331 1109.32 431.241 1109.49 431.141V428.753H1107.46V427.949H1110.34V431.633C1110.14 431.785 1109.88 431.915 1109.56 432.023C1109.24 432.131 1108.91 432.213 1108.57 432.269C1108.23 432.329 1107.94 432.359 1107.68 432.359Z" fill="#D5FFF3"/>
<path d="M982.832 189V181.44H980.39V180.6H986.186V181.44H983.744V189H982.832ZM988.458 189V180.6H989.37V184.086H993.942V180.6H994.854V189H993.942V184.932H989.37V189H988.458ZM997.897 189V180.6H1003V181.428H998.809V184.17H1002.5V184.974H998.809V188.166H1003.04V189H997.897ZM1009.64 189.18C1009.02 189.18 1008.44 189.07 1007.91 188.85C1007.37 188.626 1006.91 188.316 1006.51 187.92C1006.12 187.524 1005.81 187.06 1005.59 186.528C1005.37 185.996 1005.26 185.42 1005.26 184.8C1005.26 184.176 1005.37 183.598 1005.59 183.066C1005.81 182.534 1006.12 182.07 1006.51 181.674C1006.91 181.278 1007.37 180.97 1007.91 180.75C1008.44 180.53 1009.02 180.42 1009.64 180.42C1010.26 180.42 1010.83 180.532 1011.36 180.756C1011.89 180.98 1012.36 181.292 1012.75 181.692C1013.15 182.092 1013.46 182.558 1013.68 183.09C1013.9 183.618 1014.01 184.188 1014.01 184.8C1014.01 185.42 1013.9 185.996 1013.68 186.528C1013.46 187.06 1013.15 187.524 1012.75 187.92C1012.36 188.316 1011.89 188.626 1011.36 188.85C1010.83 189.07 1010.26 189.18 1009.64 189.18ZM1009.64 188.31C1010.12 188.31 1010.56 188.228 1010.98 188.064C1011.39 187.896 1011.76 187.658 1012.07 187.35C1012.38 187.038 1012.63 186.668 1012.8 186.24C1012.98 185.808 1013.07 185.328 1013.07 184.8C1013.07 184.096 1012.91 183.482 1012.6 182.958C1012.3 182.43 1011.89 182.02 1011.37 181.728C1010.85 181.436 1010.28 181.29 1009.64 181.29C1009.16 181.29 1008.72 181.374 1008.3 181.542C1007.89 181.706 1007.52 181.942 1007.21 182.25C1006.9 182.558 1006.65 182.928 1006.47 183.36C1006.3 183.788 1006.21 184.268 1006.21 184.8C1006.21 185.504 1006.36 186.12 1006.67 186.648C1006.98 187.172 1007.39 187.58 1007.91 187.872C1008.43 188.164 1009 188.31 1009.64 188.31ZM1016.54 189V180.6H1019.56C1020.11 180.6 1020.59 180.7 1020.99 180.9C1021.39 181.1 1021.7 181.384 1021.92 181.752C1022.14 182.116 1022.25 182.544 1022.25 183.036C1022.25 183.46 1022.15 183.834 1021.96 184.158C1021.77 184.482 1021.49 184.746 1021.14 184.95C1020.79 185.15 1020.38 185.278 1019.91 185.334L1022.62 189H1021.49L1018.87 185.412H1017.45V189H1016.54ZM1017.45 184.608H1019.35C1019.98 184.608 1020.46 184.47 1020.81 184.194C1021.15 183.918 1021.33 183.54 1021.33 183.06C1021.33 182.56 1021.18 182.16 1020.87 181.86C1020.57 181.56 1020.11 181.41 1019.47 181.41H1017.45V184.608ZM1026.8 189V185.292L1023.82 180.6H1024.89L1027.28 184.404L1029.65 180.6H1030.69L1027.71 185.298V189H1026.8Z" fill="#D5FFF3"/>
<path d="M1374.83 202.506L1202.5 77.3L1030.17 202.506L1095.99 405.094H1309.01L1374.83 202.506Z" stroke="#D7DAF9" stroke-linejoin="round"/>
<path opacity="0.3" d="M1262.72 238.692L1203.58 112.232C1203.03 111.055 1201.52 110.707 1200.51 111.525L1072.64 215.045C1071.97 215.583 1071.73 216.484 1072.02 217.288L1125.39 362.889C1125.65 363.599 1126.29 364.102 1127.04 364.187L1290.28 382.791C1291.63 382.946 1292.74 381.729 1292.46 380.394L1262.86 239.129C1262.83 238.978 1262.78 238.832 1262.72 238.692Z" fill="#404AFD" stroke="black"/>
<path d="M1262.72 238.692L1203.58 112.232C1203.03 111.055 1201.52 110.707 1200.51 111.525L1072.64 215.045C1071.97 215.583 1071.73 216.484 1072.02 217.288L1125.39 362.889C1125.65 363.599 1126.29 364.102 1127.04 364.187L1290.28 382.791C1291.63 382.946 1292.74 381.729 1292.46 380.394L1262.86 239.129C1262.83 238.978 1262.78 238.832 1262.72 238.692Z" stroke="#8E98FF" stroke-linejoin="round"/>
<circle cx="1201.26" cy="110.657" r="2.88273" fill="#B8C1FF"/>
<circle cx="1262.21" cy="239.144" r="2.88273" fill="#B8C1FF"/>
<circle cx="1293.51" cy="382.457" r="2.88273" fill="#B8C1FF"/>
<circle cx="1126.31" cy="363.514" r="2.88273" fill="#B8C1FF"/>
<circle cx="1071.95" cy="216.906" r="2.88273" fill="#B8C1FF"/>
</g>
<path d="M158 238H768" stroke="white" stroke-width="2" stroke-linecap="round"/>
</g>
<rect x="0.5" y="0.5" width="1499" height="499" stroke="white"/>
<defs>
<filter id="filter0_f_388_270" x="-370" y="54" width="1355" height="1228" filterUnits="userSpaceOnUse" color-interpolation-filters="sRGB">
<feFlood flood-opacity="0" result="BackgroundImageFix"/>
<feBlend mode="normal" in="SourceGraphic" in2="BackgroundImageFix" result="shape"/>
<feGaussianBlur stdDeviation="250" result="effect1_foregroundBlur_388_270"/>
</filter>
<filter id="filter1_f_388_270" x="1037" y="-303" width="500" height="500" filterUnits="userSpaceOnUse" color-interpolation-filters="sRGB">
<feFlood flood-opacity="0" result="BackgroundImageFix"/>
<feBlend mode="normal" in="SourceGraphic" in2="BackgroundImageFix" result="shape"/>
<feGaussianBlur stdDeviation="100" result="effect1_foregroundBlur_388_270"/>
</filter>
<filter id="filter2_f_388_270" x="913" y="-277" width="500" height="500" filterUnits="userSpaceOnUse" color-interpolation-filters="sRGB">
<feFlood flood-opacity="0" result="BackgroundImageFix"/>
<feBlend mode="normal" in="SourceGraphic" in2="BackgroundImageFix" result="shape"/>
<feGaussianBlur stdDeviation="100" result="effect1_foregroundBlur_388_270"/>
</filter>
<filter id="filter3_f_388_270" x="450" y="250" width="500" height="500" filterUnits="userSpaceOnUse" color-interpolation-filters="sRGB">
<feFlood flood-opacity="0" result="BackgroundImageFix"/>
<feBlend mode="normal" in="SourceGraphic" in2="BackgroundImageFix" result="shape"/>
<feGaussianBlur stdDeviation="100" result="effect1_foregroundBlur_388_270"/>
</filter>
<filter id="filter4_f_388_270" x="-73" y="66" width="300" height="300" filterUnits="userSpaceOnUse" color-interpolation-filters="sRGB">
<feFlood flood-opacity="0" result="BackgroundImageFix"/>
<feBlend mode="normal" in="SourceGraphic" in2="BackgroundImageFix" result="shape"/>
<feGaussianBlur stdDeviation="50" result="effect1_foregroundBlur_388_270"/>
</filter>
<filter id="filter5_f_388_270" x="-123" y="-69" width="300" height="300" filterUnits="userSpaceOnUse" color-interpolation-filters="sRGB">
<feFlood flood-opacity="0" result="BackgroundImageFix"/>
<feBlend mode="normal" in="SourceGraphic" in2="BackgroundImageFix" result="shape"/>
<feGaussianBlur stdDeviation="50" result="effect1_foregroundBlur_388_270"/>
</filter>
<filter id="filter6_f_388_270" x="-123" y="-90" width="300" height="300" filterUnits="userSpaceOnUse" color-interpolation-filters="sRGB">
<feFlood flood-opacity="0" result="BackgroundImageFix"/>
<feBlend mode="normal" in="SourceGraphic" in2="BackgroundImageFix" result="shape"/>
<feGaussianBlur stdDeviation="50" result="effect1_foregroundBlur_388_270"/>
</filter>
<filter id="filter7_f_388_270" x="-34" y="-21" width="300" height="300" filterUnits="userSpaceOnUse" color-interpolation-filters="sRGB">
<feFlood flood-opacity="0" result="BackgroundImageFix"/>
<feBlend mode="normal" in="SourceGraphic" in2="BackgroundImageFix" result="shape"/>
<feGaussianBlur stdDeviation="50" result="effect1_foregroundBlur_388_270"/>
</filter>
<filter id="filter8_f_388_270" x="88" y="-119" width="300" height="300" filterUnits="userSpaceOnUse" color-interpolation-filters="sRGB">
<feFlood flood-opacity="0" result="BackgroundImageFix"/>
<feBlend mode="normal" in="SourceGraphic" in2="BackgroundImageFix" result="shape"/>
<feGaussianBlur stdDeviation="50" result="effect1_foregroundBlur_388_270"/>
</filter>
<linearGradient id="paint0_linear_388_270" x1="1851.95" y1="1463.2" x2="366.098" y2="1598.15" gradientUnits="userSpaceOnUse">
<stop stop-color="#CFFCFF"/>
<stop offset="1" stop-color="#152E35" stop-opacity="0"/>
</linearGradient>
<linearGradient id="paint1_linear_388_270" x1="2455.12" y1="48.4745" x2="1395.71" y2="159.544" gradientUnits="userSpaceOnUse">
<stop stop-color="#CFFCFF"/>
<stop offset="1" stop-color="#152E35" stop-opacity="0"/>
</linearGradient>
<linearGradient id="paint2_linear_388_270" x1="2340.12" y1="33.4745" x2="1280.71" y2="144.544" gradientUnits="userSpaceOnUse">
<stop stop-color="#CFFCFF"/>
<stop offset="1" stop-color="#152E35" stop-opacity="0"/>
</linearGradient>
<linearGradient id="paint3_linear_388_270" x1="1155.89" y1="686.381" x2="92.9088" y2="779.006" gradientUnits="userSpaceOnUse">
<stop stop-color="#CFFCFF"/>
<stop offset="1" stop-color="#152E35" stop-opacity="0"/>
</linearGradient>
<linearGradient id="paint4_linear_388_270" x1="2378.94" y1="1393.93" x2="1091.39" y2="233.391" gradientUnits="userSpaceOnUse">
<stop stop-color="#43F0FD"/>
<stop offset="1" stop-color="#152E35" stop-opacity="0"/>
</linearGradient>
<clipPath id="clip0_388_270">
<rect width="1500" height="500" fill="white"/>
</clipPath>
<clipPath id="clip1_388_270">
<rect width="453" height="453" fill="white" transform="translate(976 32)"/>
</clipPath>
</defs>
</svg>
