<svg width="1500" height="500" viewBox="0 0 1500 500" fill="none" xmlns="http://www.w3.org/2000/svg">
<g clip-path="url(#clip0_283_79)">
<rect width="1500" height="500" fill="#111216"/>
<rect opacity="0.03" x="515.547" y="822.621" width="408" height="1343.46" transform="rotate(-140 515.547 822.621)" fill="url(#paint0_linear_283_79)"/>
<rect opacity="0.07" x="1299.23" y="-522" width="408" height="1266.72" transform="rotate(40 1299.23 -522)" fill="url(#paint1_linear_283_79)"/>
<rect opacity="0.07" x="1184.23" y="-537" width="408" height="1266.72" transform="rotate(40 1184.23 -537)" fill="url(#paint2_linear_283_79)"/>
<rect opacity="0.12" width="408" height="1524.09" transform="matrix(-0.766044 0.642788 0.642788 0.766044 334.547 -565)" fill="url(#paint3_linear_283_79)"/>
<g opacity="0.88" filter="url(#filter0_f_283_79)">
<path d="M278.374 597.089C278.374 615.069 183.191 662.199 164.266 662.199C145.342 662.199 130 647.624 130 629.644C130 611.665 145.342 597.089 164.266 597.089C196.134 509.843 278.374 579.11 278.374 597.089Z" fill="#DAF8FF"/>
<path d="M485 716.891C485 734.87 389.818 782 370.893 782C351.968 782 336.626 767.425 336.626 749.445C336.626 731.466 351.968 716.891 370.893 716.891C402.761 629.644 485 698.911 485 716.891Z" fill="#DAF8FF"/>
</g>
<rect opacity="0.1" x="1120.27" y="-77" width="408" height="842.074" transform="rotate(40 1120.27 -77)" fill="url(#paint4_linear_283_79)"/>
<g opacity="0.53" filter="url(#filter1_f_283_79)">
<circle cx="1287" cy="-53" r="50" fill="#557079" fill-opacity="0.54"/>
</g>
<g opacity="0.53" filter="url(#filter2_f_283_79)">
<circle cx="1163" cy="-27" r="50" fill="#C3F9FF" fill-opacity="0.32"/>
</g>
<g opacity="0.53" filter="url(#filter3_f_283_79)">
<circle cx="700" cy="500" r="50" fill="#C3F9FF" fill-opacity="0.18"/>
</g>
<path d="M827.674 485.91L818.8 469.261L819.604 468.303L837.734 473.921L836.689 475.166L831.727 473.613L826.231 480.163L828.687 484.704L827.674 485.91ZM825.534 478.893L830.339 473.167L820.817 470.202L825.534 478.893ZM849.917 459.403L836.511 448.154L840.448 443.462C841.166 442.607 841.944 442.003 842.783 441.652C843.627 441.294 844.479 441.193 845.338 441.348C846.196 441.492 847.012 441.888 847.784 442.536C848.461 443.104 848.927 443.767 849.183 444.526C849.437 445.272 849.481 446.076 849.314 446.936C849.146 447.785 848.762 448.644 848.164 449.512L857.823 449.98L856.634 451.398L847.042 450.888L844.969 453.359L850.849 458.292L849.917 459.403ZM843.935 452.491L846.667 449.235C847.561 448.169 848.019 447.144 848.039 446.161C848.059 445.165 847.663 444.327 846.852 443.647C846.01 442.94 845.116 442.625 844.17 442.702C843.224 442.778 842.302 443.353 841.402 444.426L838.477 447.911L843.935 452.491ZM870.511 434.859L857.106 423.61L858.038 422.499L871.444 433.748L870.511 434.859ZM888.617 413.865C887.91 414.707 887.107 415.437 886.209 416.054C885.304 416.666 884.408 417.066 883.519 417.256L883.114 415.872C883.671 415.741 884.212 415.543 884.739 415.278C885.266 415.013 885.77 414.691 886.252 414.311C886.732 413.92 887.181 413.476 887.599 412.978C888.515 411.886 889.028 410.827 889.14 409.8C889.25 408.761 888.874 407.88 888.012 407.157C887.4 406.643 886.697 406.423 885.905 406.498C885.119 406.567 884.063 407.041 882.738 407.92L880.909 409.127C879.595 409.993 878.439 410.476 877.442 410.575C876.445 410.662 875.521 410.349 874.672 409.637C874.091 409.15 873.668 408.604 873.402 408C873.13 407.391 873.006 406.748 873.029 406.072C873.052 405.384 873.216 404.689 873.521 403.988C873.826 403.276 874.262 402.581 874.83 401.904C875.494 401.113 876.225 400.475 877.022 399.991C877.82 399.507 878.603 399.19 879.37 399.04L879.719 400.394C879.226 400.502 878.738 400.675 878.256 400.912C877.774 401.15 877.315 401.444 876.879 401.796C876.436 402.142 876.032 402.532 875.668 402.966C875.111 403.63 874.72 404.303 874.496 404.985C874.271 405.656 874.232 406.298 874.38 406.912C874.534 407.52 874.895 408.062 875.463 408.539C875.859 408.871 876.282 409.079 876.733 409.164C877.183 409.237 877.715 409.161 878.328 408.936C878.94 408.699 879.688 408.287 880.572 407.701L882.551 406.392C883.809 405.555 884.94 405.101 885.945 405.031C886.951 404.961 887.903 405.303 888.804 406.058C889.544 406.68 890.045 407.405 890.307 408.234C890.574 409.056 890.572 409.947 890.301 410.905C890.03 411.863 889.469 412.85 888.617 413.865ZM906.476 397.482L905.595 396.743L913.63 387.167L914.511 387.906L906.476 397.482ZM922.646 372.727L920.747 365.423L913.63 364.803L914.771 363.443L920.464 364.01L918.853 358.579L919.929 357.296L921.814 364.034L929.379 364.703L928.222 366.082L922.098 365.447L923.739 371.425L922.646 372.727ZM945.56 346.003C944.746 346.973 943.809 347.662 942.75 348.068C941.691 348.462 940.57 348.533 939.389 348.282C938.206 348.019 937.021 347.389 935.834 346.393C934.704 345.444 933.832 344.37 933.219 343.17C932.604 341.958 932.234 340.674 932.11 339.319C931.985 337.963 932.105 336.589 932.468 335.197C932.825 333.799 933.412 332.438 934.231 331.112L935.542 331.494C934.681 332.741 934.082 333.967 933.743 335.174C933.404 336.369 933.28 337.516 933.37 338.614C933.46 339.712 933.721 340.736 934.154 341.686C934.585 342.624 935.134 343.467 935.803 344.213C935.464 343.243 935.388 342.238 935.575 341.198C935.762 340.158 936.212 339.214 936.924 338.365C937.642 337.51 938.475 336.887 939.422 336.496C940.364 336.1 941.328 335.969 942.316 336.101C943.297 336.228 944.209 336.645 945.051 337.352C945.69 337.888 946.185 338.51 946.537 339.219C946.894 339.921 947.098 340.663 947.149 341.445C947.198 342.216 947.095 342.994 946.838 343.779C946.575 344.56 946.149 345.301 945.56 346.003ZM944.468 345.087C945.063 344.378 945.447 343.635 945.622 342.857C945.795 342.067 945.764 341.306 945.529 340.576C945.293 339.845 944.853 339.209 944.208 338.668C943.576 338.138 942.875 337.827 942.104 337.734C941.332 337.63 940.568 337.73 939.814 338.032C939.06 338.335 938.396 338.828 937.823 339.511C937.25 340.194 936.88 340.933 936.713 341.729C936.546 342.524 936.578 343.296 936.809 344.045C937.039 344.782 937.47 345.415 938.102 345.946C938.747 346.487 939.446 346.813 940.202 346.924C940.962 347.029 941.716 346.928 942.464 346.62C943.206 346.307 943.874 345.796 944.468 345.087ZM966.956 319.921L963.968 317.414L958.119 324.385L957.161 323.582L952.2 310.281L953.245 309.036L958.129 322.273L962.934 316.546L959.602 313.75L960.502 312.678L963.834 315.474L965.778 313.157L966.812 314.024L964.868 316.342L967.856 318.849L966.956 319.921Z" fill="white" fill-opacity="0.02"/>
<mask id="mask0_283_79" style="mask-type:alpha" maskUnits="userSpaceOnUse" x="29" y="89" width="37" height="123">
<path d="M30.0879 209.31H65V211.873H30.0879V209.31ZM63.7793 177.996H61.0938C62.3958 174.334 63.0469 170.298 63.0469 165.887C63.0469 158.579 60.2799 154.925 54.7461 154.925C50.6771 154.925 48.6426 157.301 48.6426 162.054V169.231C48.6426 175.726 45.7129 178.973 39.8535 178.973C33.1803 178.973 29.8438 174.212 29.8438 164.69C29.8438 160.784 30.332 157 31.3086 153.338H33.75C32.6107 157 32.041 160.784 32.041 164.69C32.041 172.503 34.6452 176.409 39.8535 176.409C44.0853 176.409 46.2012 174.017 46.2012 169.231V162.054C46.2012 155.592 49.0495 152.361 54.7461 152.361C61.7448 152.361 65.2441 156.87 65.2441 165.887C65.2441 170.298 64.7559 174.334 63.7793 177.996ZM47.4463 121.683C57.8467 121.683 63.0469 116.775 63.0469 106.961C63.0469 97.3255 57.8467 92.5078 47.4463 92.5078C37.1761 92.5078 32.041 97.3255 32.041 106.961C32.041 116.775 37.1761 121.683 47.4463 121.683ZM47.5928 124.49C35.7601 124.49 29.8438 118.647 29.8438 106.961C29.8438 95.4538 35.7601 89.7002 47.5928 89.7002C59.3604 89.7002 65.2441 95.4538 65.2441 106.961C65.2441 118.647 59.3604 124.49 47.5928 124.49Z" fill="white"/>
</mask>
<g mask="url(#mask0_283_79)">
<g filter="url(#filter4_f_283_79)">
<circle cx="76" cy="217" r="50" fill="#D9D9D9"/>
</g>
<g filter="url(#filter5_f_283_79)">
<circle cx="26" cy="82" r="50" fill="#D9D9D9"/>
</g>
</g>
<mask id="mask1_283_79" style="mask-type:alpha" maskUnits="userSpaceOnUse" x="31" y="31" width="194" height="37">
<path d="M45.5996 49.5439L31.8545 32.0879H34.9062L47.1133 47.6152L59.3203 32.0879H62.3721L48.6514 49.5439L62.3721 67H59.3203L47.1133 51.4727L34.9062 67H31.8545L45.5996 49.5439ZM91.2197 49.4463C91.2197 59.8467 95.3132 65.0469 103.5 65.0469C111.508 65.0469 115.512 59.8467 115.512 49.4463C115.512 39.1761 111.508 34.041 103.5 34.041C95.3132 34.041 91.2197 39.1761 91.2197 49.4463ZM88.4121 49.5928C88.4121 37.7601 93.4414 31.8438 103.5 31.8438C113.38 31.8438 118.319 37.7601 118.319 49.5928C118.319 61.3604 113.38 67.2441 103.5 67.2441C93.9622 67.2441 88.9329 61.3604 88.4121 49.5928ZM146.215 53.5723C146.215 44.5228 151.57 37.0114 162.279 31.0381L163.402 32.918C156.257 37.1986 151.83 41.585 150.121 46.0771C153.067 45.0518 155.964 44.5391 158.812 44.5391C167.341 44.5391 171.605 48.2012 171.605 55.5254C171.605 63.3379 167.431 67.2441 159.081 67.2441C150.504 67.2441 146.215 62.6868 146.215 53.5723ZM148.534 53.4258C148.534 61.1732 152.123 65.0469 159.301 65.0469C165.86 65.0469 169.14 61.873 169.14 55.5254C169.14 49.666 165.705 46.7363 158.837 46.7363C155.354 46.7363 152.229 47.2897 149.462 48.3965C148.843 49.5358 148.534 51.2122 148.534 53.4258ZM220.644 67H218.08V58.6992H198.012V56.502L213.271 32.0879H216.054L200.771 56.502H218.08V42.6348H220.644V56.502L224.501 57.3809V58.6992H220.644V67Z" fill="white"/>
</mask>
<g mask="url(#mask1_283_79)">
<g filter="url(#filter6_f_283_79)">
<circle cx="26" cy="61" r="50" fill="#D9D9D9"/>
</g>
<g filter="url(#filter7_f_283_79)">
<circle cx="115" cy="130" r="50" fill="#D9D9D9"/>
</g>
<g filter="url(#filter8_f_283_79)">
<circle cx="237" cy="32" r="50" fill="#D9D9D9"/>
</g>
</g>
<path d="M36.0001 55.6019C42.1803 58.8829 46.6152 63.891 48.0601 65.9849" stroke="#111216" stroke-width="5"/>
<path d="M54 108.5C57.6 102.5 62.8333 98.3333 65 97" stroke="#111216" stroke-width="5"/>
<path d="M109 55.5C112.6 49.5 117.833 45.3333 120 44" stroke="#111216" stroke-width="5"/>
<path opacity="0.75" d="M265.675 279.125C260.225 279.125 255.45 278 251.35 275.75C247.25 273.5 244.062 270.337 241.787 266.262C239.512 262.162 238.375 257.35 238.375 251.825C238.375 247.8 239.037 244.125 240.362 240.8C241.712 237.45 243.612 234.55 246.062 232.1C248.537 229.625 251.437 227.725 254.762 226.4C258.112 225.05 261.787 224.375 265.787 224.375C269.912 224.375 273.437 224.9 276.362 225.95C279.287 226.975 281.887 228.437 284.163 230.337L279.175 238.325C277.575 236.8 275.7 235.675 273.55 234.95C271.425 234.2 269.062 233.825 266.462 233.825C263.687 233.825 261.2 234.237 259 235.062C256.8 235.887 254.925 237.087 253.375 238.662C251.825 240.212 250.638 242.087 249.812 244.287C248.987 246.487 248.575 248.962 248.575 251.712C248.575 255.487 249.313 258.712 250.788 261.387C252.262 264.037 254.362 266.075 257.088 267.5C259.812 268.925 263.05 269.637 266.8 269.637C269.325 269.637 271.788 269.25 274.188 268.475C276.613 267.7 278.9 266.462 281.05 264.762L285.55 272.975C283.05 274.925 280.15 276.437 276.85 277.512C273.575 278.587 269.85 279.125 265.675 279.125ZM306.343 286.625L298.431 283.512L325.393 217.625L333.306 220.737L306.343 286.625ZM372.037 279.125C366.587 279.125 361.812 278 357.712 275.75C353.612 273.5 350.425 270.337 348.15 266.262C345.875 262.162 344.737 257.35 344.737 251.825C344.737 247.8 345.4 244.125 346.725 240.8C348.075 237.45 349.975 234.55 352.425 232.1C354.9 229.625 357.8 227.725 361.125 226.4C364.475 225.05 368.15 224.375 372.15 224.375C376.275 224.375 379.8 224.9 382.725 225.95C385.65 226.975 388.25 228.437 390.525 230.337L385.537 238.325C383.937 236.8 382.062 235.675 379.912 234.95C377.787 234.2 375.425 233.825 372.825 233.825C370.05 233.825 367.562 234.237 365.362 235.062C363.162 235.887 361.287 237.087 359.737 238.662C358.187 240.212 357 242.087 356.175 244.287C355.35 246.487 354.937 248.962 354.937 251.712C354.937 255.487 355.675 258.712 357.15 261.387C358.625 264.037 360.725 266.075 363.45 267.5C366.175 268.925 369.412 269.637 373.162 269.637C375.687 269.637 378.15 269.25 380.55 268.475C382.975 267.7 385.262 266.462 387.412 264.762L391.912 272.975C389.412 274.925 386.512 276.437 383.212 277.512C379.937 278.587 376.212 279.125 372.037 279.125ZM425.718 271.812V256.4H409.63V249.575H425.718V234.162H432.843V249.575H448.93V256.4H432.843V271.812H425.718ZM485.601 271.812V256.4H469.513V249.575H485.601V234.162H492.726V249.575H508.813V256.4H492.726V271.812H485.601ZM532.471 286.625L524.559 283.512L551.521 217.625L559.434 220.737L532.471 286.625ZM577.131 278V225.5H595.918C601.043 225.5 605.168 226.625 608.293 228.875C611.443 231.1 613.018 234.4 613.018 238.775C613.018 240.4 612.643 241.937 611.893 243.387C611.143 244.837 610.168 246.112 608.968 247.212C607.768 248.287 606.493 249.112 605.143 249.687C607.993 250.587 610.343 252.2 612.193 254.525C614.043 256.85 614.968 259.687 614.968 263.037C614.968 265.987 614.218 268.587 612.718 270.837C611.243 273.087 609.131 274.85 606.381 276.125C603.631 277.375 600.381 278 596.631 278H577.131ZM586.881 270.537H595.093C598.368 270.537 600.818 269.887 602.443 268.587C604.068 267.262 604.881 265.287 604.881 262.662C604.881 260.087 604.068 258.112 602.443 256.737C600.843 255.362 598.406 254.675 595.131 254.675H586.881V270.537ZM586.881 247.625H594.493C596.318 247.625 597.906 247.325 599.256 246.725C600.606 246.125 601.656 245.262 602.406 244.137C603.156 242.987 603.531 241.625 603.531 240.05C603.531 237.75 602.731 236 601.131 234.8C599.556 233.575 597.293 232.962 594.343 232.962H586.881V247.625ZM630.501 278L650.638 225.5H661.513L682.063 278H671.076L666.613 266.112H645.501L641.188 278H630.501ZM647.901 257.825H664.138L655.888 236.525L647.901 257.825ZM718.071 279.125C714.321 279.125 710.658 278.587 707.083 277.512C703.533 276.412 700.533 274.85 698.083 272.825L702.808 265.437C704.008 266.537 705.446 267.487 707.121 268.287C708.796 269.087 710.571 269.712 712.446 270.162C714.346 270.587 716.233 270.8 718.108 270.8C721.233 270.8 723.771 270.225 725.721 269.075C727.671 267.9 728.646 266.212 728.646 264.012C728.646 262.287 727.971 260.85 726.621 259.7C725.271 258.525 722.783 257.425 719.158 256.4L714.058 254.937C708.933 253.487 705.221 251.55 702.921 249.125C700.646 246.675 699.508 243.675 699.508 240.125C699.508 237.8 699.983 235.675 700.933 233.75C701.883 231.825 703.221 230.162 704.946 228.762C706.696 227.362 708.758 226.287 711.133 225.537C713.508 224.787 716.096 224.412 718.896 224.412C722.571 224.412 725.983 224.95 729.133 226.025C732.283 227.075 734.858 228.512 736.858 230.337L732.021 237.5C730.971 236.525 729.733 235.675 728.308 234.95C726.883 234.225 725.346 233.675 723.696 233.3C722.046 232.9 720.383 232.7 718.708 232.7C716.733 232.7 715.008 232.975 713.533 233.525C712.058 234.075 710.908 234.862 710.083 235.887C709.258 236.912 708.846 238.162 708.846 239.637C708.846 240.712 709.121 241.65 709.671 242.45C710.246 243.25 711.221 243.987 712.596 244.662C713.971 245.312 715.871 246 718.296 246.725L723.621 248.3C728.646 249.775 732.308 251.675 734.608 254C736.908 256.3 738.058 259.3 738.058 263C738.058 266.175 737.258 268.975 735.658 271.4C734.058 273.825 731.758 275.725 728.758 277.1C725.783 278.45 722.221 279.125 718.071 279.125ZM759.196 278V225.5H768.946V245.9H792.796V225.5H802.546V278H792.796V254.825H768.946V278H759.196Z" fill="#FFFBEA"/>
<path d="M925 27V475" stroke="#FFFDFD" stroke-opacity="0.33"/>
</g>
<defs>
<filter id="filter0_f_283_79" x="-370" y="54" width="1355" height="1228" filterUnits="userSpaceOnUse" color-interpolation-filters="sRGB">
<feFlood flood-opacity="0" result="BackgroundImageFix"/>
<feBlend mode="normal" in="SourceGraphic" in2="BackgroundImageFix" result="shape"/>
<feGaussianBlur stdDeviation="250" result="effect1_foregroundBlur_283_79"/>
</filter>
<filter id="filter1_f_283_79" x="1037" y="-303" width="500" height="500" filterUnits="userSpaceOnUse" color-interpolation-filters="sRGB">
<feFlood flood-opacity="0" result="BackgroundImageFix"/>
<feBlend mode="normal" in="SourceGraphic" in2="BackgroundImageFix" result="shape"/>
<feGaussianBlur stdDeviation="100" result="effect1_foregroundBlur_283_79"/>
</filter>
<filter id="filter2_f_283_79" x="913" y="-277" width="500" height="500" filterUnits="userSpaceOnUse" color-interpolation-filters="sRGB">
<feFlood flood-opacity="0" result="BackgroundImageFix"/>
<feBlend mode="normal" in="SourceGraphic" in2="BackgroundImageFix" result="shape"/>
<feGaussianBlur stdDeviation="100" result="effect1_foregroundBlur_283_79"/>
</filter>
<filter id="filter3_f_283_79" x="450" y="250" width="500" height="500" filterUnits="userSpaceOnUse" color-interpolation-filters="sRGB">
<feFlood flood-opacity="0" result="BackgroundImageFix"/>
<feBlend mode="normal" in="SourceGraphic" in2="BackgroundImageFix" result="shape"/>
<feGaussianBlur stdDeviation="100" result="effect1_foregroundBlur_283_79"/>
</filter>
<filter id="filter4_f_283_79" x="-74" y="67" width="300" height="300" filterUnits="userSpaceOnUse" color-interpolation-filters="sRGB">
<feFlood flood-opacity="0" result="BackgroundImageFix"/>
<feBlend mode="normal" in="SourceGraphic" in2="BackgroundImageFix" result="shape"/>
<feGaussianBlur stdDeviation="50" result="effect1_foregroundBlur_283_79"/>
</filter>
<filter id="filter5_f_283_79" x="-124" y="-68" width="300" height="300" filterUnits="userSpaceOnUse" color-interpolation-filters="sRGB">
<feFlood flood-opacity="0" result="BackgroundImageFix"/>
<feBlend mode="normal" in="SourceGraphic" in2="BackgroundImageFix" result="shape"/>
<feGaussianBlur stdDeviation="50" result="effect1_foregroundBlur_283_79"/>
</filter>
<filter id="filter6_f_283_79" x="-124" y="-89" width="300" height="300" filterUnits="userSpaceOnUse" color-interpolation-filters="sRGB">
<feFlood flood-opacity="0" result="BackgroundImageFix"/>
<feBlend mode="normal" in="SourceGraphic" in2="BackgroundImageFix" result="shape"/>
<feGaussianBlur stdDeviation="50" result="effect1_foregroundBlur_283_79"/>
</filter>
<filter id="filter7_f_283_79" x="-35" y="-20" width="300" height="300" filterUnits="userSpaceOnUse" color-interpolation-filters="sRGB">
<feFlood flood-opacity="0" result="BackgroundImageFix"/>
<feBlend mode="normal" in="SourceGraphic" in2="BackgroundImageFix" result="shape"/>
<feGaussianBlur stdDeviation="50" result="effect1_foregroundBlur_283_79"/>
</filter>
<filter id="filter8_f_283_79" x="87" y="-118" width="300" height="300" filterUnits="userSpaceOnUse" color-interpolation-filters="sRGB">
<feFlood flood-opacity="0" result="BackgroundImageFix"/>
<feBlend mode="normal" in="SourceGraphic" in2="BackgroundImageFix" result="shape"/>
<feGaussianBlur stdDeviation="50" result="effect1_foregroundBlur_283_79"/>
</filter>
<linearGradient id="paint0_linear_283_79" x1="1851.95" y1="1463.2" x2="366.097" y2="1598.15" gradientUnits="userSpaceOnUse">
<stop stop-color="#CFFCFF"/>
<stop offset="1" stop-color="#152E35" stop-opacity="0"/>
</linearGradient>
<linearGradient id="paint1_linear_283_79" x1="2455.12" y1="48.4745" x2="1395.71" y2="159.544" gradientUnits="userSpaceOnUse">
<stop stop-color="#CFFCFF"/>
<stop offset="1" stop-color="#152E35" stop-opacity="0"/>
</linearGradient>
<linearGradient id="paint2_linear_283_79" x1="2340.12" y1="33.4745" x2="1280.71" y2="144.544" gradientUnits="userSpaceOnUse">
<stop stop-color="#CFFCFF"/>
<stop offset="1" stop-color="#152E35" stop-opacity="0"/>
</linearGradient>
<linearGradient id="paint3_linear_283_79" x1="1155.89" y1="686.381" x2="92.9088" y2="779.006" gradientUnits="userSpaceOnUse">
<stop stop-color="#CFFCFF"/>
<stop offset="1" stop-color="#152E35" stop-opacity="0"/>
</linearGradient>
<linearGradient id="paint4_linear_283_79" x1="2378.94" y1="1393.93" x2="1091.39" y2="233.391" gradientUnits="userSpaceOnUse">
<stop stop-color="#43F0FD"/>
<stop offset="1" stop-color="#152E35" stop-opacity="0"/>
</linearGradient>
<clipPath id="clip0_283_79">
<rect width="1500" height="500" fill="white"/>
</clipPath>
</defs>
</svg>
