<svg width="1500" height="500" viewBox="0 0 1500 500" fill="none" xmlns="http://www.w3.org/2000/svg">
<g clip-path="url(#clip0_388_270)">
<rect opacity="0.03" x="515.548" y="822.621" width="408" height="1343.46" transform="rotate(-140 515.548 822.621)" fill="url(#paint0_linear_388_270)"/>
<rect opacity="0.07" x="1299.23" y="-522" width="408" height="1266.72" transform="rotate(40 1299.23 -522)" fill="url(#paint1_linear_388_270)"/>
<rect opacity="0.07" x="1184.23" y="-537" width="408" height="1266.72" transform="rotate(40 1184.23 -537)" fill="url(#paint2_linear_388_270)"/>
<rect opacity="0.12" width="408" height="1524.09" transform="matrix(-0.766044 0.642788 0.642788 0.766044 334.548 -565)" fill="url(#paint3_linear_388_270)"/>
<g opacity="0.88" filter="url(#filter0_f_388_270)">
<path d="M278.374 597.089C278.374 615.069 183.191 662.199 164.266 662.199C145.342 662.199 130 647.624 130 629.644C130 611.665 145.342 597.089 164.266 597.089C196.134 509.843 278.374 579.11 278.374 597.089Z" fill="#DAF8FF"/>
<path d="M485 716.891C485 734.87 389.818 782 370.893 782C351.968 782 336.626 767.425 336.626 749.445C336.626 731.466 351.968 716.891 370.893 716.891C402.761 629.644 485 698.911 485 716.891Z" fill="#DAF8FF"/>
</g>
<rect opacity="0.1" x="1120.28" y="-77" width="408" height="842.074" transform="rotate(40 1120.28 -77)" fill="url(#paint4_linear_388_270)"/>
<g opacity="0.53" filter="url(#filter1_f_388_270)">
<circle cx="1287" cy="-53" r="50" fill="#557079" fill-opacity="0.54"/>
</g>
<g opacity="0.53" filter="url(#filter2_f_388_270)">
<circle cx="1163" cy="-27" r="50" fill="#C3F9FF" fill-opacity="0.32"/>
</g>
<g opacity="0.53" filter="url(#filter3_f_388_270)">
<circle cx="700" cy="500" r="50" fill="#C3F9FF" fill-opacity="0.18"/>
</g>
<path d="M796.674 494.91L787.8 478.261L788.604 477.303L806.734 482.921L805.689 484.166L800.727 482.613L795.231 489.163L797.687 493.704L796.674 494.91ZM794.534 487.893L799.339 482.167L789.817 479.202L794.534 487.893ZM818.917 468.403L805.511 457.154L809.448 452.462C810.166 451.607 810.944 451.003 811.783 450.652C812.627 450.294 813.479 450.193 814.338 450.348C815.196 450.492 816.012 450.888 816.784 451.536C817.461 452.104 817.927 452.767 818.183 453.526C818.437 454.272 818.481 455.076 818.314 455.936C818.146 456.785 817.762 457.644 817.164 458.512L826.823 458.98L825.634 460.398L816.042 459.888L813.969 462.359L819.849 467.292L818.917 468.403ZM812.935 461.491L815.667 458.235C816.561 457.169 817.019 456.144 817.039 455.161C817.059 454.165 816.663 453.327 815.852 452.647C815.01 451.94 814.116 451.625 813.17 451.702C812.224 451.778 811.302 452.353 810.402 453.426L807.477 456.911L812.935 461.491ZM839.511 443.859L826.106 432.61L827.038 431.499L840.444 442.748L839.511 443.859ZM857.617 422.865C856.91 423.707 856.107 424.437 855.209 425.054C854.304 425.666 853.408 426.066 852.519 426.256L852.114 424.872C852.671 424.741 853.212 424.543 853.739 424.278C854.266 424.013 854.77 423.691 855.252 423.311C855.732 422.92 856.181 422.476 856.599 421.978C857.515 420.886 858.028 419.827 858.14 418.8C858.25 417.761 857.874 416.88 857.012 416.157C856.4 415.643 855.697 415.423 854.905 415.498C854.119 415.567 853.063 416.041 851.738 416.92L849.909 418.127C848.595 418.993 847.439 419.476 846.442 419.575C845.445 419.662 844.521 419.349 843.672 418.637C843.091 418.15 842.668 417.604 842.402 417C842.13 416.391 842.006 415.748 842.029 415.072C842.052 414.384 842.216 413.689 842.521 412.988C842.826 412.276 843.262 411.581 843.83 410.904C844.494 410.113 845.225 409.475 846.022 408.991C846.82 408.507 847.603 408.19 848.37 408.04L848.719 409.394C848.226 409.502 847.738 409.675 847.256 409.912C846.774 410.15 846.315 410.444 845.879 410.796C845.436 411.142 845.032 411.532 844.668 411.966C844.111 412.63 843.72 413.303 843.496 413.985C843.271 414.656 843.232 415.298 843.38 415.912C843.534 416.52 843.895 417.062 844.463 417.539C844.859 417.871 845.282 418.079 845.733 418.164C846.183 418.237 846.715 418.161 847.328 417.936C847.94 417.699 848.688 417.287 849.572 416.701L851.551 415.392C852.809 414.555 853.94 414.101 854.945 414.031C855.951 413.961 856.903 414.303 857.804 415.058C858.544 415.68 859.045 416.405 859.307 417.234C859.574 418.056 859.572 418.947 859.301 419.905C859.03 420.863 858.469 421.85 857.617 422.865ZM875.476 406.482L874.595 405.743L882.63 396.167L883.511 396.906L875.476 406.482ZM891.646 381.727L889.747 374.423L882.63 373.803L883.771 372.443L889.464 373.01L887.853 367.579L888.929 366.296L890.814 373.034L898.379 373.703L897.222 375.082L891.098 374.447L892.739 380.425L891.646 381.727ZM914.56 355.003C913.746 355.973 912.809 356.662 911.75 357.068C910.691 357.462 909.57 357.533 908.389 357.282C907.206 357.019 906.021 356.389 904.834 355.393C903.704 354.444 902.832 353.37 902.219 352.17C901.604 350.958 901.234 349.674 901.11 348.319C900.985 346.963 901.105 345.589 901.468 344.197C901.825 342.799 902.412 341.438 903.231 340.112L904.542 340.494C903.681 341.741 903.082 342.967 902.743 344.174C902.404 345.369 902.28 346.516 902.37 347.614C902.46 348.712 902.721 349.736 903.154 350.686C903.585 351.624 904.134 352.467 904.803 353.213C904.464 352.243 904.388 351.238 904.575 350.198C904.762 349.158 905.212 348.214 905.924 347.365C906.642 346.51 907.475 345.887 908.422 345.496C909.364 345.1 910.328 344.969 911.316 345.101C912.297 345.228 913.209 345.645 914.051 346.352C914.69 346.888 915.185 347.51 915.537 348.219C915.894 348.921 916.098 349.663 916.149 350.445C916.198 351.216 916.095 351.994 915.838 352.779C915.575 353.56 915.149 354.301 914.56 355.003ZM913.468 354.087C914.063 353.378 914.447 352.635 914.622 351.857C914.795 351.067 914.764 350.306 914.529 349.576C914.293 348.845 913.853 348.209 913.208 347.668C912.576 347.138 911.875 346.827 911.104 346.734C910.332 346.63 909.568 346.73 908.814 347.032C908.06 347.335 907.396 347.828 906.823 348.511C906.25 349.194 905.88 349.933 905.713 350.729C905.546 351.524 905.578 352.296 905.809 353.045C906.039 353.782 906.47 354.415 907.102 354.946C907.747 355.487 908.446 355.813 909.202 355.924C909.962 356.029 910.716 355.928 911.464 355.62C912.206 355.307 912.874 354.796 913.468 354.087ZM935.956 328.921L932.968 326.414L927.119 333.385L926.161 332.582L921.2 319.281L922.245 318.036L927.129 331.273L931.934 325.546L928.602 322.75L929.502 321.678L932.834 324.474L934.778 322.157L935.812 323.024L933.868 325.342L936.856 327.849L935.956 328.921Z" fill="white" fill-opacity="0.02"/>
<mask id="mask0_388_270" style="mask-type:alpha" maskUnits="userSpaceOnUse" x="29" y="89" width="37" height="123">
<path d="M30.0879 209.31H65V211.873H30.0879V209.31ZM63.7793 177.996H61.0938C62.3958 174.334 63.0469 170.298 63.0469 165.887C63.0469 158.579 60.2799 154.925 54.7461 154.925C50.6771 154.925 48.6426 157.301 48.6426 162.054V169.231C48.6426 175.726 45.7129 178.973 39.8535 178.973C33.1803 178.973 29.8438 174.212 29.8438 164.69C29.8438 160.784 30.332 157 31.3086 153.338H33.75C32.6107 157 32.041 160.784 32.041 164.69C32.041 172.503 34.6452 176.409 39.8535 176.409C44.0853 176.409 46.2012 174.017 46.2012 169.231V162.054C46.2012 155.592 49.0495 152.361 54.7461 152.361C61.7448 152.361 65.2441 156.87 65.2441 165.887C65.2441 170.298 64.7559 174.334 63.7793 177.996ZM47.4463 121.683C57.8467 121.683 63.0469 116.775 63.0469 106.961C63.0469 97.3255 57.8467 92.5078 47.4463 92.5078C37.1761 92.5078 32.041 97.3255 32.041 106.961C32.041 116.775 37.1761 121.683 47.4463 121.683ZM47.5928 124.49C35.7601 124.49 29.8438 118.647 29.8438 106.961C29.8438 95.4538 35.7601 89.7002 47.5928 89.7002C59.3604 89.7002 65.2441 95.4538 65.2441 106.961C65.2441 118.647 59.3604 124.49 47.5928 124.49Z" fill="white"/>
</mask>
<g mask="url(#mask0_388_270)">
<g filter="url(#filter4_f_388_270)">
<circle cx="76" cy="217" r="50" fill="#D9D9D9"/>
</g>
<g filter="url(#filter5_f_388_270)">
<circle cx="26" cy="82" r="50" fill="#D9D9D9"/>
</g>
</g>
<mask id="mask1_388_270" style="mask-type:alpha" maskUnits="userSpaceOnUse" x="31" y="31" width="194" height="37">
<path d="M45.5996 49.5439L31.8545 32.0879H34.9062L47.1133 47.6152L59.3203 32.0879H62.3721L48.6514 49.5439L62.3721 67H59.3203L47.1133 51.4727L34.9062 67H31.8545L45.5996 49.5439ZM91.2197 49.4463C91.2197 59.8467 95.3132 65.0469 103.5 65.0469C111.508 65.0469 115.512 59.8467 115.512 49.4463C115.512 39.1761 111.508 34.041 103.5 34.041C95.3132 34.041 91.2197 39.1761 91.2197 49.4463ZM88.4121 49.5928C88.4121 37.7601 93.4414 31.8438 103.5 31.8438C113.38 31.8438 118.319 37.7601 118.319 49.5928C118.319 61.3604 113.38 67.2441 103.5 67.2441C93.9622 67.2441 88.9329 61.3604 88.4121 49.5928ZM146.215 53.5723C146.215 44.5228 151.57 37.0114 162.279 31.0381L163.402 32.918C156.257 37.1986 151.83 41.585 150.121 46.0771C153.067 45.0518 155.964 44.5391 158.812 44.5391C167.341 44.5391 171.605 48.2012 171.605 55.5254C171.605 63.3379 167.431 67.2441 159.081 67.2441C150.504 67.2441 146.215 62.6868 146.215 53.5723ZM148.534 53.4258C148.534 61.1732 152.123 65.0469 159.301 65.0469C165.86 65.0469 169.14 61.873 169.14 55.5254C169.14 49.666 165.705 46.7363 158.837 46.7363C155.354 46.7363 152.229 47.2897 149.462 48.3965C148.843 49.5358 148.534 51.2122 148.534 53.4258ZM220.644 67H218.08V58.6992H198.012V56.502L213.271 32.0879H216.054L200.771 56.502H218.08V42.6348H220.644V56.502L224.501 57.3809V58.6992H220.644V67Z" fill="white"/>
</mask>
<g mask="url(#mask1_388_270)">
<g filter="url(#filter6_f_388_270)">
<circle cx="26" cy="61" r="50" fill="#D9D9D9"/>
</g>
<g filter="url(#filter7_f_388_270)">
<circle cx="115" cy="130" r="50" fill="#D9D9D9"/>
</g>
<g filter="url(#filter8_f_388_270)">
<circle cx="237" cy="32" r="50" fill="#D9D9D9"/>
</g>
</g>
<path opacity="0.9" d="M158.91 170V133.502L147.632 137.597L145.422 131.032L166.125 123.525H166.71V170H158.91ZM204.955 170.975C201.51 170.975 198.444 170.238 195.757 168.765C193.071 167.27 190.958 165.136 189.42 162.362C187.903 159.567 187.145 156.22 187.145 152.32C187.145 148.485 187.871 144.953 189.322 141.725C190.774 138.475 192.8 135.604 195.4 133.112C198 130.599 201.044 128.53 204.532 126.905C208.021 125.258 211.802 124.132 215.875 123.525L218.767 129.895C215.647 130.242 212.863 130.881 210.415 131.812C207.967 132.722 205.843 133.86 204.045 135.225C202.268 136.568 200.784 138.074 199.592 139.742C198.422 141.389 197.534 143.133 196.927 144.975C198.054 143.632 199.462 142.581 201.152 141.822C202.842 141.042 204.673 140.652 206.645 140.652C209.592 140.652 212.235 141.281 214.575 142.537C216.915 143.772 218.757 145.484 220.1 147.672C221.465 149.861 222.147 152.385 222.147 155.245C222.147 157.433 221.725 159.492 220.88 161.42C220.035 163.327 218.843 164.995 217.305 166.425C215.788 167.855 213.979 168.971 211.877 169.772C209.797 170.574 207.49 170.975 204.955 170.975ZM204.955 163.987C206.732 163.987 208.302 163.63 209.667 162.915C211.054 162.2 212.137 161.214 212.917 159.957C213.719 158.701 214.12 157.271 214.12 155.667C214.12 154.064 213.708 152.634 212.885 151.377C212.083 150.121 210.989 149.135 209.602 148.42C208.237 147.683 206.688 147.315 204.955 147.315C203.222 147.315 201.662 147.683 200.275 148.42C198.888 149.135 197.794 150.121 196.992 151.377C196.191 152.634 195.79 154.064 195.79 155.667C195.79 157.271 196.18 158.701 196.96 159.957C197.74 161.214 198.823 162.2 200.21 162.915C201.597 163.63 203.178 163.987 204.955 163.987ZM276.605 170V150.565L260.583 124.5H270.17L281.025 142.44L291.783 124.5H301.11L285.088 150.63V170H276.605ZM313.141 177.475L306.284 174.777L329.651 117.675L336.509 120.372L313.141 177.475ZM370.466 170.975C367.021 170.975 363.825 170.379 360.879 169.187C357.954 167.974 355.408 166.295 353.241 164.15C351.075 162.005 349.395 159.492 348.204 156.61C347.012 153.728 346.416 150.608 346.416 147.25C346.416 143.87 347.012 140.739 348.204 137.857C349.395 134.976 351.075 132.462 353.241 130.317C355.408 128.172 357.954 126.504 360.879 125.312C363.825 124.121 367.021 123.525 370.466 123.525C373.89 123.525 377.064 124.132 379.989 125.345C382.914 126.558 385.46 128.248 387.626 130.415C389.793 132.582 391.483 135.106 392.696 137.987C393.91 140.847 394.516 143.935 394.516 147.25C394.516 150.608 393.91 153.728 392.696 156.61C391.483 159.492 389.793 162.005 387.626 164.15C385.46 166.295 382.914 167.974 379.989 169.187C377.064 170.379 373.89 170.975 370.466 170.975ZM370.466 163.012C372.611 163.012 374.605 162.644 376.446 161.907C378.31 161.149 379.924 160.087 381.289 158.722C382.675 157.336 383.748 155.678 384.506 153.75C385.286 151.8 385.676 149.633 385.676 147.25C385.676 144.065 385.005 141.292 383.661 138.93C382.318 136.568 380.498 134.737 378.201 133.437C375.905 132.137 373.326 131.487 370.466 131.487C368.3 131.487 366.295 131.856 364.454 132.592C362.612 133.329 360.998 134.391 359.611 135.777C358.246 137.164 357.174 138.822 356.394 140.75C355.635 142.678 355.256 144.845 355.256 147.25C355.256 150.435 355.917 153.208 357.239 155.57C358.582 157.932 360.402 159.762 362.699 161.062C364.995 162.362 367.585 163.012 370.466 163.012ZM459.083 170.975C454.36 170.975 450.221 170 446.668 168.05C443.115 166.1 440.352 163.359 438.381 159.827C436.409 156.274 435.423 152.103 435.423 147.315C435.423 143.827 435.997 140.642 437.146 137.76C438.316 134.857 439.962 132.343 442.086 130.22C444.231 128.075 446.744 126.428 449.626 125.28C452.529 124.11 455.714 123.525 459.181 123.525C462.756 123.525 465.811 123.98 468.346 124.89C470.881 125.778 473.134 127.046 475.106 128.692L470.783 135.615C469.396 134.293 467.771 133.318 465.908 132.69C464.066 132.04 462.019 131.715 459.766 131.715C457.361 131.715 455.205 132.072 453.298 132.787C451.391 133.502 449.766 134.542 448.423 135.907C447.08 137.251 446.051 138.876 445.336 140.782C444.621 142.689 444.263 144.834 444.263 147.217C444.263 150.489 444.902 153.284 446.181 155.602C447.459 157.899 449.279 159.665 451.641 160.9C454.002 162.135 456.808 162.752 460.058 162.752C462.246 162.752 464.381 162.417 466.461 161.745C468.562 161.073 470.545 160.001 472.408 158.527L476.308 165.645C474.141 167.335 471.628 168.646 468.768 169.577C465.93 170.509 462.701 170.975 459.083 170.975ZM513.657 170.975C510.212 170.975 507.016 170.379 504.069 169.187C501.144 167.974 498.598 166.295 496.432 164.15C494.265 162.005 492.586 159.492 491.394 156.61C490.202 153.728 489.607 150.608 489.607 147.25C489.607 143.87 490.202 140.739 491.394 137.857C492.586 134.976 494.265 132.462 496.432 130.317C498.598 128.172 501.144 126.504 504.069 125.312C507.016 124.121 510.212 123.525 513.657 123.525C517.08 123.525 520.254 124.132 523.179 125.345C526.104 126.558 528.65 128.248 530.817 130.415C532.983 132.582 534.673 135.106 535.887 137.987C537.1 140.847 537.707 143.935 537.707 147.25C537.707 150.608 537.1 153.728 535.887 156.61C534.673 159.492 532.983 162.005 530.817 164.15C528.65 166.295 526.104 167.974 523.179 169.187C520.254 170.379 517.08 170.975 513.657 170.975ZM513.657 163.012C515.802 163.012 517.795 162.644 519.637 161.907C521.5 161.149 523.114 160.087 524.479 158.722C525.866 157.336 526.938 155.678 527.697 153.75C528.477 151.8 528.867 149.633 528.867 147.25C528.867 144.065 528.195 141.292 526.852 138.93C525.508 136.568 523.688 134.737 521.392 133.437C519.095 132.137 516.517 131.487 513.657 131.487C511.49 131.487 509.486 131.856 507.644 132.592C505.802 133.329 504.188 134.391 502.802 135.777C501.437 137.164 500.364 138.822 499.584 140.75C498.826 142.678 498.447 144.845 498.447 147.25C498.447 150.435 499.107 153.208 500.429 155.57C501.772 157.932 503.592 159.762 505.889 161.062C508.186 162.362 510.775 163.012 513.657 163.012ZM556.076 170V124.5H570.766C575.337 124.5 579.378 125.464 582.888 127.392C586.398 129.321 589.139 131.997 591.111 135.42C593.082 138.843 594.068 142.797 594.068 147.282C594.068 150.619 593.505 153.685 592.378 156.48C591.252 159.253 589.648 161.647 587.568 163.662C585.51 165.677 583.051 167.237 580.191 168.342C577.352 169.447 574.211 170 570.766 170H556.076ZM564.526 162.135H569.986C572.261 162.135 574.33 161.799 576.193 161.127C578.057 160.456 579.66 159.481 581.003 158.202C582.368 156.924 583.408 155.364 584.123 153.522C584.86 151.681 585.228 149.601 585.228 147.282C585.228 144.141 584.589 141.465 583.311 139.255C582.054 137.023 580.277 135.322 577.981 134.152C575.706 132.961 573.041 132.365 569.986 132.365H564.526V162.135ZM612.481 170V124.5H642.738V131.91H620.931V142.927H639.586V149.85H620.931V162.525H642.966V170H612.481ZM662.539 170V124.5H680.154C683.382 124.5 686.188 125.052 688.571 126.157C690.954 127.241 692.796 128.801 694.096 130.837C695.396 132.874 696.046 135.301 696.046 138.117C696.046 140.371 695.58 142.353 694.649 144.065C693.717 145.777 692.428 147.196 690.781 148.322C689.156 149.449 687.271 150.24 685.126 150.695L698.354 170H688.214L676.449 152.19H670.989V170H662.539ZM670.989 145.267H678.919C681.627 145.267 683.739 144.704 685.256 143.577C686.773 142.429 687.531 140.761 687.531 138.572C687.531 136.297 686.838 134.564 685.451 133.372C684.064 132.181 682.028 131.585 679.341 131.585H670.989V145.267Z" fill="white"/>
<path opacity="0.9" d="M162.25 248.641C161.552 248.641 160.927 248.488 160.375 248.181C159.831 247.867 159.402 247.445 159.087 246.916C158.781 246.38 158.627 245.77 158.627 245.088C158.627 244.406 158.781 243.796 159.087 243.259C159.402 242.723 159.831 242.301 160.375 241.994C160.927 241.688 161.552 241.534 162.25 241.534C162.948 241.534 163.569 241.688 164.113 241.994C164.665 242.301 165.094 242.723 165.401 243.259C165.715 243.796 165.872 244.406 165.872 245.088C165.872 245.77 165.715 246.38 165.401 246.916C165.094 247.445 164.665 247.867 164.113 248.181C163.569 248.488 162.948 248.641 162.25 248.641ZM186.124 253L179.776 236.9H181.731L186.998 250.504L192.012 236.9H193.932L187.814 253H186.124ZM201.204 253.345C200.407 253.345 199.717 253.199 199.134 252.908C198.552 252.617 198.103 252.21 197.789 251.689C197.474 251.16 197.317 250.543 197.317 249.837C197.317 249.255 197.467 248.722 197.766 248.239C198.072 247.748 198.552 247.342 199.203 247.02C199.863 246.69 200.721 246.472 201.779 246.364C202.837 246.257 204.125 246.288 205.643 246.456L205.701 247.802C204.451 247.641 203.393 247.583 202.527 247.629C201.668 247.675 200.978 247.798 200.457 247.997C199.935 248.197 199.556 248.454 199.318 248.768C199.088 249.082 198.973 249.427 198.973 249.803C198.973 250.447 199.199 250.949 199.652 251.309C200.104 251.67 200.733 251.85 201.538 251.85C202.212 251.85 202.818 251.723 203.355 251.47C203.891 251.217 204.317 250.869 204.631 250.424C204.946 249.979 205.103 249.469 205.103 248.894V245.64C205.103 245.073 204.98 244.586 204.735 244.179C204.489 243.773 204.129 243.459 203.654 243.236C203.186 243.014 202.615 242.903 201.94 242.903C201.358 242.903 200.775 242.991 200.192 243.167C199.617 243.344 199.054 243.635 198.502 244.041L197.95 242.65C198.624 242.175 199.318 241.845 200.031 241.661C200.744 241.477 201.423 241.385 202.067 241.385C203.086 241.385 203.945 241.546 204.643 241.868C205.34 242.19 205.869 242.665 206.23 243.294C206.59 243.923 206.77 244.701 206.77 245.628V253H205.16V251.585C204.762 252.153 204.213 252.59 203.516 252.896C202.818 253.195 202.048 253.345 201.204 253.345ZM212.927 253V241.845H214.629V243.432C215.128 242.742 215.703 242.247 216.354 241.948C217.014 241.649 217.685 241.5 218.367 241.5C219.364 241.5 220.192 241.703 220.851 242.109C221.518 242.508 222.012 243.022 222.334 243.65C222.664 244.271 222.829 244.904 222.829 245.548V253H221.127V246.065C221.127 245.184 220.843 244.471 220.276 243.926C219.716 243.374 218.953 243.098 217.987 243.098C217.359 243.098 216.791 243.24 216.285 243.524C215.779 243.808 215.377 244.206 215.078 244.72C214.779 245.226 214.629 245.816 214.629 246.491V253H212.927ZM229.024 253V241.845H230.726V253H229.024ZM229.875 239.614C229.522 239.614 229.219 239.495 228.966 239.257C228.721 239.02 228.598 238.725 228.598 238.372C228.598 238.012 228.721 237.713 228.966 237.475C229.219 237.237 229.522 237.118 229.875 237.118C230.228 237.118 230.527 237.237 230.772 237.475C231.025 237.713 231.151 238.012 231.151 238.372C231.151 238.725 231.025 239.02 230.772 239.257C230.527 239.495 230.228 239.614 229.875 239.614ZM237.034 253V236.44H238.736V253H237.034ZM245.045 253V236.44H246.747V253H245.045ZM256.126 253.345C255.328 253.345 254.638 253.199 254.056 252.908C253.473 252.617 253.025 252.21 252.71 251.689C252.396 251.16 252.239 250.543 252.239 249.837C252.239 249.255 252.388 248.722 252.687 248.239C252.994 247.748 253.473 247.342 254.125 247.02C254.784 246.69 255.643 246.472 256.701 246.364C257.759 246.257 259.047 246.288 260.565 246.456L260.622 247.802C259.373 247.641 258.315 247.583 257.448 247.629C256.59 247.675 255.9 247.798 255.378 247.997C254.857 248.197 254.477 248.454 254.24 248.768C254.01 249.082 253.895 249.427 253.895 249.803C253.895 250.447 254.121 250.949 254.573 251.309C255.026 251.67 255.654 251.85 256.459 251.85C257.134 251.85 257.74 251.723 258.276 251.47C258.813 251.217 259.238 250.869 259.553 250.424C259.867 249.979 260.024 249.469 260.024 248.894V245.64C260.024 245.073 259.902 244.586 259.656 244.179C259.411 243.773 259.051 243.459 258.575 243.236C258.108 243.014 257.536 242.903 256.862 242.903C256.279 242.903 255.696 242.991 255.114 243.167C254.539 243.344 253.975 243.635 253.423 244.041L252.871 242.65C253.546 242.175 254.24 241.845 254.953 241.661C255.666 241.477 256.344 241.385 256.988 241.385C258.008 241.385 258.867 241.546 259.564 241.868C260.262 242.19 260.791 242.665 261.151 243.294C261.512 243.923 261.692 244.701 261.692 245.628V253H260.082V251.585C259.683 252.153 259.135 252.59 258.437 252.896C257.74 253.195 256.969 253.345 256.126 253.345ZM283.831 253.345C282.168 253.345 280.715 252.996 279.473 252.298C278.238 251.601 277.28 250.619 276.598 249.354C275.915 248.089 275.574 246.617 275.574 244.938C275.574 243.719 275.777 242.604 276.184 241.592C276.59 240.572 277.161 239.687 277.897 238.935C278.641 238.176 279.515 237.59 280.519 237.176C281.531 236.762 282.639 236.555 283.843 236.555C284.985 236.555 285.997 236.701 286.879 236.992C287.76 237.276 288.516 237.678 289.144 238.199L288.178 239.625C287.634 239.15 287.009 238.797 286.304 238.567C285.598 238.337 284.824 238.222 283.981 238.222C282.984 238.222 282.079 238.38 281.267 238.694C280.462 239.008 279.768 239.457 279.185 240.039C278.61 240.614 278.166 241.316 277.851 242.144C277.545 242.964 277.391 243.892 277.391 244.927C277.391 246.353 277.667 247.568 278.219 248.572C278.771 249.569 279.549 250.332 280.554 250.861C281.566 251.39 282.754 251.654 284.119 251.654C284.993 251.654 285.821 251.528 286.603 251.275C287.392 251.014 288.125 250.589 288.799 249.998L289.627 251.493C288.83 252.122 287.948 252.59 286.982 252.896C286.024 253.195 284.974 253.345 283.831 253.345ZM303.765 255.53V234.6H307.606V235.945H305.225V254.184H307.606V255.53H303.765ZM316.332 253L312.008 241.845H313.929L317.505 251.551H317.149L320.679 241.845H322.542L318.241 253H316.332ZM326.695 255.645L325.223 255.058L333.779 234.485L335.24 235.071L326.695 255.645ZM346.479 253.345C344.816 253.345 343.363 252.996 342.121 252.298C340.886 251.601 339.928 250.619 339.246 249.354C338.563 248.089 338.222 246.617 338.222 244.938C338.222 243.719 338.425 242.604 338.832 241.592C339.238 240.572 339.809 239.687 340.545 238.935C341.289 238.176 342.163 237.59 343.167 237.176C344.179 236.762 345.287 236.555 346.491 236.555C347.633 236.555 348.645 236.701 349.527 236.992C350.408 237.276 351.164 237.678 351.792 238.199L350.826 239.625C350.282 239.15 349.657 238.797 348.952 238.567C348.246 238.337 347.472 238.222 346.629 238.222C345.632 238.222 344.727 238.38 343.915 238.694C343.11 239.008 342.416 239.457 341.833 240.039C341.258 240.614 340.814 241.316 340.499 242.144C340.193 242.964 340.039 243.892 340.039 244.927C340.039 246.353 340.315 247.568 340.867 248.572C341.419 249.569 342.197 250.332 343.202 250.861C344.214 251.39 345.402 251.654 346.767 251.654C347.641 251.654 348.469 251.528 349.251 251.275C350.04 251.014 350.773 250.589 351.447 249.998L352.275 251.493C351.478 252.122 350.596 252.59 349.63 252.896C348.672 253.195 347.622 253.345 346.479 253.345ZM360.838 255.53H356.997V254.184H359.377V235.945H356.997V234.6H360.838V255.53ZM162.25 277.641C161.552 277.641 160.927 277.488 160.375 277.181C159.831 276.867 159.402 276.445 159.087 275.916C158.781 275.38 158.627 274.77 158.627 274.088C158.627 273.406 158.781 272.796 159.087 272.259C159.402 271.723 159.831 271.301 160.375 270.994C160.927 270.688 161.552 270.534 162.25 270.534C162.948 270.534 163.569 270.688 164.113 270.994C164.665 271.301 165.094 271.723 165.401 272.259C165.715 272.796 165.872 273.406 165.872 274.088C165.872 274.77 165.715 275.38 165.401 275.916C165.094 276.445 164.665 276.867 164.113 277.181C163.569 277.488 162.948 277.641 162.25 277.641ZM188.976 282.345C187.312 282.345 185.859 281.996 184.617 281.298C183.383 280.601 182.425 279.619 181.742 278.354C181.06 277.089 180.719 275.617 180.719 273.938C180.719 272.719 180.922 271.604 181.328 270.592C181.735 269.572 182.306 268.687 183.042 267.935C183.786 267.176 184.66 266.59 185.664 266.176C186.676 265.762 187.784 265.555 188.987 265.555C190.13 265.555 191.142 265.701 192.023 265.992C192.905 266.276 193.66 266.678 194.289 267.199L193.323 268.625C192.779 268.15 192.154 267.797 191.448 267.567C190.743 267.337 189.969 267.222 189.125 267.222C188.129 267.222 187.224 267.38 186.411 267.694C185.606 268.008 184.913 268.457 184.33 269.039C183.755 269.614 183.31 270.316 182.996 271.144C182.689 271.964 182.536 272.892 182.536 273.927C182.536 275.353 182.812 276.568 183.364 277.572C183.916 278.569 184.694 279.332 185.698 279.861C186.71 280.39 187.899 280.654 189.263 280.654C190.137 280.654 190.965 280.528 191.747 280.275C192.537 280.014 193.269 279.589 193.944 278.998L194.772 280.493C193.975 281.122 193.093 281.59 192.127 281.896C191.169 282.195 190.118 282.345 188.976 282.345ZM204.795 279.631V275.031H199.954V273.674H204.795V269.085H206.198V273.674H211.04V275.031H206.198V279.631H204.795ZM222.239 279.631V275.031H217.398V273.674H222.239V269.085H223.642V273.674H228.484V275.031H223.642V279.631H222.239ZM162.25 306.641C161.552 306.641 160.927 306.488 160.375 306.181C159.831 305.867 159.402 305.445 159.087 304.916C158.781 304.38 158.627 303.77 158.627 303.088C158.627 302.406 158.781 301.796 159.087 301.259C159.402 300.723 159.831 300.301 160.375 299.994C160.927 299.688 161.552 299.534 162.25 299.534C162.948 299.534 163.569 299.688 164.113 299.994C164.665 300.301 165.094 300.723 165.401 301.259C165.715 301.796 165.872 302.406 165.872 303.088C165.872 303.77 165.715 304.38 165.401 304.916C165.094 305.445 164.665 305.867 164.113 306.181C163.569 306.488 162.948 306.641 162.25 306.641ZM181.731 311V294.9H183.479V301.581H192.242V294.9H193.99V311H192.242V303.203H183.479V311H181.731ZM204.169 311V296.51H199.488V294.9H210.597V296.51H205.917V311H204.169ZM216.103 311V294.9H217.805L224.67 305.94L224.015 305.951L230.685 294.9H232.329V311H230.593L230.604 297.361L230.972 297.476L224.946 307.239H223.509L217.425 297.476L217.69 297.361L217.701 311H216.103ZM239.319 311V294.9H241.067V309.378H248.45V311H239.319ZM257.885 311.345C256.935 311.345 256.015 311.211 255.125 310.942C254.236 310.666 253.504 310.306 252.929 309.861L253.596 308.366C254.132 308.796 254.78 309.133 255.539 309.378C256.298 309.616 257.05 309.735 257.793 309.735C258.652 309.735 259.396 309.585 260.024 309.286C260.661 308.987 261.147 308.562 261.485 308.01C261.83 307.458 262.002 306.799 262.002 306.032C262.002 305.311 261.818 304.69 261.45 304.169C261.09 303.648 260.592 303.249 259.955 302.973C259.327 302.689 258.617 302.547 257.828 302.547C257.337 302.547 256.827 302.609 256.298 302.731C255.769 302.846 255.233 303.023 254.688 303.26L253.952 302.513L254.78 294.934L263.382 294.9V296.487H256.08L255.505 301.604C255.98 301.428 256.452 301.298 256.919 301.213C257.395 301.121 257.858 301.075 258.311 301.075C259.338 301.075 260.262 301.275 261.082 301.673C261.91 302.064 262.566 302.636 263.049 303.387C263.539 304.131 263.785 305.024 263.785 306.066C263.785 307.132 263.532 308.064 263.026 308.861C262.527 309.651 261.834 310.264 260.944 310.701C260.063 311.13 259.043 311.345 257.885 311.345ZM282.874 308.631V304.031H278.032V302.674H282.874V298.085H284.277V302.674H289.118V304.031H284.277V308.631H282.874ZM311.436 311.345C309.772 311.345 308.319 310.996 307.077 310.298C305.843 309.601 304.885 308.619 304.202 307.354C303.52 306.089 303.179 304.617 303.179 302.938C303.179 301.719 303.382 300.604 303.788 299.592C304.195 298.572 304.766 297.687 305.502 296.935C306.245 296.176 307.119 295.59 308.124 295.176C309.136 294.762 310.244 294.555 311.447 294.555C312.59 294.555 313.602 294.701 314.483 294.992C315.365 295.276 316.12 295.678 316.749 296.199L315.783 297.625C315.238 297.15 314.614 296.797 313.908 296.567C313.203 296.337 312.429 296.222 311.585 296.222C310.589 296.222 309.684 296.38 308.871 296.694C308.066 297.008 307.372 297.457 306.79 298.039C306.215 298.614 305.77 299.316 305.456 300.144C305.149 300.964 304.996 301.892 304.996 302.927C304.996 304.353 305.272 305.568 305.824 306.572C306.376 307.569 307.154 308.332 308.158 308.861C309.17 309.39 310.359 309.654 311.723 309.654C312.597 309.654 313.425 309.528 314.207 309.275C314.997 309.014 315.729 308.589 316.404 307.998L317.232 309.493C316.434 310.122 315.553 310.59 314.587 310.896C313.628 311.195 312.578 311.345 311.436 311.345ZM327.715 311.345C326.672 311.345 325.653 311.203 324.656 310.919C323.659 310.628 322.82 310.21 322.137 309.666L323.046 308.274C323.452 308.596 323.905 308.869 324.403 309.091C324.909 309.313 325.442 309.482 326.001 309.597C326.569 309.712 327.148 309.769 327.738 309.769C328.965 309.769 329.95 309.528 330.693 309.045C331.437 308.554 331.809 307.837 331.809 306.894C331.809 306.212 331.564 305.633 331.073 305.158C330.582 304.683 329.67 304.249 328.336 303.858L326.496 303.318C325.062 302.896 324.012 302.348 323.345 301.673C322.678 300.999 322.344 300.144 322.344 299.109C322.344 298.404 322.482 297.775 322.758 297.223C323.034 296.663 323.422 296.184 323.92 295.785C324.426 295.387 325.024 295.084 325.714 294.877C326.404 294.662 327.163 294.555 327.991 294.555C328.988 294.555 329.911 294.701 330.762 294.992C331.613 295.283 332.326 295.667 332.901 296.142L331.958 297.476C331.606 297.185 331.203 296.939 330.751 296.74C330.306 296.533 329.831 296.376 329.325 296.268C328.819 296.161 328.305 296.107 327.784 296.107C327.04 296.107 326.381 296.219 325.806 296.441C325.239 296.663 324.794 296.989 324.472 297.418C324.15 297.848 323.989 298.377 323.989 299.005C323.989 299.442 324.089 299.83 324.288 300.167C324.495 300.497 324.848 300.799 325.346 301.075C325.844 301.344 326.538 301.608 327.427 301.869L329.405 302.455C330.793 302.862 331.817 303.406 332.476 304.088C333.135 304.763 333.465 305.649 333.465 306.745C333.465 307.657 333.243 308.458 332.798 309.148C332.361 309.838 331.713 310.379 330.854 310.77C329.996 311.153 328.949 311.345 327.715 311.345ZM344.508 311.345C343.465 311.345 342.445 311.203 341.449 310.919C340.452 310.628 339.612 310.21 338.93 309.666L339.839 308.274C340.245 308.596 340.697 308.869 341.196 309.091C341.702 309.313 342.234 309.482 342.794 309.597C343.361 309.712 343.94 309.769 344.531 309.769C345.757 309.769 346.742 309.528 347.486 309.045C348.23 308.554 348.602 307.837 348.602 306.894C348.602 306.212 348.356 305.633 347.866 305.158C347.375 304.683 346.463 304.249 345.129 303.858L343.289 303.318C341.855 302.896 340.805 302.348 340.138 301.673C339.471 300.999 339.137 300.144 339.137 299.109C339.137 298.404 339.275 297.775 339.551 297.223C339.827 296.663 340.214 296.184 340.713 295.785C341.219 295.387 341.817 295.084 342.507 294.877C343.197 294.662 343.956 294.555 344.784 294.555C345.78 294.555 346.704 294.701 347.555 294.992C348.406 295.283 349.119 295.667 349.694 296.142L348.751 297.476C348.398 297.185 347.996 296.939 347.544 296.74C347.099 296.533 346.624 296.376 346.118 296.268C345.612 296.161 345.098 296.107 344.577 296.107C343.833 296.107 343.174 296.219 342.599 296.441C342.031 296.663 341.587 296.989 341.265 297.418C340.943 297.848 340.782 298.377 340.782 299.005C340.782 299.442 340.881 299.83 341.081 300.167C341.288 300.497 341.64 300.799 342.139 301.075C342.637 301.344 343.331 301.608 344.22 301.869L346.198 302.455C347.586 302.862 348.609 303.406 349.269 304.088C349.928 304.763 350.258 305.649 350.258 306.745C350.258 307.657 350.035 308.458 349.591 309.148C349.154 309.838 348.506 310.379 347.647 310.77C346.788 311.153 345.742 311.345 344.508 311.345ZM360.104 311.345C359.468 311.345 358.839 311.28 358.218 311.149C357.605 311.027 357.03 310.854 356.493 310.632C355.964 310.41 355.52 310.153 355.159 309.861L355.838 308.343C356.359 308.765 356.999 309.102 357.758 309.355C358.525 309.608 359.276 309.735 360.012 309.735C360.848 309.735 361.572 309.593 362.186 309.309C362.799 309.026 363.271 308.623 363.6 308.102C363.938 307.581 364.106 306.963 364.106 306.25C364.106 305.177 363.715 304.341 362.933 303.743C362.159 303.145 361.116 302.846 359.805 302.846C359.506 302.846 359.196 302.866 358.874 302.904C358.552 302.942 358.222 302.996 357.885 303.065L357.31 301.846L362.899 296.452H355.251V294.9H365.153V296.326L359.736 301.581C360.825 301.52 361.837 301.654 362.772 301.984C363.708 302.314 364.459 302.839 365.026 303.559C365.594 304.272 365.877 305.185 365.877 306.296C365.877 307.308 365.632 308.194 365.141 308.953C364.651 309.712 363.968 310.302 363.094 310.724C362.228 311.138 361.231 311.345 360.104 311.345ZM385.082 308.631V304.031H380.24V302.674H385.082V298.085H386.485V302.674H391.326V304.031H386.485V308.631H385.082ZM406.64 313.53V292.6H410.481V293.945H408.101V312.184H410.481V313.53H406.64ZM418.437 311.345C417.816 311.345 417.218 311.264 416.643 311.103C416.068 310.95 415.505 310.724 414.953 310.425L415.608 308.953C416.022 309.198 416.448 309.39 416.885 309.528C417.329 309.658 417.786 309.723 418.253 309.723C419.357 309.723 420.193 309.478 420.76 308.987C421.335 308.489 421.623 307.673 421.623 306.538V294.9H423.371V306.71C423.371 307.661 423.179 308.485 422.796 309.183C422.42 309.873 421.864 310.406 421.128 310.781C420.392 311.157 419.495 311.345 418.437 311.345ZM435.328 311.345C434.285 311.345 433.266 311.203 432.269 310.919C431.272 310.628 430.433 310.21 429.75 309.666L430.659 308.274C431.065 308.596 431.518 308.869 432.016 309.091C432.522 309.313 433.055 309.482 433.614 309.597C434.182 309.712 434.761 309.769 435.351 309.769C436.578 309.769 437.563 309.528 438.306 309.045C439.05 308.554 439.422 307.837 439.422 306.894C439.422 306.212 439.177 305.633 438.686 305.158C438.195 304.683 437.283 304.249 435.949 303.858L434.109 303.318C432.675 302.896 431.625 302.348 430.958 301.673C430.291 300.999 429.957 300.144 429.957 299.109C429.957 298.404 430.095 297.775 430.371 297.223C430.647 296.663 431.035 296.184 431.533 295.785C432.039 295.387 432.637 295.084 433.327 294.877C434.017 294.662 434.776 294.555 435.604 294.555C436.601 294.555 437.524 294.701 438.375 294.992C439.226 295.283 439.939 295.667 440.514 296.142L439.571 297.476C439.219 297.185 438.816 296.939 438.364 296.74C437.919 296.533 437.444 296.376 436.938 296.268C436.432 296.161 435.918 296.107 435.397 296.107C434.653 296.107 433.994 296.219 433.419 296.441C432.852 296.663 432.407 296.989 432.085 297.418C431.763 297.848 431.602 298.377 431.602 299.005C431.602 299.442 431.702 299.83 431.901 300.167C432.108 300.497 432.461 300.799 432.959 301.075C433.457 301.344 434.151 301.608 435.04 301.869L437.018 302.455C438.406 302.862 439.43 303.406 440.089 304.088C440.748 304.763 441.078 305.649 441.078 306.745C441.078 307.657 440.856 308.458 440.411 309.148C439.974 309.838 439.326 310.379 438.467 310.77C437.609 311.153 436.562 311.345 435.328 311.345ZM450.2 313.53H446.359V312.184H448.74V293.945H446.359V292.6H450.2V313.53ZM162.25 335.641C161.552 335.641 160.927 335.488 160.375 335.181C159.831 334.867 159.402 334.445 159.087 333.916C158.781 333.38 158.627 332.77 158.627 332.088C158.627 331.406 158.781 330.796 159.087 330.259C159.402 329.723 159.831 329.301 160.375 328.994C160.927 328.688 161.552 328.534 162.25 328.534C162.948 328.534 163.569 328.688 164.113 328.994C164.665 329.301 165.094 329.723 165.401 330.259C165.715 330.796 165.872 331.406 165.872 332.088C165.872 332.77 165.715 333.38 165.401 333.916C165.094 334.445 164.665 334.867 164.113 335.181C163.569 335.488 162.948 335.641 162.25 335.641ZM181.731 340V323.9H186.779C188.259 323.9 189.463 324.245 190.39 324.935C191.318 325.617 191.782 326.622 191.782 327.948C191.782 328.477 191.648 328.983 191.379 329.466C191.111 329.949 190.774 330.371 190.367 330.731C189.961 331.091 189.547 331.34 189.125 331.478C190.015 331.731 190.766 332.214 191.379 332.927C192 333.633 192.311 334.526 192.311 335.607C192.311 336.443 192.1 337.194 191.678 337.861C191.257 338.52 190.655 339.042 189.873 339.425C189.099 339.808 188.179 340 187.113 340H181.731ZM183.479 338.493H186.745C188.033 338.493 188.987 338.248 189.608 337.757C190.229 337.267 190.54 336.512 190.54 335.492C190.54 334.488 190.218 333.729 189.574 333.215C188.938 332.694 187.945 332.433 186.595 332.433H183.479V338.493ZM183.479 330.961H186.457C187.186 330.961 187.818 330.846 188.355 330.616C188.892 330.386 189.309 330.056 189.608 329.627C189.907 329.19 190.057 328.669 190.057 328.063C190.057 327.204 189.743 326.549 189.114 326.096C188.485 325.636 187.592 325.406 186.434 325.406H183.479V330.961ZM196.604 340L203.01 323.9H204.712L211.359 340H209.392L207.667 335.779H200.158L198.513 340H196.604ZM200.698 334.204H207.104L203.815 326.223L200.698 334.204ZM221.464 340.345C220.421 340.345 219.402 340.203 218.405 339.919C217.408 339.628 216.569 339.21 215.886 338.666L216.795 337.274C217.201 337.596 217.654 337.869 218.152 338.091C218.658 338.313 219.191 338.482 219.75 338.597C220.318 338.712 220.897 338.769 221.487 338.769C222.714 338.769 223.699 338.528 224.442 338.045C225.186 337.554 225.558 336.837 225.558 335.894C225.558 335.212 225.313 334.633 224.822 334.158C224.331 333.683 223.419 333.249 222.085 332.858L220.245 332.318C218.811 331.896 217.761 331.348 217.094 330.673C216.427 329.999 216.093 329.144 216.093 328.109C216.093 327.404 216.231 326.775 216.507 326.223C216.783 325.663 217.171 325.184 217.669 324.785C218.175 324.387 218.773 324.084 219.463 323.877C220.153 323.662 220.912 323.555 221.74 323.555C222.737 323.555 223.66 323.701 224.511 323.992C225.362 324.283 226.075 324.667 226.65 325.142L225.707 326.476C225.355 326.185 224.952 325.939 224.5 325.74C224.055 325.533 223.58 325.376 223.074 325.268C222.568 325.161 222.054 325.107 221.533 325.107C220.789 325.107 220.13 325.219 219.555 325.441C218.988 325.663 218.543 325.989 218.221 326.418C217.899 326.848 217.738 327.377 217.738 328.005C217.738 328.442 217.838 328.83 218.037 329.167C218.244 329.497 218.597 329.799 219.095 330.075C219.593 330.344 220.287 330.608 221.176 330.869L223.154 331.455C224.542 331.862 225.566 332.406 226.225 333.088C226.884 333.763 227.214 334.649 227.214 335.745C227.214 336.657 226.992 337.458 226.547 338.148C226.11 338.838 225.462 339.379 224.603 339.77C223.745 340.153 222.698 340.345 221.464 340.345ZM233.277 340V323.9H235.025V330.581H243.788V323.9H245.536V340H243.788V332.203H235.025V340H233.277Z" fill="white"/>
<path opacity="0.9" d="M567.25 248.641C566.552 248.641 565.927 248.488 565.375 248.181C564.831 247.867 564.402 247.445 564.087 246.916C563.781 246.38 563.627 245.77 563.627 245.088C563.627 244.406 563.781 243.796 564.087 243.259C564.402 242.723 564.831 242.301 565.375 241.994C565.927 241.688 566.552 241.534 567.25 241.534C567.948 241.534 568.569 241.688 569.113 241.994C569.665 242.301 570.094 242.723 570.401 243.259C570.715 243.796 570.872 244.406 570.872 245.088C570.872 245.77 570.715 246.38 570.401 246.916C570.094 247.445 569.665 247.867 569.113 248.181C568.569 248.488 567.948 248.641 567.25 248.641ZM586.731 253V236.9H588.318L597.437 249.814V236.9H599.162V253H597.575L588.456 239.947V253H586.731ZM606.152 253V236.9H615.938V238.487H607.9V243.742H614.972V245.283H607.9V251.401H616.007V253H606.152ZM629.811 253.345C628.622 253.345 627.515 253.134 626.487 252.712C625.468 252.283 624.578 251.689 623.819 250.93C623.068 250.171 622.478 249.282 622.048 248.262C621.627 247.242 621.416 246.138 621.416 244.95C621.416 243.754 621.627 242.646 622.048 241.626C622.478 240.607 623.068 239.717 623.819 238.958C624.578 238.199 625.468 237.609 626.487 237.187C627.515 236.766 628.622 236.555 629.811 236.555C630.991 236.555 632.092 236.77 633.111 237.199C634.131 237.628 635.02 238.226 635.779 238.993C636.538 239.76 637.129 240.653 637.55 241.672C637.98 242.684 638.194 243.777 638.194 244.95C638.194 246.138 637.98 247.242 637.55 248.262C637.129 249.282 636.538 250.171 635.779 250.93C635.02 251.689 634.131 252.283 633.111 252.712C632.092 253.134 630.991 253.345 629.811 253.345ZM629.811 251.677C630.723 251.677 631.578 251.52 632.375 251.206C633.173 250.884 633.87 250.428 634.468 249.837C635.066 249.239 635.534 248.53 635.871 247.71C636.209 246.882 636.377 245.962 636.377 244.95C636.377 243.601 636.082 242.424 635.492 241.419C634.909 240.407 634.119 239.622 633.123 239.062C632.134 238.502 631.03 238.222 629.811 238.222C628.898 238.222 628.044 238.383 627.246 238.705C626.449 239.02 625.751 239.472 625.153 240.062C624.555 240.653 624.084 241.362 623.739 242.19C623.401 243.01 623.233 243.93 623.233 244.95C623.233 246.299 623.528 247.48 624.118 248.492C624.709 249.496 625.498 250.278 626.487 250.838C627.484 251.398 628.592 251.677 629.811 251.677ZM648.24 253L641.892 236.9H643.847L649.114 250.504L654.128 236.9H656.049L649.931 253H648.24ZM661.067 253V236.9H662.815V253H661.067ZM669.796 253V236.9H671.498L678.364 247.94L677.708 247.951L684.378 236.9H686.023V253H684.286L684.298 239.361L684.666 239.476L678.64 249.239H677.202L671.119 239.476L671.383 239.361L671.395 253H669.796ZM701.474 255.53V234.6H702.946V255.53H701.474ZM722.785 253L716.437 236.9H718.392L723.659 250.504L728.673 236.9H730.593L724.475 253H722.785ZM735.611 253V236.9H737.359V253H735.611ZM744.34 253V236.9H746.042L752.908 247.94L752.252 247.951L758.922 236.9H760.567V253H758.83L758.842 239.361L759.21 239.476L753.184 249.239H751.746L745.663 239.476L745.927 239.361L745.939 253H744.34ZM567.25 277.641C566.552 277.641 565.927 277.488 565.375 277.181C564.831 276.867 564.402 276.445 564.087 275.916C563.781 275.38 563.627 274.77 563.627 274.088C563.627 273.406 563.781 272.796 564.087 272.259C564.402 271.723 564.831 271.301 565.375 270.994C565.927 270.688 566.552 270.534 567.25 270.534C567.948 270.534 568.569 270.688 569.113 270.994C569.665 271.301 570.094 271.723 570.401 272.259C570.715 272.796 570.872 273.406 570.872 274.088C570.872 274.77 570.715 275.38 570.401 275.916C570.094 276.445 569.665 276.867 569.113 277.181C568.569 277.488 567.948 277.641 567.25 277.641ZM591.124 282L584.776 265.9H586.731L591.998 279.504L597.012 265.9H598.932L592.814 282H591.124ZM608.93 282.345C607.887 282.345 606.868 282.203 605.871 281.919C604.874 281.628 604.035 281.21 603.352 280.666L604.261 279.274C604.667 279.596 605.12 279.869 605.618 280.091C606.124 280.313 606.657 280.482 607.216 280.597C607.784 280.712 608.363 280.769 608.953 280.769C610.18 280.769 611.165 280.528 611.908 280.045C612.652 279.554 613.024 278.837 613.024 277.894C613.024 277.212 612.779 276.633 612.288 276.158C611.797 275.683 610.885 275.249 609.551 274.858L607.711 274.318C606.277 273.896 605.227 273.348 604.56 272.673C603.893 271.999 603.559 271.144 603.559 270.109C603.559 269.404 603.697 268.775 603.973 268.223C604.249 267.663 604.637 267.184 605.135 266.785C605.641 266.387 606.239 266.084 606.929 265.877C607.619 265.662 608.378 265.555 609.206 265.555C610.203 265.555 611.126 265.701 611.977 265.992C612.828 266.283 613.541 266.667 614.116 267.142L613.173 268.476C612.821 268.185 612.418 267.939 611.966 267.74C611.521 267.533 611.046 267.376 610.54 267.268C610.034 267.161 609.52 267.107 608.999 267.107C608.255 267.107 607.596 267.219 607.021 267.441C606.454 267.663 606.009 267.989 605.687 268.418C605.365 268.848 605.204 269.377 605.204 270.005C605.204 270.442 605.304 270.83 605.503 271.167C605.71 271.497 606.063 271.799 606.561 272.075C607.059 272.344 607.753 272.608 608.642 272.869L610.62 273.455C612.008 273.862 613.032 274.406 613.691 275.088C614.35 275.763 614.68 276.649 614.68 277.745C614.68 278.657 614.458 279.458 614.013 280.148C613.576 280.838 612.928 281.379 612.069 281.77C611.211 282.153 610.164 282.345 608.93 282.345ZM627.988 282.345C626.324 282.345 624.872 281.996 623.63 281.298C622.395 280.601 621.437 279.619 620.755 278.354C620.072 277.089 619.731 275.617 619.731 273.938C619.731 272.719 619.934 271.604 620.341 270.592C620.747 269.572 621.318 268.687 622.054 267.935C622.798 267.176 623.672 266.59 624.676 266.176C625.688 265.762 626.796 265.555 628 265.555C629.142 265.555 630.154 265.701 631.036 265.992C631.917 266.276 632.672 266.678 633.301 267.199L632.335 268.625C631.791 268.15 631.166 267.797 630.461 267.567C629.755 267.337 628.981 267.222 628.138 267.222C627.141 267.222 626.236 267.38 625.424 267.694C624.619 268.008 623.925 268.457 623.342 269.039C622.767 269.614 622.322 270.316 622.008 271.144C621.701 271.964 621.548 272.892 621.548 273.927C621.548 275.353 621.824 276.568 622.376 277.572C622.928 278.569 623.706 279.332 624.711 279.861C625.723 280.39 626.911 280.654 628.276 280.654C629.15 280.654 629.978 280.528 630.76 280.275C631.549 280.014 632.281 279.589 632.956 278.998L633.784 280.493C632.987 281.122 632.105 281.59 631.139 281.896C630.181 282.195 629.13 282.345 627.988 282.345ZM567.25 306.641C566.552 306.641 565.927 306.488 565.375 306.181C564.831 305.867 564.402 305.445 564.087 304.916C563.781 304.38 563.627 303.77 563.627 303.088C563.627 302.406 563.781 301.796 564.087 301.259C564.402 300.723 564.831 300.301 565.375 299.994C565.927 299.688 566.552 299.534 567.25 299.534C567.948 299.534 568.569 299.688 569.113 299.994C569.665 300.301 570.094 300.723 570.401 301.259C570.715 301.796 570.872 302.406 570.872 303.088C570.872 303.77 570.715 304.38 570.401 304.916C570.094 305.445 569.665 305.867 569.113 306.181C568.569 306.488 567.948 306.641 567.25 306.641ZM586.731 311V294.9H588.318L597.437 307.814V294.9H599.162V311H597.575L588.456 297.947V311H586.731ZM604.277 311L610.683 294.9H612.385L619.032 311H617.065L615.34 306.779H607.831L606.186 311H604.277ZM608.371 305.204H614.777L611.488 297.223L608.371 305.204ZM624.157 311V294.9H625.744L634.864 307.814V294.9H636.589V311H635.002L625.882 297.947V311H624.157ZM650.961 311.345C649.772 311.345 648.665 311.134 647.637 310.712C646.618 310.283 645.728 309.689 644.969 308.93C644.218 308.171 643.628 307.282 643.198 306.262C642.777 305.242 642.566 304.138 642.566 302.95C642.566 301.754 642.777 300.646 643.198 299.626C643.628 298.607 644.218 297.717 644.969 296.958C645.728 296.199 646.618 295.609 647.637 295.187C648.665 294.766 649.772 294.555 650.961 294.555C652.141 294.555 653.242 294.77 654.261 295.199C655.281 295.628 656.17 296.226 656.929 296.993C657.688 297.76 658.279 298.653 658.7 299.672C659.13 300.684 659.344 301.777 659.344 302.95C659.344 304.138 659.13 305.242 658.7 306.262C658.279 307.282 657.688 308.171 656.929 308.93C656.17 309.689 655.281 310.283 654.261 310.712C653.242 311.134 652.141 311.345 650.961 311.345ZM650.961 309.677C651.873 309.677 652.728 309.52 653.525 309.206C654.323 308.884 655.02 308.428 655.618 307.837C656.216 307.239 656.684 306.53 657.021 305.71C657.359 304.882 657.527 303.962 657.527 302.95C657.527 301.601 657.232 300.424 656.642 299.419C656.059 298.407 655.269 297.622 654.273 297.062C653.284 296.502 652.18 296.222 650.961 296.222C650.048 296.222 649.194 296.383 648.396 296.705C647.599 297.02 646.901 297.472 646.303 298.062C645.705 298.653 645.234 299.362 644.889 300.19C644.551 301.01 644.383 301.93 644.383 302.95C644.383 304.299 644.678 305.48 645.268 306.492C645.859 307.496 646.648 308.278 647.637 308.838C648.634 309.398 649.742 309.677 650.961 309.677Z" fill="white"/>
<path d="M894 29V477" stroke="#FFFDFD" stroke-opacity="0.33"/>
<g clip-path="url(#clip1_388_270)">
<path d="M1192.84 246.699V245.853L1194.67 244.167C1195.25 243.631 1195.72 243.165 1196.09 242.769C1196.45 242.369 1196.72 242.005 1196.89 241.677C1197.06 241.345 1197.15 241.011 1197.15 240.675C1197.15 240.187 1196.98 239.803 1196.64 239.523C1196.3 239.243 1195.84 239.103 1195.24 239.103C1194.87 239.103 1194.52 239.165 1194.17 239.289C1193.83 239.413 1193.54 239.593 1193.31 239.829L1192.88 239.001C1193.21 238.713 1193.59 238.495 1194.01 238.347C1194.44 238.195 1194.89 238.119 1195.37 238.119C1195.94 238.119 1196.43 238.221 1196.86 238.425C1197.29 238.625 1197.62 238.911 1197.86 239.283C1198.1 239.651 1198.22 240.085 1198.22 240.585C1198.22 240.933 1198.15 241.283 1198.01 241.635C1197.87 241.987 1197.62 242.383 1197.26 242.823C1196.9 243.259 1196.4 243.783 1195.74 244.395L1194.3 245.721H1198.43V246.699H1192.84ZM1203.21 246.879C1202.69 246.879 1202.21 246.765 1201.79 246.537C1201.37 246.309 1201.01 245.993 1200.71 245.589C1200.42 245.185 1200.2 244.719 1200.04 244.191C1199.88 243.663 1199.81 243.099 1199.81 242.499C1199.81 241.895 1199.88 241.329 1200.04 240.801C1200.2 240.273 1200.42 239.809 1200.71 239.409C1201.01 239.005 1201.37 238.689 1201.79 238.461C1202.21 238.233 1202.69 238.119 1203.21 238.119C1203.74 238.119 1204.21 238.233 1204.63 238.461C1205.05 238.689 1205.41 239.005 1205.7 239.409C1206 239.809 1206.23 240.273 1206.38 240.801C1206.54 241.329 1206.62 241.895 1206.62 242.499C1206.62 243.099 1206.54 243.663 1206.38 244.191C1206.23 244.719 1206 245.185 1205.7 245.589C1205.41 245.993 1205.05 246.309 1204.63 246.537C1204.21 246.765 1203.74 246.879 1203.21 246.879ZM1203.21 245.859C1203.55 245.859 1203.86 245.783 1204.14 245.631C1204.42 245.475 1204.66 245.251 1204.86 244.959C1205.06 244.667 1205.22 244.315 1205.33 243.903C1205.44 243.487 1205.49 243.019 1205.49 242.499C1205.49 241.807 1205.4 241.209 1205.21 240.705C1205.01 240.201 1204.75 239.813 1204.4 239.541C1204.06 239.269 1203.67 239.133 1203.21 239.133C1202.87 239.133 1202.56 239.211 1202.28 239.367C1202 239.523 1201.76 239.747 1201.56 240.039C1201.36 240.331 1201.2 240.685 1201.1 241.101C1200.99 241.513 1200.93 241.979 1200.93 242.499C1200.93 243.191 1201.03 243.789 1201.22 244.293C1201.41 244.797 1201.67 245.185 1202.01 245.457C1202.36 245.725 1202.76 245.859 1203.21 245.859Z" fill="#D7DAF9"/>
<path d="M1236.97 247.301L1202.5 222.26L1168.03 247.301L1181.2 287.819H1223.8L1236.97 247.301Z" stroke="#D7DAF9" stroke-linejoin="round"/>
<path d="M1196.55 211.66V209.884H1192.31V209.014L1195.43 203.26H1196.61L1193.51 208.924H1196.55V206.986H1197.55V208.924H1198.9V209.884H1197.55V211.66H1196.55ZM1203.36 211.84C1202.83 211.84 1202.35 211.726 1201.93 211.498C1201.51 211.27 1201.15 210.954 1200.85 210.55C1200.56 210.146 1200.34 209.68 1200.18 209.152C1200.03 208.624 1199.95 208.06 1199.95 207.46C1199.95 206.856 1200.03 206.29 1200.18 205.762C1200.34 205.234 1200.56 204.77 1200.85 204.37C1201.15 203.966 1201.51 203.65 1201.93 203.422C1202.35 203.194 1202.83 203.08 1203.36 203.08C1203.88 203.08 1204.35 203.194 1204.77 203.422C1205.19 203.65 1205.55 203.966 1205.85 204.37C1206.14 204.77 1206.37 205.234 1206.52 205.762C1206.68 206.29 1206.76 206.856 1206.76 207.46C1206.76 208.06 1206.68 208.624 1206.52 209.152C1206.37 209.68 1206.14 210.146 1205.85 210.55C1205.55 210.954 1205.19 211.27 1204.77 211.498C1204.35 211.726 1203.88 211.84 1203.36 211.84ZM1203.36 210.82C1203.7 210.82 1204 210.744 1204.28 210.592C1204.56 210.436 1204.8 210.212 1205 209.92C1205.2 209.628 1205.36 209.276 1205.47 208.864C1205.58 208.448 1205.64 207.98 1205.64 207.46C1205.64 206.768 1205.54 206.17 1205.35 205.666C1205.16 205.162 1204.89 204.774 1204.54 204.502C1204.2 204.23 1203.81 204.094 1203.36 204.094C1203.02 204.094 1202.71 204.172 1202.43 204.328C1202.15 204.484 1201.9 204.708 1201.7 205C1201.5 205.292 1201.35 205.646 1201.24 206.062C1201.13 206.474 1201.08 206.94 1201.08 207.46C1201.08 208.152 1201.17 208.75 1201.36 209.254C1201.55 209.758 1201.82 210.146 1202.16 210.418C1202.5 210.686 1202.9 210.82 1203.36 210.82Z" fill="#D7DAF9"/>
<path d="M1271.43 236.102L1202.5 186.02L1133.57 236.102L1159.9 317.138H1245.1L1271.43 236.102Z" stroke="#D7DAF9" stroke-linejoin="round"/>
<path d="M1196.04 175.55C1195.42 175.55 1194.86 175.416 1194.38 175.148C1193.89 174.876 1193.51 174.484 1193.24 173.972C1192.96 173.456 1192.82 172.832 1192.82 172.1C1192.82 171.392 1192.95 170.74 1193.21 170.144C1193.47 169.544 1193.84 169.012 1194.31 168.548C1194.78 168.084 1195.34 167.704 1195.97 167.408C1196.6 167.108 1197.29 166.902 1198.04 166.79L1198.43 167.678C1197.79 167.742 1197.21 167.878 1196.71 168.086C1196.22 168.294 1195.79 168.554 1195.43 168.866C1195.08 169.178 1194.8 169.524 1194.58 169.904C1194.37 170.28 1194.21 170.672 1194.12 171.08C1194.35 170.744 1194.66 170.478 1195.03 170.282C1195.41 170.082 1195.82 169.982 1196.27 169.982C1196.81 169.982 1197.29 170.096 1197.73 170.324C1198.16 170.552 1198.51 170.868 1198.76 171.272C1199.01 171.676 1199.14 172.142 1199.14 172.67C1199.14 173.074 1199.06 173.452 1198.91 173.804C1198.76 174.152 1198.54 174.456 1198.27 174.716C1197.99 174.976 1197.66 175.18 1197.28 175.328C1196.91 175.476 1196.49 175.55 1196.04 175.55ZM1196.04 174.56C1196.42 174.56 1196.76 174.484 1197.06 174.332C1197.36 174.176 1197.6 173.962 1197.77 173.69C1197.94 173.418 1198.03 173.106 1198.03 172.754C1198.03 172.41 1197.94 172.102 1197.76 171.83C1197.59 171.558 1197.35 171.342 1197.05 171.182C1196.75 171.022 1196.41 170.942 1196.04 170.942C1195.66 170.942 1195.33 171.022 1195.03 171.182C1194.73 171.342 1194.49 171.558 1194.32 171.83C1194.14 172.102 1194.05 172.41 1194.05 172.754C1194.05 173.106 1194.14 173.418 1194.31 173.69C1194.48 173.962 1194.71 174.176 1195.01 174.332C1195.31 174.484 1195.65 174.56 1196.04 174.56ZM1203.81 175.55C1203.28 175.55 1202.81 175.436 1202.38 175.208C1201.96 174.98 1201.61 174.664 1201.31 174.26C1201.02 173.856 1200.79 173.39 1200.64 172.862C1200.48 172.334 1200.4 171.77 1200.4 171.17C1200.4 170.566 1200.48 170 1200.64 169.472C1200.79 168.944 1201.02 168.48 1201.31 168.08C1201.61 167.676 1201.96 167.36 1202.38 167.132C1202.81 166.904 1203.28 166.79 1203.81 166.79C1204.34 166.79 1204.81 166.904 1205.23 167.132C1205.65 167.36 1206.01 167.676 1206.3 168.08C1206.6 168.48 1206.82 168.944 1206.98 169.472C1207.14 170 1207.21 170.566 1207.21 171.17C1207.21 171.77 1207.14 172.334 1206.98 172.862C1206.82 173.39 1206.6 173.856 1206.3 174.26C1206.01 174.664 1205.65 174.98 1205.23 175.208C1204.81 175.436 1204.34 175.55 1203.81 175.55ZM1203.81 174.53C1204.15 174.53 1204.46 174.454 1204.74 174.302C1205.02 174.146 1205.26 173.922 1205.46 173.63C1205.66 173.338 1205.82 172.986 1205.92 172.574C1206.04 172.158 1206.09 171.69 1206.09 171.17C1206.09 170.478 1206 169.88 1205.8 169.376C1205.61 168.872 1205.34 168.484 1205 168.212C1204.66 167.94 1204.26 167.804 1203.81 167.804C1203.47 167.804 1203.16 167.882 1202.88 168.038C1202.6 168.194 1202.36 168.418 1202.16 168.71C1201.96 169.002 1201.8 169.356 1201.69 169.772C1201.59 170.184 1201.53 170.65 1201.53 171.17C1201.53 171.862 1201.63 172.46 1201.81 172.964C1202.01 173.468 1202.27 173.856 1202.61 174.128C1202.96 174.396 1203.36 174.53 1203.81 174.53Z" fill="#D7DAF9"/>
<path d="M1305.9 224.904L1202.5 149.78L1099.1 224.904L1138.6 346.456H1266.4L1305.9 224.904Z" stroke="#D7DAF9" stroke-linejoin="round"/>
<path d="M1195.74 139.26C1195.13 139.26 1194.6 139.148 1194.16 138.924C1193.71 138.7 1193.37 138.398 1193.12 138.018C1192.88 137.638 1192.76 137.212 1192.76 136.74C1192.76 136.4 1192.82 136.098 1192.94 135.834C1193.07 135.57 1193.25 135.34 1193.48 135.144C1193.71 134.948 1194 134.786 1194.32 134.658C1193.99 134.526 1193.69 134.302 1193.44 133.986C1193.18 133.67 1193.05 133.272 1193.05 132.792C1193.05 132.352 1193.17 131.96 1193.4 131.616C1193.63 131.268 1193.95 130.996 1194.36 130.8C1194.77 130.6 1195.23 130.5 1195.76 130.5C1196.29 130.5 1196.76 130.6 1197.17 130.8C1197.59 131 1197.91 131.274 1198.14 131.622C1198.37 131.966 1198.49 132.356 1198.49 132.792C1198.49 133.112 1198.43 133.396 1198.31 133.644C1198.19 133.892 1198.04 134.102 1197.84 134.274C1197.65 134.442 1197.44 134.57 1197.21 134.658C1197.67 134.846 1198.05 135.114 1198.33 135.462C1198.61 135.806 1198.75 136.232 1198.75 136.74C1198.75 137.212 1198.62 137.638 1198.37 138.018C1198.13 138.398 1197.78 138.7 1197.32 138.924C1196.88 139.148 1196.35 139.26 1195.74 139.26ZM1195.76 138.294C1196.09 138.294 1196.4 138.236 1196.68 138.12C1196.97 138 1197.2 137.822 1197.37 137.586C1197.55 137.35 1197.64 137.058 1197.64 136.71C1197.64 136.366 1197.55 136.076 1197.38 135.84C1197.22 135.604 1197 135.426 1196.71 135.306C1196.43 135.182 1196.11 135.12 1195.76 135.12C1195.22 135.12 1194.77 135.258 1194.41 135.534C1194.05 135.806 1193.87 136.198 1193.87 136.71C1193.87 137.058 1193.96 137.35 1194.13 137.586C1194.3 137.822 1194.53 138 1194.82 138.12C1195.1 138.236 1195.42 138.294 1195.76 138.294ZM1195.77 134.178C1196.09 134.178 1196.38 134.124 1196.63 134.016C1196.89 133.904 1197.08 133.748 1197.22 133.548C1197.36 133.348 1197.43 133.11 1197.43 132.834C1197.43 132.426 1197.28 132.084 1196.97 131.808C1196.67 131.532 1196.27 131.394 1195.77 131.394C1195.44 131.394 1195.15 131.458 1194.89 131.586C1194.65 131.71 1194.45 131.882 1194.31 132.102C1194.17 132.318 1194.1 132.562 1194.1 132.834C1194.1 133.246 1194.26 133.574 1194.57 133.818C1194.89 134.058 1195.29 134.178 1195.77 134.178ZM1203.51 139.26C1202.98 139.26 1202.5 139.146 1202.08 138.918C1201.66 138.69 1201.3 138.374 1201.01 137.97C1200.71 137.566 1200.49 137.1 1200.33 136.572C1200.18 136.044 1200.1 135.48 1200.1 134.88C1200.1 134.276 1200.18 133.71 1200.33 133.182C1200.49 132.654 1200.71 132.19 1201.01 131.79C1201.3 131.386 1201.66 131.07 1202.08 130.842C1202.5 130.614 1202.98 130.5 1203.51 130.5C1204.03 130.5 1204.5 130.614 1204.92 130.842C1205.34 131.07 1205.7 131.386 1206 131.79C1206.29 132.19 1206.52 132.654 1206.68 133.182C1206.83 133.71 1206.91 134.276 1206.91 134.88C1206.91 135.48 1206.83 136.044 1206.68 136.572C1206.52 137.1 1206.29 137.566 1206 137.97C1205.7 138.374 1205.34 138.69 1204.92 138.918C1204.5 139.146 1204.03 139.26 1203.51 139.26ZM1203.51 138.24C1203.85 138.24 1204.16 138.164 1204.43 138.012C1204.71 137.856 1204.95 137.632 1205.15 137.34C1205.36 137.048 1205.51 136.696 1205.62 136.284C1205.73 135.868 1205.79 135.4 1205.79 134.88C1205.79 134.188 1205.69 133.59 1205.5 133.086C1205.31 132.582 1205.04 132.194 1204.7 131.922C1204.36 131.65 1203.96 131.514 1203.51 131.514C1203.17 131.514 1202.86 131.592 1202.58 131.748C1202.3 131.904 1202.06 132.128 1201.85 132.42C1201.65 132.712 1201.5 133.066 1201.39 133.482C1201.28 133.894 1201.23 134.36 1201.23 134.88C1201.23 135.572 1201.32 136.17 1201.51 136.674C1201.7 137.178 1201.97 137.566 1202.31 137.838C1202.65 138.106 1203.05 138.24 1203.51 138.24Z" fill="#D7DAF9"/>
<path d="M1340.37 213.705L1202.5 113.54L1064.63 213.705L1117.29 375.775H1287.71L1340.37 213.705Z" stroke="#D7DAF9" stroke-linejoin="round"/>
<path d="M1191 102.79V95.5538L1188.73 96.3938L1188.44 95.5238L1191.97 94.2098H1192.05V102.79H1191ZM1197.49 102.97C1196.96 102.97 1196.49 102.856 1196.06 102.628C1195.64 102.4 1195.29 102.084 1194.99 101.68C1194.7 101.276 1194.47 100.81 1194.32 100.282C1194.16 99.7538 1194.08 99.1898 1194.08 98.5898C1194.08 97.9858 1194.16 97.4198 1194.32 96.8918C1194.47 96.3638 1194.7 95.8998 1194.99 95.4998C1195.29 95.0958 1195.64 94.7798 1196.06 94.5518C1196.49 94.3238 1196.96 94.2098 1197.49 94.2098C1198.02 94.2098 1198.49 94.3238 1198.91 94.5518C1199.33 94.7798 1199.69 95.0958 1199.98 95.4998C1200.28 95.8998 1200.5 96.3638 1200.66 96.8918C1200.82 97.4198 1200.89 97.9858 1200.89 98.5898C1200.89 99.1898 1200.82 99.7538 1200.66 100.282C1200.5 100.81 1200.28 101.276 1199.98 101.68C1199.69 102.084 1199.33 102.4 1198.91 102.628C1198.49 102.856 1198.02 102.97 1197.49 102.97ZM1197.49 101.95C1197.83 101.95 1198.14 101.874 1198.42 101.722C1198.7 101.566 1198.94 101.342 1199.14 101.05C1199.34 100.758 1199.5 100.406 1199.6 99.9938C1199.72 99.5778 1199.77 99.1098 1199.77 98.5898C1199.77 97.8978 1199.68 97.2998 1199.48 96.7958C1199.29 96.2918 1199.02 95.9038 1198.68 95.6318C1198.34 95.3598 1197.94 95.2238 1197.49 95.2238C1197.15 95.2238 1196.84 95.3018 1196.56 95.4578C1196.28 95.6138 1196.04 95.8378 1195.84 96.1298C1195.64 96.4218 1195.48 96.7758 1195.37 97.1918C1195.27 97.6038 1195.21 98.0698 1195.21 98.5898C1195.21 99.2818 1195.31 99.8798 1195.49 100.384C1195.69 100.888 1195.95 101.276 1196.29 101.548C1196.64 101.816 1197.04 101.95 1197.49 101.95ZM1205.62 102.97C1205.1 102.97 1204.62 102.856 1204.2 102.628C1203.78 102.4 1203.42 102.084 1203.12 101.68C1202.83 101.276 1202.61 100.81 1202.45 100.282C1202.29 99.7538 1202.22 99.1898 1202.22 98.5898C1202.22 97.9858 1202.29 97.4198 1202.45 96.8918C1202.61 96.3638 1202.83 95.8998 1203.12 95.4998C1203.42 95.0958 1203.78 94.7798 1204.2 94.5518C1204.62 94.3238 1205.1 94.2098 1205.62 94.2098C1206.15 94.2098 1206.62 94.3238 1207.04 94.5518C1207.46 94.7798 1207.82 95.0958 1208.11 95.4998C1208.41 95.8998 1208.64 96.3638 1208.79 96.8918C1208.95 97.4198 1209.03 97.9858 1209.03 98.5898C1209.03 99.1898 1208.95 99.7538 1208.79 100.282C1208.64 100.81 1208.41 101.276 1208.11 101.68C1207.82 102.084 1207.46 102.4 1207.04 102.628C1206.62 102.856 1206.15 102.97 1205.62 102.97ZM1205.62 101.95C1205.96 101.95 1206.27 101.874 1206.55 101.722C1206.83 101.566 1207.07 101.342 1207.27 101.05C1207.47 100.758 1207.63 100.406 1207.74 99.9938C1207.85 99.5778 1207.9 99.1098 1207.9 98.5898C1207.9 97.8978 1207.81 97.2998 1207.62 96.7958C1207.42 96.2918 1207.16 95.9038 1206.81 95.6318C1206.47 95.3598 1206.08 95.2238 1205.62 95.2238C1205.28 95.2238 1204.97 95.3018 1204.69 95.4578C1204.41 95.6138 1204.17 95.8378 1203.97 96.1298C1203.77 96.4218 1203.61 96.7758 1203.51 97.1918C1203.4 97.6038 1203.34 98.0698 1203.34 98.5898C1203.34 99.2818 1203.44 99.8798 1203.63 100.384C1203.82 100.888 1204.08 101.276 1204.42 101.548C1204.77 101.816 1205.17 101.95 1205.62 101.95Z" fill="#D7DAF9"/>
<path d="M1154.16 63V54.6H1156.98C1157.56 54.6 1158.07 54.698 1158.51 54.894C1158.95 55.09 1159.29 55.372 1159.54 55.74C1159.79 56.108 1159.91 56.548 1159.91 57.06C1159.91 57.592 1159.8 58.04 1159.57 58.404C1159.34 58.764 1159.01 59.038 1158.57 59.226C1158.13 59.41 1157.6 59.502 1156.97 59.502H1155.08V63H1154.16ZM1155.08 58.686H1157.03C1157.66 58.686 1158.14 58.552 1158.48 58.284C1158.83 58.012 1159 57.614 1159 57.09C1159 56.574 1158.82 56.168 1158.47 55.872C1158.12 55.572 1157.65 55.422 1157.04 55.422H1155.08V58.686ZM1162.3 63V54.6H1165.32C1165.87 54.6 1166.35 54.7 1166.75 54.9C1167.15 55.1 1167.46 55.384 1167.68 55.752C1167.9 56.116 1168.01 56.544 1168.01 57.036C1168.01 57.46 1167.91 57.834 1167.72 58.158C1167.53 58.482 1167.26 58.746 1166.9 58.95C1166.56 59.15 1166.14 59.278 1165.67 59.334L1168.39 63H1167.25L1164.63 59.412H1163.21V63H1162.3ZM1163.21 58.608H1165.11C1165.74 58.608 1166.22 58.47 1166.57 58.194C1166.92 57.918 1167.09 57.54 1167.09 57.06C1167.09 56.56 1166.94 56.16 1166.63 55.86C1166.33 55.56 1165.87 55.41 1165.24 55.41H1163.21V58.608ZM1174.55 63.18C1173.93 63.18 1173.35 63.07 1172.82 62.85C1172.28 62.626 1171.82 62.316 1171.42 61.92C1171.03 61.524 1170.72 61.06 1170.5 60.528C1170.28 59.996 1170.17 59.42 1170.17 58.8C1170.17 58.176 1170.28 57.598 1170.5 57.066C1170.72 56.534 1171.03 56.07 1171.42 55.674C1171.82 55.278 1172.28 54.97 1172.82 54.75C1173.35 54.53 1173.93 54.42 1174.55 54.42C1175.17 54.42 1175.74 54.532 1176.27 54.756C1176.8 54.98 1177.27 55.292 1177.66 55.692C1178.06 56.092 1178.37 56.558 1178.59 57.09C1178.81 57.618 1178.92 58.188 1178.92 58.8C1178.92 59.42 1178.81 59.996 1178.59 60.528C1178.37 61.06 1178.06 61.524 1177.66 61.92C1177.27 62.316 1176.8 62.626 1176.27 62.85C1175.74 63.07 1175.17 63.18 1174.55 63.18ZM1174.55 62.31C1175.03 62.31 1175.47 62.228 1175.89 62.064C1176.3 61.896 1176.67 61.658 1176.98 61.35C1177.29 61.038 1177.54 60.668 1177.71 60.24C1177.89 59.808 1177.98 59.328 1177.98 58.8C1177.98 58.096 1177.82 57.482 1177.51 56.958C1177.21 56.43 1176.8 56.02 1176.28 55.728C1175.76 55.436 1175.19 55.29 1174.55 55.29C1174.07 55.29 1173.63 55.374 1173.21 55.542C1172.8 55.706 1172.43 55.942 1172.12 56.25C1171.81 56.558 1171.56 56.928 1171.38 57.36C1171.21 57.788 1171.12 58.268 1171.12 58.8C1171.12 59.504 1171.27 60.12 1171.58 60.648C1171.89 61.172 1172.3 61.58 1172.82 61.872C1173.34 62.164 1173.91 62.31 1174.55 62.31ZM1185.7 63.18C1185.02 63.18 1184.4 63.078 1183.83 62.874C1183.27 62.666 1182.77 62.37 1182.35 61.986C1181.94 61.602 1181.61 61.144 1181.38 60.612C1181.15 60.076 1181.04 59.478 1181.04 58.818C1181.04 58.162 1181.15 57.566 1181.37 57.03C1181.59 56.49 1181.9 56.026 1182.3 55.638C1182.71 55.246 1183.18 54.946 1183.73 54.738C1184.28 54.526 1184.89 54.42 1185.55 54.42C1185.86 54.42 1186.16 54.446 1186.47 54.498C1186.77 54.546 1187.06 54.624 1187.34 54.732C1187.62 54.836 1187.88 54.974 1188.12 55.146L1187.7 55.878C1187.38 55.678 1187.04 55.528 1186.66 55.428C1186.28 55.328 1185.91 55.278 1185.53 55.278C1184.99 55.278 1184.5 55.36 1184.07 55.524C1183.63 55.688 1183.26 55.924 1182.95 56.232C1182.64 56.54 1182.4 56.91 1182.23 57.342C1182.06 57.774 1181.98 58.26 1181.98 58.8C1181.98 59.548 1182.14 60.188 1182.45 60.72C1182.76 61.248 1183.2 61.652 1183.76 61.932C1184.33 62.212 1184.98 62.352 1185.73 62.352C1186.13 62.352 1186.49 62.312 1186.8 62.232C1187.11 62.152 1187.34 62.062 1187.51 61.962V59.574H1185.48V58.77H1188.36V62.454C1188.16 62.606 1187.9 62.736 1187.58 62.844C1187.26 62.952 1186.93 63.034 1186.59 63.09C1186.25 63.15 1185.96 63.18 1185.7 63.18ZM1191.3 63V54.6H1194.32C1194.87 54.6 1195.34 54.7 1195.74 54.9C1196.15 55.1 1196.46 55.384 1196.67 55.752C1196.89 56.116 1197 56.544 1197 57.036C1197 57.46 1196.91 57.834 1196.72 58.158C1196.52 58.482 1196.25 58.746 1195.9 58.95C1195.55 59.15 1195.14 59.278 1194.66 59.334L1197.38 63H1196.25L1193.63 59.412H1192.21V63H1191.3ZM1192.21 58.608H1194.11C1194.73 58.608 1195.22 58.47 1195.56 58.194C1195.91 57.918 1196.09 57.54 1196.09 57.06C1196.09 56.56 1195.93 56.16 1195.63 55.86C1195.33 55.56 1194.86 55.41 1194.23 55.41H1192.21V58.608ZM1198.83 63L1202.17 54.6H1203.06L1206.53 63H1205.5L1204.6 60.798H1200.69L1199.83 63H1198.83ZM1200.97 59.976H1204.31L1202.59 55.812L1200.97 59.976ZM1208.61 63V54.6H1209.49L1213.08 60.36L1212.73 60.366L1216.21 54.6H1217.07V63H1216.17L1216.17 55.884L1216.36 55.944L1213.22 61.038H1212.47L1209.3 55.944L1209.43 55.884L1209.44 63H1208.61ZM1220.12 63V54.6H1221.01L1224.59 60.36L1224.25 60.366L1227.73 54.6H1228.58V63H1227.68L1227.68 55.884L1227.88 55.944L1224.73 61.038H1223.98L1220.81 55.944L1220.95 55.884L1220.95 63H1220.12ZM1231.63 63V54.6H1232.54V63H1231.63ZM1235.59 63V54.6H1236.41L1241.17 61.338V54.6H1242.07V63H1241.24L1236.49 56.19V63H1235.59ZM1249.25 63.18C1248.58 63.18 1247.95 63.078 1247.39 62.874C1246.82 62.666 1246.32 62.37 1245.9 61.986C1245.49 61.602 1245.16 61.144 1244.93 60.612C1244.7 60.076 1244.59 59.478 1244.59 58.818C1244.59 58.162 1244.7 57.566 1244.92 57.03C1245.14 56.49 1245.46 56.026 1245.86 55.638C1246.26 55.246 1246.74 54.946 1247.28 54.738C1247.84 54.526 1248.44 54.42 1249.1 54.42C1249.41 54.42 1249.72 54.446 1250.02 54.498C1250.32 54.546 1250.62 54.624 1250.9 54.732C1251.18 54.836 1251.43 54.974 1251.67 55.146L1251.25 55.878C1250.93 55.678 1250.59 55.528 1250.21 55.428C1249.84 55.328 1249.46 55.278 1249.08 55.278C1248.54 55.278 1248.06 55.36 1247.62 55.524C1247.18 55.688 1246.81 55.924 1246.5 56.232C1246.19 56.54 1245.95 56.91 1245.78 57.342C1245.62 57.774 1245.53 58.26 1245.53 58.8C1245.53 59.548 1245.69 60.188 1246 60.72C1246.32 61.248 1246.75 61.652 1247.31 61.932C1247.88 62.212 1248.53 62.352 1249.28 62.352C1249.69 62.352 1250.04 62.312 1250.35 62.232C1250.66 62.152 1250.9 62.062 1251.06 61.962V59.574H1249.04V58.77H1251.92V62.454C1251.72 62.606 1251.46 62.736 1251.14 62.844C1250.82 62.952 1250.49 63.034 1250.15 63.09C1249.81 63.15 1249.51 63.18 1249.25 63.18Z" fill="#D5FFF3"/>
<path d="M1364.76 185.18C1364.22 185.18 1363.69 185.106 1363.17 184.958C1362.65 184.806 1362.21 184.588 1361.85 184.304L1362.33 183.578C1362.54 183.746 1362.77 183.888 1363.03 184.004C1363.3 184.12 1363.58 184.208 1363.87 184.268C1364.16 184.328 1364.47 184.358 1364.77 184.358C1365.41 184.358 1365.93 184.232 1366.32 183.98C1366.7 183.724 1366.9 183.35 1366.9 182.858C1366.9 182.502 1366.77 182.2 1366.51 181.952C1366.26 181.704 1365.78 181.478 1365.09 181.274L1364.13 180.992C1363.38 180.772 1362.83 180.486 1362.48 180.134C1362.13 179.782 1361.96 179.336 1361.96 178.796C1361.96 178.428 1362.03 178.1 1362.18 177.812C1362.32 177.52 1362.52 177.27 1362.78 177.062C1363.05 176.854 1363.36 176.696 1363.72 176.588C1364.08 176.476 1364.47 176.42 1364.91 176.42C1365.43 176.42 1365.91 176.496 1366.35 176.648C1366.8 176.8 1367.17 177 1367.47 177.248L1366.98 177.944C1366.79 177.792 1366.58 177.664 1366.35 177.56C1366.11 177.452 1365.87 177.37 1365.6 177.314C1365.34 177.258 1365.07 177.23 1364.8 177.23C1364.41 177.23 1364.07 177.288 1363.77 177.404C1363.47 177.52 1363.24 177.69 1363.07 177.914C1362.9 178.138 1362.82 178.414 1362.82 178.742C1362.82 178.97 1362.87 179.172 1362.97 179.348C1363.08 179.52 1363.27 179.678 1363.53 179.822C1363.79 179.962 1364.15 180.1 1364.61 180.236L1365.64 180.542C1366.37 180.754 1366.9 181.038 1367.25 181.394C1367.59 181.746 1367.76 182.208 1367.76 182.78C1367.76 183.256 1367.65 183.674 1367.41 184.034C1367.19 184.394 1366.85 184.676 1366.4 184.88C1365.95 185.08 1365.41 185.18 1364.76 185.18ZM1374.11 185.18C1373.24 185.18 1372.48 184.998 1371.83 184.634C1371.19 184.27 1370.69 183.758 1370.33 183.098C1369.98 182.438 1369.8 181.67 1369.8 180.794C1369.8 180.158 1369.9 179.576 1370.12 179.048C1370.33 178.516 1370.63 178.054 1371.01 177.662C1371.4 177.266 1371.85 176.96 1372.38 176.744C1372.91 176.528 1373.48 176.42 1374.11 176.42C1374.71 176.42 1375.24 176.496 1375.7 176.648C1376.16 176.796 1376.55 177.006 1376.88 177.278L1376.37 178.022C1376.09 177.774 1375.76 177.59 1375.4 177.47C1375.03 177.35 1374.62 177.29 1374.18 177.29C1373.66 177.29 1373.19 177.372 1372.77 177.536C1372.35 177.7 1371.99 177.934 1371.68 178.238C1371.38 178.538 1371.15 178.904 1370.99 179.336C1370.83 179.764 1370.75 180.248 1370.75 180.788C1370.75 181.532 1370.89 182.166 1371.18 182.69C1371.47 183.21 1371.87 183.608 1372.4 183.884C1372.92 184.16 1373.54 184.298 1374.26 184.298C1374.71 184.298 1375.14 184.232 1375.55 184.1C1375.96 183.964 1376.35 183.742 1376.7 183.434L1377.13 184.214C1376.71 184.542 1376.25 184.786 1375.75 184.946C1375.25 185.102 1374.7 185.18 1374.11 185.18ZM1379.4 185V176.6H1382.42C1382.97 176.6 1383.45 176.7 1383.85 176.9C1384.25 177.1 1384.56 177.384 1384.78 177.752C1385 178.116 1385.11 178.544 1385.11 179.036C1385.11 179.46 1385.01 179.834 1384.82 180.158C1384.63 180.482 1384.35 180.746 1384 180.95C1383.65 181.15 1383.24 181.278 1382.77 181.334L1385.48 185H1384.35L1381.73 181.412H1380.31V185H1379.4ZM1380.31 180.608H1382.21C1382.84 180.608 1383.32 180.47 1383.67 180.194C1384.01 179.918 1384.19 179.54 1384.19 179.06C1384.19 178.56 1384.04 178.16 1383.73 177.86C1383.43 177.56 1382.97 177.41 1382.33 177.41H1380.31V180.608ZM1387.91 185V176.6H1388.83V185H1387.91ZM1391.87 185V176.6H1394.69C1395.27 176.6 1395.78 176.698 1396.21 176.894C1396.65 177.09 1397 177.372 1397.24 177.74C1397.49 178.108 1397.62 178.548 1397.62 179.06C1397.62 179.592 1397.5 180.04 1397.27 180.404C1397.05 180.764 1396.71 181.038 1396.27 181.226C1395.84 181.41 1395.3 181.502 1394.67 181.502H1392.78V185H1391.87ZM1392.78 180.686H1394.74C1395.36 180.686 1395.84 180.552 1396.19 180.284C1396.53 180.012 1396.7 179.614 1396.7 179.09C1396.7 178.574 1396.53 178.168 1396.18 177.872C1395.83 177.572 1395.35 177.422 1394.75 177.422H1392.78V180.686ZM1401.67 185V177.44H1399.23V176.6H1405.03V177.44H1402.59V185H1401.67ZM1407.3 185V176.6H1408.21V185H1407.3ZM1411.25 185V176.6H1412.08L1416.84 183.338V176.6H1417.74V185H1416.91L1412.15 178.19V185H1411.25ZM1424.92 185.18C1424.25 185.18 1423.62 185.078 1423.06 184.874C1422.49 184.666 1421.99 184.37 1421.57 183.986C1421.16 183.602 1420.83 183.144 1420.6 182.612C1420.37 182.076 1420.26 181.478 1420.26 180.818C1420.26 180.162 1420.37 179.566 1420.59 179.03C1420.81 178.49 1421.13 178.026 1421.53 177.638C1421.93 177.246 1422.41 176.946 1422.95 176.738C1423.51 176.526 1424.11 176.42 1424.77 176.42C1425.08 176.42 1425.39 176.446 1425.69 176.498C1425.99 176.546 1426.29 176.624 1426.57 176.732C1426.85 176.836 1427.1 176.974 1427.34 177.146L1426.92 177.878C1426.6 177.678 1426.26 177.528 1425.88 177.428C1425.51 177.328 1425.13 177.278 1424.75 177.278C1424.21 177.278 1423.73 177.36 1423.29 177.524C1422.85 177.688 1422.48 177.924 1422.17 178.232C1421.86 178.54 1421.62 178.91 1421.45 179.342C1421.29 179.774 1421.2 180.26 1421.2 180.8C1421.2 181.548 1421.36 182.188 1421.67 182.72C1421.99 183.248 1422.42 183.652 1422.98 183.932C1423.55 184.212 1424.2 184.352 1424.95 184.352C1425.36 184.352 1425.71 184.312 1426.02 184.232C1426.33 184.152 1426.57 184.062 1426.73 183.962V181.574H1424.71V180.77H1427.59V184.454C1427.39 184.606 1427.13 184.736 1426.81 184.844C1426.49 184.952 1426.16 185.034 1425.82 185.09C1425.48 185.15 1425.18 185.18 1424.92 185.18Z" fill="#D5FFF3"/>
<path d="M1297.16 432V423.6H1298.08V431.154H1301.93V432H1297.16ZM1304.27 432V423.6H1309.38V424.428H1305.18V427.17H1308.87V427.974H1305.18V431.166H1309.41V432H1304.27ZM1311.18 432L1314.53 423.6H1315.41L1318.88 432H1317.86L1316.96 429.798H1313.04L1312.18 432H1311.18ZM1313.32 428.976H1316.66L1314.95 424.812L1313.32 428.976ZM1320.96 432V423.6H1323.97C1324.53 423.6 1325 423.7 1325.4 423.9C1325.81 424.1 1326.12 424.384 1326.33 424.752C1326.55 425.116 1326.66 425.544 1326.66 426.036C1326.66 426.46 1326.57 426.834 1326.37 427.158C1326.18 427.482 1325.91 427.746 1325.56 427.95C1325.21 428.15 1324.8 428.278 1324.32 428.334L1327.04 432H1325.91L1323.28 428.412H1321.87V432H1320.96ZM1321.87 427.608H1323.76C1324.39 427.608 1324.88 427.47 1325.22 427.194C1325.57 426.918 1325.74 426.54 1325.74 426.06C1325.74 425.56 1325.59 425.16 1325.29 424.86C1324.99 424.56 1324.52 424.41 1323.89 424.41H1321.87V427.608ZM1329.47 432V423.6H1330.3L1335.06 430.338V423.6H1335.96V432H1335.13L1330.37 425.19V432H1329.47ZM1339 432V423.6H1339.91V432H1339ZM1342.96 432V423.6H1343.78L1348.54 430.338V423.6H1349.44V432H1348.61L1343.86 425.19V432H1342.96ZM1356.62 432.18C1355.95 432.18 1355.33 432.078 1354.76 431.874C1354.19 431.666 1353.7 431.37 1353.28 430.986C1352.86 430.602 1352.54 430.144 1352.3 429.612C1352.08 429.076 1351.96 428.478 1351.96 427.818C1351.96 427.162 1352.07 426.566 1352.29 426.03C1352.52 425.49 1352.83 425.026 1353.23 424.638C1353.63 424.246 1354.11 423.946 1354.66 423.738C1355.21 423.526 1355.81 423.42 1356.47 423.42C1356.78 423.42 1357.09 423.446 1357.39 423.498C1357.7 423.546 1357.99 423.624 1358.27 423.732C1358.55 423.836 1358.81 423.974 1359.04 424.146L1358.62 424.878C1358.31 424.678 1357.96 424.528 1357.58 424.428C1357.21 424.328 1356.83 424.278 1356.45 424.278C1355.91 424.278 1355.43 424.36 1354.99 424.524C1354.56 424.688 1354.18 424.924 1353.87 425.232C1353.56 425.54 1353.32 425.91 1353.16 426.342C1352.99 426.774 1352.9 427.26 1352.9 427.8C1352.9 428.548 1353.06 429.188 1353.37 429.72C1353.69 430.248 1354.13 430.652 1354.69 430.932C1355.25 431.212 1355.91 431.352 1356.65 431.352C1357.06 431.352 1357.41 431.312 1357.72 431.232C1358.03 431.152 1358.27 431.062 1358.44 430.962V428.574H1356.41V427.77H1359.29V431.454C1359.09 431.606 1358.83 431.736 1358.51 431.844C1358.19 431.952 1357.86 432.034 1357.52 432.09C1357.18 432.15 1356.88 432.18 1356.62 432.18Z" fill="#D5FFF3"/>
<path d="M1068.52 432.179V423.779H1071.53C1072.09 423.779 1072.56 423.879 1072.96 424.079C1073.37 424.279 1073.68 424.563 1073.89 424.931C1074.11 425.295 1074.22 425.723 1074.22 426.215C1074.22 426.639 1074.13 427.013 1073.93 427.337C1073.74 427.661 1073.47 427.925 1073.12 428.129C1072.77 428.329 1072.36 428.457 1071.88 428.513L1074.6 432.179H1073.47L1070.84 428.591H1069.43V432.179H1068.52ZM1069.43 427.787H1071.32C1071.95 427.787 1072.44 427.649 1072.78 427.373C1073.13 427.097 1073.3 426.719 1073.3 426.239C1073.3 425.739 1073.15 425.339 1072.85 425.039C1072.55 424.739 1072.08 424.589 1071.45 424.589H1069.43V427.787ZM1077.03 432.179V423.779H1077.94V432.179H1077.03ZM1084.76 432.359C1083.89 432.359 1083.14 432.177 1082.49 431.813C1081.84 431.449 1081.34 430.937 1080.99 430.277C1080.63 429.617 1080.45 428.849 1080.45 427.973C1080.45 427.337 1080.56 426.755 1080.77 426.227C1080.98 425.695 1081.28 425.233 1081.67 424.841C1082.05 424.445 1082.51 424.139 1083.03 423.923C1083.56 423.707 1084.14 423.599 1084.77 423.599C1085.36 423.599 1085.89 423.675 1086.35 423.827C1086.81 423.975 1087.21 424.185 1087.53 424.457L1087.03 425.201C1086.75 424.953 1086.42 424.769 1086.05 424.649C1085.68 424.529 1085.28 424.469 1084.84 424.469C1084.32 424.469 1083.85 424.551 1083.42 424.715C1083 424.879 1082.64 425.113 1082.34 425.417C1082.04 425.717 1081.81 426.083 1081.64 426.515C1081.48 426.943 1081.4 427.427 1081.4 427.967C1081.4 428.711 1081.55 429.345 1081.83 429.869C1082.12 430.389 1082.53 430.787 1083.05 431.063C1083.58 431.339 1084.2 431.477 1084.91 431.477C1085.37 431.477 1085.8 431.411 1086.21 431.279C1086.62 431.143 1087 430.921 1087.35 430.613L1087.79 431.393C1087.37 431.721 1086.91 431.965 1086.41 432.125C1085.91 432.281 1085.36 432.359 1084.76 432.359ZM1090.06 432.179V423.779H1090.97V432.179H1090.06ZM1094.01 432.179V423.779H1094.84L1099.6 430.517V423.779H1100.5V432.179H1099.67L1094.91 425.369V432.179H1094.01ZM1107.68 432.359C1107 432.359 1106.38 432.257 1105.81 432.053C1105.25 431.845 1104.75 431.549 1104.33 431.165C1103.92 430.781 1103.59 430.323 1103.36 429.791C1103.13 429.255 1103.02 428.657 1103.02 427.997C1103.02 427.341 1103.13 426.745 1103.35 426.209C1103.57 425.669 1103.88 425.205 1104.28 424.817C1104.69 424.425 1105.16 424.125 1105.71 423.917C1106.26 423.705 1106.87 423.599 1107.53 423.599C1107.84 423.599 1108.14 423.625 1108.45 423.677C1108.75 423.725 1109.04 423.803 1109.32 423.911C1109.6 424.015 1109.86 424.153 1110.1 424.325L1109.68 425.057C1109.36 424.857 1109.02 424.707 1108.64 424.607C1108.26 424.507 1107.89 424.457 1107.51 424.457C1106.97 424.457 1106.48 424.539 1106.05 424.703C1105.61 424.867 1105.24 425.103 1104.93 425.411C1104.62 425.719 1104.38 426.089 1104.21 426.521C1104.04 426.953 1103.96 427.439 1103.96 427.979C1103.96 428.727 1104.12 429.367 1104.43 429.899C1104.74 430.427 1105.18 430.831 1105.74 431.111C1106.31 431.391 1106.96 431.531 1107.71 431.531C1108.11 431.531 1108.47 431.491 1108.78 431.411C1109.09 431.331 1109.32 431.241 1109.49 431.141V428.753H1107.46V427.949H1110.34V431.633C1110.14 431.785 1109.88 431.915 1109.56 432.023C1109.24 432.131 1108.91 432.213 1108.57 432.269C1108.23 432.329 1107.94 432.359 1107.68 432.359Z" fill="#D5FFF3"/>
<path d="M982.832 189V181.44H980.39V180.6H986.186V181.44H983.744V189H982.832ZM988.458 189V180.6H989.37V184.086H993.942V180.6H994.854V189H993.942V184.932H989.37V189H988.458ZM997.897 189V180.6H1003V181.428H998.809V184.17H1002.5V184.974H998.809V188.166H1003.04V189H997.897ZM1009.64 189.18C1009.02 189.18 1008.44 189.07 1007.91 188.85C1007.37 188.626 1006.91 188.316 1006.51 187.92C1006.12 187.524 1005.81 187.06 1005.59 186.528C1005.37 185.996 1005.26 185.42 1005.26 184.8C1005.26 184.176 1005.37 183.598 1005.59 183.066C1005.81 182.534 1006.12 182.07 1006.51 181.674C1006.91 181.278 1007.37 180.97 1007.91 180.75C1008.44 180.53 1009.02 180.42 1009.64 180.42C1010.26 180.42 1010.83 180.532 1011.36 180.756C1011.89 180.98 1012.36 181.292 1012.75 181.692C1013.15 182.092 1013.46 182.558 1013.68 183.09C1013.9 183.618 1014.01 184.188 1014.01 184.8C1014.01 185.42 1013.9 185.996 1013.68 186.528C1013.46 187.06 1013.15 187.524 1012.75 187.92C1012.36 188.316 1011.89 188.626 1011.36 188.85C1010.83 189.07 1010.26 189.18 1009.64 189.18ZM1009.64 188.31C1010.12 188.31 1010.56 188.228 1010.98 188.064C1011.39 187.896 1011.76 187.658 1012.07 187.35C1012.38 187.038 1012.63 186.668 1012.8 186.24C1012.98 185.808 1013.07 185.328 1013.07 184.8C1013.07 184.096 1012.91 183.482 1012.6 182.958C1012.3 182.43 1011.89 182.02 1011.37 181.728C1010.85 181.436 1010.28 181.29 1009.64 181.29C1009.16 181.29 1008.72 181.374 1008.3 181.542C1007.89 181.706 1007.52 181.942 1007.21 182.25C1006.9 182.558 1006.65 182.928 1006.47 183.36C1006.3 183.788 1006.21 184.268 1006.21 184.8C1006.21 185.504 1006.36 186.12 1006.67 186.648C1006.98 187.172 1007.39 187.58 1007.91 187.872C1008.43 188.164 1009 188.31 1009.64 188.31ZM1016.54 189V180.6H1019.56C1020.11 180.6 1020.59 180.7 1020.99 180.9C1021.39 181.1 1021.7 181.384 1021.92 181.752C1022.14 182.116 1022.25 182.544 1022.25 183.036C1022.25 183.46 1022.15 183.834 1021.96 184.158C1021.77 184.482 1021.49 184.746 1021.14 184.95C1020.79 185.15 1020.38 185.278 1019.91 185.334L1022.62 189H1021.49L1018.87 185.412H1017.45V189H1016.54ZM1017.45 184.608H1019.35C1019.98 184.608 1020.46 184.47 1020.81 184.194C1021.15 183.918 1021.33 183.54 1021.33 183.06C1021.33 182.56 1021.18 182.16 1020.87 181.86C1020.57 181.56 1020.11 181.41 1019.47 181.41H1017.45V184.608ZM1026.8 189V185.292L1023.82 180.6H1024.89L1027.28 184.404L1029.65 180.6H1030.69L1027.71 185.298V189H1026.8Z" fill="#D5FFF3"/>
<path d="M1374.83 202.506L1202.5 77.3L1030.17 202.506L1095.99 405.094H1309.01L1374.83 202.506Z" stroke="#D7DAF9" stroke-linejoin="round"/>
<path opacity="0.3" d="M1262.72 238.692L1203.58 112.232C1203.03 111.055 1201.52 110.707 1200.51 111.525L1072.64 215.045C1071.97 215.583 1071.73 216.484 1072.02 217.288L1125.39 362.889C1125.65 363.599 1126.29 364.102 1127.04 364.187L1290.28 382.791C1291.63 382.946 1292.74 381.729 1292.46 380.394L1262.86 239.129C1262.83 238.978 1262.78 238.832 1262.72 238.692Z" fill="#55FBCC" stroke="black"/>
<path d="M1262.72 238.692L1203.58 112.232C1203.03 111.055 1201.52 110.707 1200.51 111.525L1072.64 215.045C1071.97 215.583 1071.73 216.484 1072.02 217.288L1125.39 362.889C1125.65 363.599 1126.29 364.102 1127.04 364.187L1290.28 382.791C1291.63 382.946 1292.74 381.729 1292.46 380.394L1262.86 239.129C1262.83 238.978 1262.78 238.832 1262.72 238.692Z" stroke="#55FBCC" stroke-linejoin="round"/>
<circle cx="1201.26" cy="110.657" r="2.88273" fill="#55FBCC"/>
<circle cx="1262.21" cy="239.144" r="2.88273" fill="#55FBCC"/>
<circle cx="1293.51" cy="382.457" r="2.88273" fill="#55FBCC"/>
<circle cx="1126.31" cy="363.514" r="2.88273" fill="#55FBCC"/>
<circle cx="1071.95" cy="216.906" r="2.88273" fill="#55FBCC"/>
</g>
<path d="M151 205H761" stroke="white" stroke-width="2" stroke-linecap="round"/>
</g>
<rect x="0.5" y="0.5" width="1499" height="499" stroke="white"/>
<defs>
<filter id="filter0_f_388_270" x="-370" y="54" width="1355" height="1228" filterUnits="userSpaceOnUse" color-interpolation-filters="sRGB">
<feFlood flood-opacity="0" result="BackgroundImageFix"/>
<feBlend mode="normal" in="SourceGraphic" in2="BackgroundImageFix" result="shape"/>
<feGaussianBlur stdDeviation="250" result="effect1_foregroundBlur_388_270"/>
</filter>
<filter id="filter1_f_388_270" x="1037" y="-303" width="500" height="500" filterUnits="userSpaceOnUse" color-interpolation-filters="sRGB">
<feFlood flood-opacity="0" result="BackgroundImageFix"/>
<feBlend mode="normal" in="SourceGraphic" in2="BackgroundImageFix" result="shape"/>
<feGaussianBlur stdDeviation="100" result="effect1_foregroundBlur_388_270"/>
</filter>
<filter id="filter2_f_388_270" x="913" y="-277" width="500" height="500" filterUnits="userSpaceOnUse" color-interpolation-filters="sRGB">
<feFlood flood-opacity="0" result="BackgroundImageFix"/>
<feBlend mode="normal" in="SourceGraphic" in2="BackgroundImageFix" result="shape"/>
<feGaussianBlur stdDeviation="100" result="effect1_foregroundBlur_388_270"/>
</filter>
<filter id="filter3_f_388_270" x="450" y="250" width="500" height="500" filterUnits="userSpaceOnUse" color-interpolation-filters="sRGB">
<feFlood flood-opacity="0" result="BackgroundImageFix"/>
<feBlend mode="normal" in="SourceGraphic" in2="BackgroundImageFix" result="shape"/>
<feGaussianBlur stdDeviation="100" result="effect1_foregroundBlur_388_270"/>
</filter>
<filter id="filter4_f_388_270" x="-74" y="67" width="300" height="300" filterUnits="userSpaceOnUse" color-interpolation-filters="sRGB">
<feFlood flood-opacity="0" result="BackgroundImageFix"/>
<feBlend mode="normal" in="SourceGraphic" in2="BackgroundImageFix" result="shape"/>
<feGaussianBlur stdDeviation="50" result="effect1_foregroundBlur_388_270"/>
</filter>
<filter id="filter5_f_388_270" x="-124" y="-68" width="300" height="300" filterUnits="userSpaceOnUse" color-interpolation-filters="sRGB">
<feFlood flood-opacity="0" result="BackgroundImageFix"/>
<feBlend mode="normal" in="SourceGraphic" in2="BackgroundImageFix" result="shape"/>
<feGaussianBlur stdDeviation="50" result="effect1_foregroundBlur_388_270"/>
</filter>
<filter id="filter6_f_388_270" x="-124" y="-89" width="300" height="300" filterUnits="userSpaceOnUse" color-interpolation-filters="sRGB">
<feFlood flood-opacity="0" result="BackgroundImageFix"/>
<feBlend mode="normal" in="SourceGraphic" in2="BackgroundImageFix" result="shape"/>
<feGaussianBlur stdDeviation="50" result="effect1_foregroundBlur_388_270"/>
</filter>
<filter id="filter7_f_388_270" x="-35" y="-20" width="300" height="300" filterUnits="userSpaceOnUse" color-interpolation-filters="sRGB">
<feFlood flood-opacity="0" result="BackgroundImageFix"/>
<feBlend mode="normal" in="SourceGraphic" in2="BackgroundImageFix" result="shape"/>
<feGaussianBlur stdDeviation="50" result="effect1_foregroundBlur_388_270"/>
</filter>
<filter id="filter8_f_388_270" x="87" y="-118" width="300" height="300" filterUnits="userSpaceOnUse" color-interpolation-filters="sRGB">
<feFlood flood-opacity="0" result="BackgroundImageFix"/>
<feBlend mode="normal" in="SourceGraphic" in2="BackgroundImageFix" result="shape"/>
<feGaussianBlur stdDeviation="50" result="effect1_foregroundBlur_388_270"/>
</filter>
<linearGradient id="paint0_linear_388_270" x1="1851.95" y1="1463.2" x2="366.098" y2="1598.15" gradientUnits="userSpaceOnUse">
<stop stop-color="#CFFCFF"/>
<stop offset="1" stop-color="#152E35" stop-opacity="0"/>
</linearGradient>
<linearGradient id="paint1_linear_388_270" x1="2455.12" y1="48.4745" x2="1395.71" y2="159.544" gradientUnits="userSpaceOnUse">
<stop stop-color="#CFFCFF"/>
<stop offset="1" stop-color="#152E35" stop-opacity="0"/>
</linearGradient>
<linearGradient id="paint2_linear_388_270" x1="2340.12" y1="33.4745" x2="1280.71" y2="144.544" gradientUnits="userSpaceOnUse">
<stop stop-color="#CFFCFF"/>
<stop offset="1" stop-color="#152E35" stop-opacity="0"/>
</linearGradient>
<linearGradient id="paint3_linear_388_270" x1="1155.89" y1="686.381" x2="92.9088" y2="779.006" gradientUnits="userSpaceOnUse">
<stop stop-color="#CFFCFF"/>
<stop offset="1" stop-color="#152E35" stop-opacity="0"/>
</linearGradient>
<linearGradient id="paint4_linear_388_270" x1="2378.94" y1="1393.93" x2="1091.39" y2="233.391" gradientUnits="userSpaceOnUse">
<stop stop-color="#43F0FD"/>
<stop offset="1" stop-color="#152E35" stop-opacity="0"/>
</linearGradient>
<clipPath id="clip0_388_270">
<rect width="1500" height="500" fill="white"/>
</clipPath>
<clipPath id="clip1_388_270">
<rect width="453" height="453" fill="white" transform="translate(976 32)"/>
</clipPath>
</defs>
</svg>
