<svg width="1500" height="500" viewBox="0 0 1500 500" fill="none" xmlns="http://www.w3.org/2000/svg">
<g clip-path="url(#clip0_283_79)">
<rect width="1500" height="500" fill="#111216"/>
<rect opacity="0.03" x="515.547" y="822.621" width="408" height="1343.46" transform="rotate(-140 515.547 822.621)" fill="url(#paint0_linear_283_79)"/>
<rect opacity="0.07" x="1299.23" y="-522" width="408" height="1266.72" transform="rotate(40 1299.23 -522)" fill="url(#paint1_linear_283_79)"/>
<rect opacity="0.07" x="1184.23" y="-537" width="408" height="1266.72" transform="rotate(40 1184.23 -537)" fill="url(#paint2_linear_283_79)"/>
<rect opacity="0.12" width="408" height="1524.09" transform="matrix(-0.766044 0.642788 0.642788 0.766044 334.547 -565)" fill="url(#paint3_linear_283_79)"/>
<g opacity="0.88" filter="url(#filter0_f_283_79)">
<path d="M278.374 597.089C278.374 615.069 183.191 662.199 164.266 662.199C145.342 662.199 130 647.624 130 629.644C130 611.665 145.342 597.089 164.266 597.089C196.134 509.843 278.374 579.11 278.374 597.089Z" fill="#DAF8FF"/>
<path d="M485 716.891C485 734.87 389.818 782 370.893 782C351.968 782 336.626 767.425 336.626 749.445C336.626 731.466 351.968 716.891 370.893 716.891C402.761 629.644 485 698.911 485 716.891Z" fill="#DAF8FF"/>
</g>
<rect opacity="0.1" x="1120.27" y="-77" width="408" height="842.074" transform="rotate(40 1120.27 -77)" fill="url(#paint4_linear_283_79)"/>
<g opacity="0.53" filter="url(#filter1_f_283_79)">
<circle cx="1287" cy="-53" r="50" fill="#557079" fill-opacity="0.54"/>
</g>
<g opacity="0.53" filter="url(#filter2_f_283_79)">
<circle cx="1163" cy="-27" r="50" fill="#C3F9FF" fill-opacity="0.32"/>
</g>
<g opacity="0.53" filter="url(#filter3_f_283_79)">
<circle cx="700" cy="500" r="50" fill="#C3F9FF" fill-opacity="0.18"/>
</g>
<path d="M827.674 485.91L818.8 469.261L819.604 468.303L837.734 473.921L836.689 475.166L831.727 473.613L826.231 480.163L828.687 484.704L827.674 485.91ZM825.534 478.893L830.339 473.167L820.817 470.202L825.534 478.893ZM849.917 459.403L836.511 448.154L840.448 443.462C841.166 442.607 841.944 442.003 842.783 441.652C843.627 441.294 844.479 441.193 845.338 441.348C846.196 441.492 847.012 441.888 847.784 442.536C848.461 443.104 848.927 443.767 849.183 444.526C849.437 445.272 849.481 446.076 849.314 446.936C849.146 447.785 848.762 448.644 848.164 449.512L857.823 449.98L856.634 451.398L847.042 450.888L844.969 453.359L850.849 458.292L849.917 459.403ZM843.935 452.491L846.667 449.235C847.561 448.169 848.019 447.144 848.039 446.161C848.059 445.165 847.663 444.327 846.852 443.647C846.01 442.94 845.116 442.625 844.17 442.702C843.224 442.778 842.302 443.353 841.402 444.426L838.477 447.911L843.935 452.491ZM870.511 434.859L857.106 423.61L858.038 422.499L871.444 433.748L870.511 434.859ZM888.617 413.865C887.91 414.707 887.107 415.437 886.209 416.054C885.304 416.666 884.408 417.066 883.519 417.256L883.114 415.872C883.671 415.741 884.212 415.543 884.739 415.278C885.266 415.013 885.77 414.691 886.252 414.311C886.732 413.92 887.181 413.476 887.599 412.978C888.515 411.886 889.028 410.827 889.14 409.8C889.25 408.761 888.874 407.88 888.012 407.157C887.4 406.643 886.697 406.423 885.905 406.498C885.119 406.567 884.063 407.041 882.738 407.92L880.909 409.127C879.595 409.993 878.439 410.476 877.442 410.575C876.445 410.662 875.521 410.349 874.672 409.637C874.091 409.15 873.668 408.604 873.402 408C873.13 407.391 873.006 406.748 873.029 406.072C873.052 405.384 873.216 404.689 873.521 403.988C873.826 403.276 874.262 402.581 874.83 401.904C875.494 401.113 876.225 400.475 877.022 399.991C877.82 399.507 878.603 399.19 879.37 399.04L879.719 400.394C879.226 400.502 878.738 400.675 878.256 400.912C877.774 401.15 877.315 401.444 876.879 401.796C876.436 402.142 876.032 402.532 875.668 402.966C875.111 403.63 874.72 404.303 874.496 404.985C874.271 405.656 874.232 406.298 874.38 406.912C874.534 407.52 874.895 408.062 875.463 408.539C875.859 408.871 876.282 409.079 876.733 409.164C877.183 409.237 877.715 409.161 878.328 408.936C878.94 408.699 879.688 408.287 880.572 407.701L882.551 406.392C883.809 405.555 884.94 405.101 885.945 405.031C886.951 404.961 887.903 405.303 888.804 406.058C889.544 406.68 890.045 407.405 890.307 408.234C890.574 409.056 890.572 409.947 890.301 410.905C890.03 411.863 889.469 412.85 888.617 413.865ZM906.476 397.482L905.595 396.743L913.63 387.167L914.511 387.906L906.476 397.482ZM922.646 372.727L920.747 365.423L913.63 364.803L914.771 363.443L920.464 364.01L918.853 358.579L919.929 357.296L921.814 364.034L929.379 364.703L928.222 366.082L922.098 365.447L923.739 371.425L922.646 372.727ZM945.56 346.003C944.746 346.973 943.809 347.662 942.75 348.068C941.691 348.462 940.57 348.533 939.389 348.282C938.206 348.019 937.021 347.389 935.834 346.393C934.704 345.444 933.832 344.37 933.219 343.17C932.604 341.958 932.234 340.674 932.11 339.319C931.985 337.963 932.105 336.589 932.468 335.197C932.825 333.799 933.412 332.438 934.231 331.112L935.542 331.494C934.681 332.741 934.082 333.967 933.743 335.174C933.404 336.369 933.28 337.516 933.37 338.614C933.46 339.712 933.721 340.736 934.154 341.686C934.585 342.624 935.134 343.467 935.803 344.213C935.464 343.243 935.388 342.238 935.575 341.198C935.762 340.158 936.212 339.214 936.924 338.365C937.642 337.51 938.475 336.887 939.422 336.496C940.364 336.1 941.328 335.969 942.316 336.101C943.297 336.228 944.209 336.645 945.051 337.352C945.69 337.888 946.185 338.51 946.537 339.219C946.894 339.921 947.098 340.663 947.149 341.445C947.198 342.216 947.095 342.994 946.838 343.779C946.575 344.56 946.149 345.301 945.56 346.003ZM944.468 345.087C945.063 344.378 945.447 343.635 945.622 342.857C945.795 342.067 945.764 341.306 945.529 340.576C945.293 339.845 944.853 339.209 944.208 338.668C943.576 338.138 942.875 337.827 942.104 337.734C941.332 337.63 940.568 337.73 939.814 338.032C939.06 338.335 938.396 338.828 937.823 339.511C937.25 340.194 936.88 340.933 936.713 341.729C936.546 342.524 936.578 343.296 936.809 344.045C937.039 344.782 937.47 345.415 938.102 345.946C938.747 346.487 939.446 346.813 940.202 346.924C940.962 347.029 941.716 346.928 942.464 346.62C943.206 346.307 943.874 345.796 944.468 345.087ZM966.956 319.921L963.968 317.414L958.119 324.385L957.161 323.582L952.2 310.281L953.245 309.036L958.129 322.273L962.934 316.546L959.602 313.75L960.502 312.678L963.834 315.474L965.778 313.157L966.812 314.024L964.868 316.342L967.856 318.849L966.956 319.921Z" fill="white" fill-opacity="0.02"/>
<mask id="mask0_283_79" style="mask-type:alpha" maskUnits="userSpaceOnUse" x="29" y="89" width="37" height="123">
<path d="M30.0879 209.31H65V211.873H30.0879V209.31ZM63.7793 177.996H61.0938C62.3958 174.334 63.0469 170.298 63.0469 165.887C63.0469 158.579 60.2799 154.925 54.7461 154.925C50.6771 154.925 48.6426 157.301 48.6426 162.054V169.231C48.6426 175.726 45.7129 178.973 39.8535 178.973C33.1803 178.973 29.8438 174.212 29.8438 164.69C29.8438 160.784 30.332 157 31.3086 153.338H33.75C32.6107 157 32.041 160.784 32.041 164.69C32.041 172.503 34.6452 176.409 39.8535 176.409C44.0853 176.409 46.2012 174.017 46.2012 169.231V162.054C46.2012 155.592 49.0495 152.361 54.7461 152.361C61.7448 152.361 65.2441 156.87 65.2441 165.887C65.2441 170.298 64.7559 174.334 63.7793 177.996ZM47.4463 121.683C57.8467 121.683 63.0469 116.775 63.0469 106.961C63.0469 97.3255 57.8467 92.5078 47.4463 92.5078C37.1761 92.5078 32.041 97.3255 32.041 106.961C32.041 116.775 37.1761 121.683 47.4463 121.683ZM47.5928 124.49C35.7601 124.49 29.8438 118.647 29.8438 106.961C29.8438 95.4538 35.7601 89.7002 47.5928 89.7002C59.3604 89.7002 65.2441 95.4538 65.2441 106.961C65.2441 118.647 59.3604 124.49 47.5928 124.49Z" fill="white"/>
</mask>
<g mask="url(#mask0_283_79)">
<g filter="url(#filter4_f_283_79)">
<circle cx="76" cy="217" r="50" fill="#D9D9D9"/>
</g>
<g filter="url(#filter5_f_283_79)">
<circle cx="26" cy="82" r="50" fill="#D9D9D9"/>
</g>
</g>
<mask id="mask1_283_79" style="mask-type:alpha" maskUnits="userSpaceOnUse" x="31" y="31" width="194" height="37">
<path d="M45.5996 49.5439L31.8545 32.0879H34.9062L47.1133 47.6152L59.3203 32.0879H62.3721L48.6514 49.5439L62.3721 67H59.3203L47.1133 51.4727L34.9062 67H31.8545L45.5996 49.5439ZM91.2197 49.4463C91.2197 59.8467 95.3132 65.0469 103.5 65.0469C111.508 65.0469 115.512 59.8467 115.512 49.4463C115.512 39.1761 111.508 34.041 103.5 34.041C95.3132 34.041 91.2197 39.1761 91.2197 49.4463ZM88.4121 49.5928C88.4121 37.7601 93.4414 31.8438 103.5 31.8438C113.38 31.8438 118.319 37.7601 118.319 49.5928C118.319 61.3604 113.38 67.2441 103.5 67.2441C93.9622 67.2441 88.9329 61.3604 88.4121 49.5928ZM146.215 53.5723C146.215 44.5228 151.57 37.0114 162.279 31.0381L163.402 32.918C156.257 37.1986 151.83 41.585 150.121 46.0771C153.067 45.0518 155.964 44.5391 158.812 44.5391C167.341 44.5391 171.605 48.2012 171.605 55.5254C171.605 63.3379 167.431 67.2441 159.081 67.2441C150.504 67.2441 146.215 62.6868 146.215 53.5723ZM148.534 53.4258C148.534 61.1732 152.123 65.0469 159.301 65.0469C165.86 65.0469 169.14 61.873 169.14 55.5254C169.14 49.666 165.705 46.7363 158.837 46.7363C155.354 46.7363 152.229 47.2897 149.462 48.3965C148.843 49.5358 148.534 51.2122 148.534 53.4258ZM220.644 67H218.08V58.6992H198.012V56.502L213.271 32.0879H216.054L200.771 56.502H218.08V42.6348H220.644V56.502L224.501 57.3809V58.6992H220.644V67Z" fill="white"/>
</mask>
<g mask="url(#mask1_283_79)">
<g filter="url(#filter6_f_283_79)">
<circle cx="26" cy="61" r="50" fill="#D9D9D9"/>
</g>
<g filter="url(#filter7_f_283_79)">
<circle cx="115" cy="130" r="50" fill="#D9D9D9"/>
</g>
<g filter="url(#filter8_f_283_79)">
<circle cx="237" cy="32" r="50" fill="#D9D9D9"/>
</g>
</g>
<path d="M36.0001 55.6019C42.1803 58.8829 46.6152 63.891 48.0601 65.9849" stroke="#111216" stroke-width="5"/>
<path d="M54 108.5C57.6 102.5 62.8333 98.3333 65 97" stroke="#111216" stroke-width="5"/>
<path d="M109 55.5C112.6 49.5 117.833 45.3333 120 44" stroke="#111216" stroke-width="5"/>
<path opacity="0.75" d="M265.675 279.125C260.225 279.125 255.45 278 251.35 275.75C247.25 273.5 244.062 270.337 241.787 266.262C239.512 262.162 238.375 257.35 238.375 251.825C238.375 247.8 239.037 244.125 240.362 240.8C241.712 237.45 243.612 234.55 246.062 232.1C248.537 229.625 251.437 227.725 254.762 226.4C258.112 225.05 261.787 224.375 265.787 224.375C269.912 224.375 273.437 224.9 276.362 225.95C279.287 226.975 281.887 228.437 284.163 230.337L279.175 238.325C277.575 236.8 275.7 235.675 273.55 234.95C271.425 234.2 269.062 233.825 266.462 233.825C263.687 233.825 261.2 234.237 259 235.062C256.8 235.887 254.925 237.087 253.375 238.662C251.825 240.212 250.638 242.087 249.812 244.287C248.987 246.487 248.575 248.962 248.575 251.712C248.575 255.487 249.313 258.712 250.788 261.387C252.262 264.037 254.362 266.075 257.088 267.5C259.812 268.925 263.05 269.637 266.8 269.637C269.325 269.637 271.788 269.25 274.188 268.475C276.613 267.7 278.9 266.462 281.05 264.762L285.55 272.975C283.05 274.925 280.15 276.437 276.85 277.512C273.575 278.587 269.85 279.125 265.675 279.125ZM306.343 286.625L298.431 283.512L325.393 217.625L333.306 220.737L306.343 286.625ZM372.037 279.125C366.587 279.125 361.812 278 357.712 275.75C353.612 273.5 350.425 270.337 348.15 266.262C345.875 262.162 344.737 257.35 344.737 251.825C344.737 247.8 345.4 244.125 346.725 240.8C348.075 237.45 349.975 234.55 352.425 232.1C354.9 229.625 357.8 227.725 361.125 226.4C364.475 225.05 368.15 224.375 372.15 224.375C376.275 224.375 379.8 224.9 382.725 225.95C385.65 226.975 388.25 228.437 390.525 230.337L385.537 238.325C383.937 236.8 382.062 235.675 379.912 234.95C377.787 234.2 375.425 233.825 372.825 233.825C370.05 233.825 367.562 234.237 365.362 235.062C363.162 235.887 361.287 237.087 359.737 238.662C358.187 240.212 357 242.087 356.175 244.287C355.35 246.487 354.937 248.962 354.937 251.712C354.937 255.487 355.675 258.712 357.15 261.387C358.625 264.037 360.725 266.075 363.45 267.5C366.175 268.925 369.412 269.637 373.162 269.637C375.687 269.637 378.15 269.25 380.55 268.475C382.975 267.7 385.262 266.462 387.412 264.762L391.912 272.975C389.412 274.925 386.512 276.437 383.212 277.512C379.937 278.587 376.212 279.125 372.037 279.125ZM425.718 271.812V256.4H409.63V249.575H425.718V234.162H432.843V249.575H448.93V256.4H432.843V271.812H425.718ZM485.601 271.812V256.4H469.513V249.575H485.601V234.162H492.726V249.575H508.813V256.4H492.726V271.812H485.601ZM532.471 286.625L524.559 283.512L551.521 217.625L559.434 220.737L532.471 286.625ZM577.131 278V225.5H595.918C601.043 225.5 605.168 226.625 608.293 228.875C611.443 231.1 613.018 234.4 613.018 238.775C613.018 240.4 612.643 241.937 611.893 243.387C611.143 244.837 610.168 246.112 608.968 247.212C607.768 248.287 606.493 249.112 605.143 249.687C607.993 250.587 610.343 252.2 612.193 254.525C614.043 256.85 614.968 259.687 614.968 263.037C614.968 265.987 614.218 268.587 612.718 270.837C611.243 273.087 609.131 274.85 606.381 276.125C603.631 277.375 600.381 278 596.631 278H577.131ZM586.881 270.537H595.093C598.368 270.537 600.818 269.887 602.443 268.587C604.068 267.262 604.881 265.287 604.881 262.662C604.881 260.087 604.068 258.112 602.443 256.737C600.843 255.362 598.406 254.675 595.131 254.675H586.881V270.537ZM586.881 247.625H594.493C596.318 247.625 597.906 247.325 599.256 246.725C600.606 246.125 601.656 245.262 602.406 244.137C603.156 242.987 603.531 241.625 603.531 240.05C603.531 237.75 602.731 236 601.131 234.8C599.556 233.575 597.293 232.962 594.343 232.962H586.881V247.625ZM630.501 278L650.638 225.5H661.513L682.063 278H671.076L666.613 266.112H645.501L641.188 278H630.501ZM647.901 257.825H664.138L655.888 236.525L647.901 257.825ZM718.071 279.125C714.321 279.125 710.658 278.587 707.083 277.512C703.533 276.412 700.533 274.85 698.083 272.825L702.808 265.437C704.008 266.537 705.446 267.487 707.121 268.287C708.796 269.087 710.571 269.712 712.446 270.162C714.346 270.587 716.233 270.8 718.108 270.8C721.233 270.8 723.771 270.225 725.721 269.075C727.671 267.9 728.646 266.212 728.646 264.012C728.646 262.287 727.971 260.85 726.621 259.7C725.271 258.525 722.783 257.425 719.158 256.4L714.058 254.937C708.933 253.487 705.221 251.55 702.921 249.125C700.646 246.675 699.508 243.675 699.508 240.125C699.508 237.8 699.983 235.675 700.933 233.75C701.883 231.825 703.221 230.162 704.946 228.762C706.696 227.362 708.758 226.287 711.133 225.537C713.508 224.787 716.096 224.412 718.896 224.412C722.571 224.412 725.983 224.95 729.133 226.025C732.283 227.075 734.858 228.512 736.858 230.337L732.021 237.5C730.971 236.525 729.733 235.675 728.308 234.95C726.883 234.225 725.346 233.675 723.696 233.3C722.046 232.9 720.383 232.7 718.708 232.7C716.733 232.7 715.008 232.975 713.533 233.525C712.058 234.075 710.908 234.862 710.083 235.887C709.258 236.912 708.846 238.162 708.846 239.637C708.846 240.712 709.121 241.65 709.671 242.45C710.246 243.25 711.221 243.987 712.596 244.662C713.971 245.312 715.871 246 718.296 246.725L723.621 248.3C728.646 249.775 732.308 251.675 734.608 254C736.908 256.3 738.058 259.3 738.058 263C738.058 266.175 737.258 268.975 735.658 271.4C734.058 273.825 731.758 275.725 728.758 277.1C725.783 278.45 722.221 279.125 718.071 279.125ZM759.196 278V225.5H768.946V245.9H792.796V225.5H802.546V278H792.796V254.825H768.946V278H759.196Z" fill="#FFFBEA"/>
<path d="M925 27V475" stroke="#FFFDFD" stroke-opacity="0.33"/>
<g clip-path="url(#clip1_283_79)">
<path d="M1215.95 243.532V242.686L1217.78 241C1218.37 240.464 1218.84 239.998 1219.21 239.602C1219.57 239.202 1219.84 238.838 1220.01 238.51C1220.18 238.178 1220.27 237.844 1220.27 237.508C1220.27 237.02 1220.1 236.636 1219.76 236.356C1219.42 236.076 1218.96 235.936 1218.36 235.936C1217.99 235.936 1217.64 235.998 1217.29 236.122C1216.95 236.246 1216.66 236.426 1216.43 236.662L1216 235.834C1216.33 235.546 1216.71 235.328 1217.13 235.18C1217.56 235.028 1218.01 234.952 1218.49 234.952C1219.06 234.952 1219.55 235.054 1219.98 235.258C1220.41 235.458 1220.74 235.744 1220.98 236.116C1221.22 236.484 1221.34 236.918 1221.34 237.418C1221.34 237.766 1221.27 238.116 1221.13 238.468C1220.99 238.82 1220.74 239.216 1220.38 239.656C1220.02 240.092 1219.51 240.616 1218.86 241.228L1217.42 242.554H1221.55V243.532H1215.95ZM1226.33 243.712C1225.8 243.712 1225.33 243.598 1224.9 243.37C1224.48 243.142 1224.13 242.826 1223.83 242.422C1223.54 242.018 1223.31 241.552 1223.16 241.024C1223 240.496 1222.92 239.932 1222.92 239.332C1222.92 238.728 1223 238.162 1223.16 237.634C1223.31 237.106 1223.54 236.642 1223.83 236.242C1224.13 235.838 1224.48 235.522 1224.9 235.294C1225.33 235.066 1225.8 234.952 1226.33 234.952C1226.86 234.952 1227.33 235.066 1227.75 235.294C1228.17 235.522 1228.53 235.838 1228.82 236.242C1229.12 236.642 1229.34 237.106 1229.5 237.634C1229.66 238.162 1229.73 238.728 1229.73 239.332C1229.73 239.932 1229.66 240.496 1229.5 241.024C1229.34 241.552 1229.12 242.018 1228.82 242.422C1228.53 242.826 1228.17 243.142 1227.75 243.37C1227.33 243.598 1226.86 243.712 1226.33 243.712ZM1226.33 242.692C1226.67 242.692 1226.98 242.616 1227.26 242.464C1227.54 242.308 1227.78 242.084 1227.98 241.792C1228.18 241.5 1228.34 241.148 1228.44 240.736C1228.56 240.32 1228.61 239.852 1228.61 239.332C1228.61 238.64 1228.52 238.042 1228.32 237.538C1228.13 237.034 1227.86 236.646 1227.52 236.374C1227.18 236.102 1226.78 235.966 1226.33 235.966C1225.99 235.966 1225.68 236.044 1225.4 236.2C1225.12 236.356 1224.88 236.58 1224.68 236.872C1224.48 237.164 1224.32 237.518 1224.21 237.934C1224.11 238.346 1224.05 238.812 1224.05 239.332C1224.05 240.024 1224.15 240.622 1224.33 241.126C1224.53 241.63 1224.79 242.018 1225.13 242.29C1225.48 242.558 1225.88 242.692 1226.33 242.692Z" fill="#D7DAF9"/>
<path d="M1250.97 241.576L1223.5 221.62L1196.03 241.576L1206.52 273.865H1240.47L1250.97 241.576Z" stroke="#D7DAF9" stroke-linejoin="round"/>
<path d="M1219.67 215.61V213.834H1215.43V212.964L1218.55 207.21H1219.73L1216.63 212.874H1219.67V210.936H1220.66V212.874H1222.01V213.834H1220.66V215.61H1219.67ZM1226.47 215.79C1225.94 215.79 1225.47 215.676 1225.04 215.448C1224.62 215.22 1224.27 214.904 1223.97 214.5C1223.68 214.096 1223.45 213.63 1223.3 213.102C1223.14 212.574 1223.06 212.01 1223.06 211.41C1223.06 210.806 1223.14 210.24 1223.3 209.712C1223.45 209.184 1223.68 208.72 1223.97 208.32C1224.27 207.916 1224.62 207.6 1225.04 207.372C1225.47 207.144 1225.94 207.03 1226.47 207.03C1227 207.03 1227.47 207.144 1227.89 207.372C1228.31 207.6 1228.67 207.916 1228.96 208.32C1229.26 208.72 1229.48 209.184 1229.64 209.712C1229.8 210.24 1229.87 210.806 1229.87 211.41C1229.87 212.01 1229.8 212.574 1229.64 213.102C1229.48 213.63 1229.26 214.096 1228.96 214.5C1228.67 214.904 1228.31 215.22 1227.89 215.448C1227.47 215.676 1227 215.79 1226.47 215.79ZM1226.47 214.77C1226.81 214.77 1227.12 214.694 1227.4 214.542C1227.68 214.386 1227.92 214.162 1228.12 213.87C1228.32 213.578 1228.48 213.226 1228.58 212.814C1228.7 212.398 1228.75 211.93 1228.75 211.41C1228.75 210.718 1228.66 210.12 1228.46 209.616C1228.27 209.112 1228 208.724 1227.66 208.452C1227.32 208.18 1226.92 208.044 1226.47 208.044C1226.13 208.044 1225.82 208.122 1225.54 208.278C1225.26 208.434 1225.02 208.658 1224.82 208.95C1224.62 209.242 1224.46 209.596 1224.35 210.012C1224.25 210.424 1224.19 210.89 1224.19 211.41C1224.19 212.102 1224.29 212.7 1224.47 213.204C1224.67 213.708 1224.93 214.096 1225.27 214.368C1225.62 214.636 1226.02 214.77 1226.47 214.77Z" fill="#D7DAF9"/>
<path d="M1278.43 232.651L1223.5 192.74L1168.57 232.651L1189.55 297.229H1257.45L1278.43 232.651Z" stroke="#D7DAF9" stroke-linejoin="round"/>
<path d="M1219.16 186.87C1218.53 186.87 1217.98 186.736 1217.5 186.468C1217.01 186.196 1216.63 185.804 1216.36 185.292C1216.08 184.776 1215.94 184.152 1215.94 183.42C1215.94 182.712 1216.07 182.06 1216.33 181.464C1216.59 180.864 1216.96 180.332 1217.43 179.868C1217.9 179.404 1218.45 179.024 1219.09 178.728C1219.72 178.428 1220.41 178.222 1221.16 178.11L1221.55 178.998C1220.9 179.062 1220.33 179.198 1219.83 179.406C1219.33 179.614 1218.91 179.874 1218.55 180.186C1218.2 180.498 1217.92 180.844 1217.7 181.224C1217.48 181.6 1217.33 181.992 1217.24 182.4C1217.47 182.064 1217.77 181.798 1218.15 181.602C1218.53 181.402 1218.94 181.302 1219.39 181.302C1219.93 181.302 1220.41 181.416 1220.84 181.644C1221.28 181.872 1221.62 182.188 1221.88 182.592C1222.13 182.996 1222.25 183.462 1222.25 183.99C1222.25 184.394 1222.18 184.772 1222.03 185.124C1221.87 185.472 1221.66 185.776 1221.38 186.036C1221.11 186.296 1220.78 186.5 1220.4 186.648C1220.02 186.796 1219.61 186.87 1219.16 186.87ZM1219.16 185.88C1219.54 185.88 1219.88 185.804 1220.18 185.652C1220.48 185.496 1220.71 185.282 1220.89 185.01C1221.06 184.738 1221.14 184.426 1221.14 184.074C1221.14 183.73 1221.06 183.422 1220.88 183.15C1220.7 182.878 1220.47 182.662 1220.17 182.502C1219.87 182.342 1219.53 182.262 1219.16 182.262C1218.78 182.262 1218.44 182.342 1218.14 182.502C1217.85 182.662 1217.61 182.878 1217.44 183.15C1217.26 183.422 1217.17 183.73 1217.17 184.074C1217.17 184.426 1217.26 184.738 1217.42 185.01C1217.6 185.282 1217.83 185.496 1218.13 185.652C1218.43 185.804 1218.77 185.88 1219.16 185.88ZM1226.93 186.87C1226.4 186.87 1225.93 186.756 1225.5 186.528C1225.08 186.3 1224.72 185.984 1224.43 185.58C1224.14 185.176 1223.91 184.71 1223.76 184.182C1223.6 183.654 1223.52 183.09 1223.52 182.49C1223.52 181.886 1223.6 181.32 1223.76 180.792C1223.91 180.264 1224.14 179.8 1224.43 179.4C1224.72 178.996 1225.08 178.68 1225.5 178.452C1225.93 178.224 1226.4 178.11 1226.93 178.11C1227.45 178.11 1227.93 178.224 1228.35 178.452C1228.77 178.68 1229.12 178.996 1229.42 179.4C1229.72 179.8 1229.94 180.264 1230.1 180.792C1230.25 181.32 1230.33 181.886 1230.33 182.49C1230.33 183.09 1230.25 183.654 1230.1 184.182C1229.94 184.71 1229.72 185.176 1229.42 185.58C1229.12 185.984 1228.77 186.3 1228.35 186.528C1227.93 186.756 1227.45 186.87 1226.93 186.87ZM1226.93 185.85C1227.27 185.85 1227.58 185.774 1227.85 185.622C1228.13 185.466 1228.37 185.242 1228.57 184.95C1228.78 184.658 1228.93 184.306 1229.04 183.894C1229.15 183.478 1229.21 183.01 1229.21 182.49C1229.21 181.798 1229.11 181.2 1228.92 180.696C1228.73 180.192 1228.46 179.804 1228.12 179.532C1227.78 179.26 1227.38 179.124 1226.93 179.124C1226.59 179.124 1226.28 179.202 1226 179.358C1225.72 179.514 1225.48 179.738 1225.27 180.03C1225.07 180.322 1224.92 180.676 1224.81 181.092C1224.7 181.504 1224.65 181.97 1224.65 182.49C1224.65 183.182 1224.74 183.78 1224.93 184.284C1225.12 184.788 1225.39 185.176 1225.73 185.448C1226.07 185.716 1226.47 185.85 1226.93 185.85Z" fill="#D7DAF9"/>
<path d="M1305.9 223.727L1223.5 163.86L1141.1 223.727L1172.57 320.593H1274.43L1305.9 223.727Z" stroke="#D7DAF9" stroke-linejoin="round"/>
<path d="M1218.86 157.95C1218.25 157.95 1217.72 157.838 1217.27 157.614C1216.83 157.39 1216.49 157.088 1216.24 156.708C1216 156.328 1215.88 155.902 1215.88 155.43C1215.88 155.09 1215.94 154.788 1216.06 154.524C1216.19 154.26 1216.36 154.03 1216.6 153.834C1216.83 153.638 1217.11 153.476 1217.44 153.348C1217.11 153.216 1216.81 152.992 1216.55 152.676C1216.3 152.36 1216.17 151.962 1216.17 151.482C1216.17 151.042 1216.29 150.65 1216.52 150.306C1216.75 149.958 1217.07 149.686 1217.48 149.49C1217.89 149.29 1218.35 149.19 1218.88 149.19C1219.41 149.19 1219.88 149.29 1220.29 149.49C1220.7 149.69 1221.03 149.964 1221.26 150.312C1221.49 150.656 1221.61 151.046 1221.61 151.482C1221.61 151.802 1221.55 152.086 1221.43 152.334C1221.31 152.582 1221.15 152.792 1220.96 152.964C1220.77 153.132 1220.56 153.26 1220.33 153.348C1220.79 153.536 1221.16 153.804 1221.44 154.152C1221.72 154.496 1221.86 154.922 1221.86 155.43C1221.86 155.902 1221.74 156.328 1221.49 156.708C1221.24 157.088 1220.89 157.39 1220.44 157.614C1219.99 157.838 1219.47 157.95 1218.86 157.95ZM1218.88 156.984C1219.21 156.984 1219.52 156.926 1219.8 156.81C1220.09 156.69 1220.32 156.512 1220.49 156.276C1220.67 156.04 1220.75 155.748 1220.75 155.4C1220.75 155.056 1220.67 154.766 1220.5 154.53C1220.34 154.294 1220.11 154.116 1219.83 153.996C1219.55 153.872 1219.23 153.81 1218.88 153.81C1218.34 153.81 1217.89 153.948 1217.53 154.224C1217.17 154.496 1216.99 154.888 1216.99 155.4C1216.99 155.748 1217.08 156.04 1217.25 156.276C1217.42 156.512 1217.65 156.69 1217.93 156.81C1218.22 156.926 1218.54 156.984 1218.88 156.984ZM1218.89 152.868C1219.21 152.868 1219.5 152.814 1219.75 152.706C1220 152.594 1220.2 152.438 1220.34 152.238C1220.48 152.038 1220.55 151.8 1220.55 151.524C1220.55 151.116 1220.4 150.774 1220.09 150.498C1219.78 150.222 1219.38 150.084 1218.89 150.084C1218.56 150.084 1218.26 150.148 1218.01 150.276C1217.76 150.4 1217.57 150.572 1217.43 150.792C1217.29 151.008 1217.22 151.252 1217.22 151.524C1217.22 151.936 1217.38 152.264 1217.69 152.508C1218 152.748 1218.4 152.868 1218.89 152.868ZM1226.62 157.95C1226.1 157.95 1225.62 157.836 1225.2 157.608C1224.78 157.38 1224.42 157.064 1224.12 156.66C1223.83 156.256 1223.61 155.79 1223.45 155.262C1223.29 154.734 1223.22 154.17 1223.22 153.57C1223.22 152.966 1223.29 152.4 1223.45 151.872C1223.61 151.344 1223.83 150.88 1224.12 150.48C1224.42 150.076 1224.78 149.76 1225.2 149.532C1225.62 149.304 1226.1 149.19 1226.62 149.19C1227.15 149.19 1227.62 149.304 1228.04 149.532C1228.46 149.76 1228.82 150.076 1229.11 150.48C1229.41 150.88 1229.64 151.344 1229.79 151.872C1229.95 152.4 1230.03 152.966 1230.03 153.57C1230.03 154.17 1229.95 154.734 1229.79 155.262C1229.64 155.79 1229.41 156.256 1229.11 156.66C1228.82 157.064 1228.46 157.38 1228.04 157.608C1227.62 157.836 1227.15 157.95 1226.62 157.95ZM1226.62 156.93C1226.96 156.93 1227.27 156.854 1227.55 156.702C1227.83 156.546 1228.07 156.322 1228.27 156.03C1228.47 155.738 1228.63 155.386 1228.74 154.974C1228.85 154.558 1228.9 154.09 1228.9 153.57C1228.9 152.878 1228.81 152.28 1228.62 151.776C1228.42 151.272 1228.16 150.884 1227.81 150.612C1227.47 150.34 1227.08 150.204 1226.62 150.204C1226.28 150.204 1225.97 150.282 1225.69 150.438C1225.41 150.594 1225.17 150.818 1224.97 151.11C1224.77 151.402 1224.61 151.756 1224.51 152.172C1224.4 152.584 1224.34 153.05 1224.34 153.57C1224.34 154.262 1224.44 154.86 1224.63 155.364C1224.82 155.868 1225.08 156.256 1225.42 156.528C1225.77 156.796 1226.17 156.93 1226.62 156.93Z" fill="#D7DAF9"/>
<path d="M1333.37 214.802L1223.5 134.98L1113.63 214.802L1155.6 343.958H1291.4L1333.37 214.802Z" stroke="#D7DAF9" stroke-linejoin="round"/>
<path d="M1214.88 128.85V121.614L1212.61 122.454L1212.32 121.584L1215.85 120.27H1215.93V128.85H1214.88ZM1221.37 129.03C1220.84 129.03 1220.37 128.916 1219.94 128.688C1219.52 128.46 1219.16 128.144 1218.87 127.74C1218.58 127.336 1218.35 126.87 1218.2 126.342C1218.04 125.814 1217.96 125.25 1217.96 124.65C1217.96 124.046 1218.04 123.48 1218.2 122.952C1218.35 122.424 1218.58 121.96 1218.87 121.56C1219.16 121.156 1219.52 120.84 1219.94 120.612C1220.37 120.384 1220.84 120.27 1221.37 120.27C1221.89 120.27 1222.37 120.384 1222.79 120.612C1223.21 120.84 1223.56 121.156 1223.86 121.56C1224.16 121.96 1224.38 122.424 1224.54 122.952C1224.69 123.48 1224.77 124.046 1224.77 124.65C1224.77 125.25 1224.69 125.814 1224.54 126.342C1224.38 126.87 1224.16 127.336 1223.86 127.74C1223.56 128.144 1223.21 128.46 1222.79 128.688C1222.37 128.916 1221.89 129.03 1221.37 129.03ZM1221.37 128.01C1221.71 128.01 1222.02 127.934 1222.29 127.782C1222.57 127.626 1222.81 127.402 1223.01 127.11C1223.22 126.818 1223.37 126.466 1223.48 126.054C1223.59 125.638 1223.65 125.17 1223.65 124.65C1223.65 123.958 1223.55 123.36 1223.36 122.856C1223.17 122.352 1222.9 121.964 1222.56 121.692C1222.22 121.42 1221.82 121.284 1221.37 121.284C1221.03 121.284 1220.72 121.362 1220.44 121.518C1220.16 121.674 1219.92 121.898 1219.71 122.19C1219.51 122.482 1219.36 122.836 1219.25 123.252C1219.14 123.664 1219.09 124.13 1219.09 124.65C1219.09 125.342 1219.18 125.94 1219.37 126.444C1219.56 126.948 1219.83 127.336 1220.17 127.608C1220.51 127.876 1220.91 128.01 1221.37 128.01ZM1229.5 129.03C1228.98 129.03 1228.5 128.916 1228.08 128.688C1227.66 128.46 1227.3 128.144 1227 127.74C1226.71 127.336 1226.49 126.87 1226.33 126.342C1226.17 125.814 1226.1 125.25 1226.1 124.65C1226.1 124.046 1226.17 123.48 1226.33 122.952C1226.49 122.424 1226.71 121.96 1227 121.56C1227.3 121.156 1227.66 120.84 1228.08 120.612C1228.5 120.384 1228.98 120.27 1229.5 120.27C1230.03 120.27 1230.5 120.384 1230.92 120.612C1231.34 120.84 1231.7 121.156 1231.99 121.56C1232.29 121.96 1232.52 122.424 1232.67 122.952C1232.83 123.48 1232.91 124.046 1232.91 124.65C1232.91 125.25 1232.83 125.814 1232.67 126.342C1232.52 126.87 1232.29 127.336 1231.99 127.74C1231.7 128.144 1231.34 128.46 1230.92 128.688C1230.5 128.916 1230.03 129.03 1229.5 129.03ZM1229.5 128.01C1229.84 128.01 1230.15 127.934 1230.43 127.782C1230.71 127.626 1230.95 127.402 1231.15 127.11C1231.35 126.818 1231.51 126.466 1231.62 126.054C1231.73 125.638 1231.78 125.17 1231.78 124.65C1231.78 123.958 1231.69 123.36 1231.5 122.856C1231.3 122.352 1231.04 121.964 1230.69 121.692C1230.35 121.42 1229.96 121.284 1229.5 121.284C1229.16 121.284 1228.85 121.362 1228.57 121.518C1228.29 121.674 1228.05 121.898 1227.85 122.19C1227.65 122.482 1227.49 122.836 1227.39 123.252C1227.28 123.664 1227.22 124.13 1227.22 124.65C1227.22 125.342 1227.32 125.94 1227.51 126.444C1227.7 126.948 1227.96 127.336 1228.3 127.608C1228.65 127.876 1229.05 128.01 1229.5 128.01Z" fill="#D7DAF9"/>
<path d="M1187.48 92.9614V86.6614H1189.59C1190.03 86.6614 1190.41 86.7349 1190.73 86.8819C1191.06 87.0289 1191.32 87.2404 1191.51 87.5164C1191.69 87.7924 1191.79 88.1224 1191.79 88.5064C1191.79 88.9054 1191.7 89.2414 1191.53 89.5144C1191.36 89.7844 1191.11 89.9899 1190.78 90.1309C1190.45 90.2689 1190.05 90.3379 1189.58 90.3379H1188.16V92.9614H1187.48ZM1188.16 89.7259H1189.63C1190.09 89.7259 1190.46 89.6254 1190.72 89.4244C1190.97 89.2204 1191.1 88.9219 1191.1 88.5289C1191.1 88.1419 1190.97 87.8374 1190.71 87.6154C1190.45 87.3904 1190.09 87.2779 1189.64 87.2779H1188.16V89.7259ZM1193.58 92.9614V86.6614H1195.84C1196.26 86.6614 1196.61 86.7364 1196.91 86.8864C1197.22 87.0364 1197.45 87.2494 1197.61 87.5254C1197.78 87.7984 1197.86 88.1194 1197.86 88.4884C1197.86 88.8064 1197.79 89.0869 1197.64 89.3299C1197.5 89.5729 1197.29 89.7709 1197.03 89.9239C1196.77 90.0739 1196.46 90.1699 1196.1 90.2119L1198.14 92.9614H1197.29L1195.33 90.2704H1194.26V92.9614H1193.58ZM1194.26 89.6674H1195.69C1196.16 89.6674 1196.52 89.5639 1196.78 89.3569C1197.04 89.1499 1197.17 88.8664 1197.17 88.5064C1197.17 88.1314 1197.06 87.8314 1196.83 87.6064C1196.6 87.3814 1196.25 87.2689 1195.78 87.2689H1194.26V89.6674ZM1202.76 93.0964C1202.3 93.0964 1201.87 93.0139 1201.46 92.8489C1201.07 92.6809 1200.72 92.4484 1200.42 92.1514C1200.13 91.8544 1199.9 91.5064 1199.73 91.1074C1199.56 90.7084 1199.48 90.2764 1199.48 89.8114C1199.48 89.3434 1199.56 88.9099 1199.73 88.5109C1199.9 88.1119 1200.13 87.7639 1200.42 87.4669C1200.72 87.1699 1201.07 86.9389 1201.46 86.7739C1201.87 86.6089 1202.3 86.5264 1202.76 86.5264C1203.23 86.5264 1203.66 86.6104 1204.06 86.7784C1204.46 86.9464 1204.8 87.1804 1205.1 87.4804C1205.4 87.7804 1205.63 88.1299 1205.79 88.5289C1205.96 88.9249 1206.05 89.3524 1206.05 89.8114C1206.05 90.2764 1205.96 90.7084 1205.79 91.1074C1205.63 91.5064 1205.4 91.8544 1205.1 92.1514C1204.8 92.4484 1204.46 92.6809 1204.06 92.8489C1203.66 93.0139 1203.23 93.0964 1202.76 93.0964ZM1202.76 92.4439C1203.12 92.4439 1203.46 92.3824 1203.77 92.2594C1204.08 92.1334 1204.35 91.9549 1204.59 91.7239C1204.82 91.4899 1205 91.2124 1205.14 90.8914C1205.27 90.5674 1205.33 90.2074 1205.33 89.8114C1205.33 89.2834 1205.22 88.8229 1204.99 88.4299C1204.76 88.0339 1204.45 87.7264 1204.06 87.5074C1203.67 87.2884 1203.24 87.1789 1202.76 87.1789C1202.41 87.1789 1202.07 87.2419 1201.76 87.3679C1201.45 87.4909 1201.18 87.6679 1200.94 87.8989C1200.71 88.1299 1200.52 88.4074 1200.39 88.7314C1200.26 89.0524 1200.19 89.4124 1200.19 89.8114C1200.19 90.3394 1200.31 90.8014 1200.54 91.1974C1200.77 91.5904 1201.08 91.8964 1201.46 92.1154C1201.85 92.3344 1202.29 92.4439 1202.76 92.4439ZM1211.13 93.0964C1210.62 93.0964 1210.15 93.0199 1209.73 92.8669C1209.3 92.7109 1208.93 92.4889 1208.62 92.2009C1208.3 91.9129 1208.06 91.5694 1207.89 91.1704C1207.72 90.7684 1207.63 90.3199 1207.63 89.8249C1207.63 89.3329 1207.71 88.8859 1207.88 88.4839C1208.05 88.0789 1208.28 87.7309 1208.58 87.4399C1208.88 87.1459 1209.24 86.9209 1209.65 86.7649C1210.07 86.6059 1210.52 86.5264 1211.02 86.5264C1211.25 86.5264 1211.48 86.5459 1211.7 86.5849C1211.93 86.6209 1212.15 86.6794 1212.36 86.7604C1212.57 86.8384 1212.76 86.9419 1212.94 87.0709L1212.63 87.6199C1212.39 87.4699 1212.13 87.3574 1211.85 87.2824C1211.57 87.2074 1211.28 87.1699 1211 87.1699C1210.6 87.1699 1210.23 87.2314 1209.9 87.3544C1209.58 87.4774 1209.3 87.6544 1209.06 87.8854C1208.83 88.1164 1208.65 88.3939 1208.53 88.7179C1208.4 89.0419 1208.34 89.4064 1208.34 89.8114C1208.34 90.3724 1208.45 90.8524 1208.69 91.2514C1208.93 91.6474 1209.25 91.9504 1209.67 92.1604C1210.1 92.3704 1210.59 92.4754 1211.15 92.4754C1211.45 92.4754 1211.72 92.4454 1211.95 92.3854C1212.18 92.3254 1212.36 92.2579 1212.49 92.1829V90.3919H1210.97V89.7889H1213.13V92.5519C1212.98 92.6659 1212.78 92.7634 1212.54 92.8444C1212.3 92.9254 1212.05 92.9869 1211.8 93.0289C1211.54 93.0739 1211.32 93.0964 1211.13 93.0964ZM1215.33 92.9614V86.6614H1217.59C1218 86.6614 1218.36 86.7364 1218.66 86.8864C1218.96 87.0364 1219.2 87.2494 1219.36 87.5254C1219.52 87.7984 1219.61 88.1194 1219.61 88.4884C1219.61 88.8064 1219.53 89.0869 1219.39 89.3299C1219.25 89.5729 1219.04 89.7709 1218.78 89.9239C1218.52 90.0739 1218.21 90.1699 1217.85 90.2119L1219.89 92.9614H1219.04L1217.07 90.2704H1216.01V92.9614H1215.33ZM1216.01 89.6674H1217.43C1217.9 89.6674 1218.27 89.5639 1218.53 89.3569C1218.79 89.1499 1218.92 88.8664 1218.92 88.5064C1218.92 88.1314 1218.8 87.8314 1218.57 87.6064C1218.35 87.3814 1218 87.2689 1217.53 87.2689H1216.01V89.6674ZM1220.98 92.9614L1223.48 86.6614H1224.15L1226.75 92.9614H1225.98L1225.31 91.3099H1222.37L1221.72 92.9614H1220.98ZM1222.58 90.6934H1225.09L1223.8 87.5704L1222.58 90.6934ZM1228.31 92.9614V86.6614H1228.97L1231.66 90.9814L1231.4 90.9859L1234.01 86.6614H1234.66V92.9614H1233.98L1233.98 87.6244L1234.12 87.6694L1231.77 91.4899H1231.2L1228.82 87.6694L1228.93 87.6244L1228.93 92.9614H1228.31ZM1236.94 92.9614V86.6614H1237.61L1240.29 90.9814L1240.04 90.9859L1242.65 86.6614H1243.29V92.9614H1242.61L1242.62 87.6244L1242.76 87.6694L1240.4 91.4899H1239.84L1237.46 87.6694L1237.56 87.6244L1237.57 92.9614H1236.94ZM1245.58 92.9614V86.6614H1246.26V92.9614H1245.58ZM1248.54 92.9614V86.6614H1249.16L1252.73 91.7149V86.6614H1253.41V92.9614H1252.79L1249.22 87.8539V92.9614H1248.54ZM1258.79 93.0964C1258.28 93.0964 1257.82 93.0199 1257.39 92.8669C1256.97 92.7109 1256.6 92.4889 1256.28 92.2009C1255.97 91.9129 1255.73 91.5694 1255.55 91.1704C1255.38 90.7684 1255.29 90.3199 1255.29 89.8249C1255.29 89.3329 1255.38 88.8859 1255.54 88.4839C1255.71 88.0789 1255.94 87.7309 1256.24 87.4399C1256.55 87.1459 1256.9 86.9209 1257.32 86.7649C1257.73 86.6059 1258.18 86.5264 1258.68 86.5264C1258.91 86.5264 1259.14 86.5459 1259.37 86.5849C1259.6 86.6209 1259.81 86.6794 1260.02 86.7604C1260.23 86.8384 1260.43 86.9419 1260.6 87.0709L1260.29 87.6199C1260.05 87.4699 1259.79 87.3574 1259.51 87.2824C1259.23 87.2074 1258.95 87.1699 1258.66 87.1699C1258.26 87.1699 1257.89 87.2314 1257.57 87.3544C1257.24 87.4774 1256.96 87.6544 1256.73 87.8854C1256.49 88.1164 1256.32 88.3939 1256.19 88.7179C1256.06 89.0419 1256 89.4064 1256 89.8114C1256 90.3724 1256.12 90.8524 1256.35 91.2514C1256.59 91.6474 1256.92 91.9504 1257.34 92.1604C1257.76 92.3704 1258.25 92.4754 1258.81 92.4754C1259.12 92.4754 1259.38 92.4454 1259.61 92.3854C1259.85 92.3254 1260.02 92.2579 1260.15 92.1829V90.3919H1258.63V89.7889H1260.79V92.5519C1260.64 92.6659 1260.44 92.7634 1260.2 92.8444C1259.96 92.9254 1259.72 92.9869 1259.46 93.0289C1259.21 93.0739 1258.98 93.0964 1258.79 93.0964Z" fill="#DFEEFE"/>
<path d="M1354.97 191.823C1354.56 191.823 1354.16 191.767 1353.77 191.656C1353.38 191.542 1353.05 191.379 1352.78 191.166L1353.14 190.621C1353.3 190.747 1353.47 190.854 1353.67 190.941C1353.87 191.028 1354.08 191.094 1354.29 191.139C1354.52 191.184 1354.74 191.206 1354.97 191.206C1355.45 191.206 1355.84 191.112 1356.13 190.923C1356.42 190.731 1356.57 190.45 1356.57 190.081C1356.57 189.814 1356.47 189.588 1356.28 189.402C1356.09 189.216 1355.73 189.046 1355.21 188.893L1354.49 188.682C1353.93 188.517 1353.52 188.302 1353.26 188.038C1352.99 187.774 1352.86 187.44 1352.86 187.035C1352.86 186.759 1352.92 186.513 1353.03 186.297C1353.13 186.078 1353.29 185.89 1353.48 185.734C1353.68 185.578 1353.91 185.46 1354.18 185.379C1354.45 185.295 1354.75 185.253 1355.07 185.253C1355.46 185.253 1355.82 185.31 1356.16 185.424C1356.49 185.538 1356.77 185.688 1356.99 185.874L1356.63 186.396C1356.49 186.282 1356.33 186.186 1356.15 186.108C1355.98 186.027 1355.79 185.965 1355.6 185.923C1355.4 185.881 1355.2 185.86 1354.99 185.86C1354.7 185.86 1354.44 185.904 1354.22 185.991C1354 186.078 1353.82 186.205 1353.7 186.373C1353.57 186.541 1353.51 186.748 1353.51 186.994C1353.51 187.165 1353.55 187.317 1353.62 187.449C1353.71 187.578 1353.84 187.696 1354.04 187.804C1354.23 187.909 1354.5 188.013 1354.85 188.115L1355.63 188.344C1356.17 188.503 1356.57 188.716 1356.83 188.983C1357.09 189.247 1357.22 189.594 1357.22 190.023C1357.22 190.38 1357.13 190.693 1356.95 190.963C1356.78 191.233 1356.53 191.445 1356.19 191.598C1355.86 191.748 1355.45 191.823 1354.97 191.823ZM1361.97 191.823C1361.32 191.823 1360.75 191.686 1360.27 191.413C1359.78 191.14 1359.41 190.756 1359.14 190.261C1358.88 189.766 1358.74 189.19 1358.74 188.533C1358.74 188.056 1358.82 187.62 1358.98 187.224C1359.14 186.825 1359.36 186.478 1359.65 186.184C1359.94 185.887 1360.28 185.658 1360.68 185.496C1361.07 185.334 1361.51 185.253 1361.98 185.253C1362.42 185.253 1362.82 185.31 1363.17 185.424C1363.51 185.535 1363.81 185.692 1364.05 185.896L1363.67 186.454C1363.46 186.268 1363.22 186.13 1362.94 186.04C1362.66 185.95 1362.36 185.905 1362.03 185.905C1361.64 185.905 1361.29 185.967 1360.97 186.09C1360.65 186.213 1360.38 186.388 1360.15 186.616C1359.93 186.841 1359.76 187.116 1359.63 187.44C1359.51 187.761 1359.45 188.124 1359.45 188.529C1359.45 189.087 1359.56 189.562 1359.78 189.955C1359.99 190.345 1360.3 190.644 1360.69 190.851C1361.09 191.058 1361.55 191.161 1362.09 191.161C1362.43 191.161 1362.75 191.112 1363.06 191.013C1363.37 190.911 1363.65 190.744 1363.92 190.513L1364.24 191.098C1363.93 191.344 1363.58 191.527 1363.21 191.647C1362.83 191.764 1362.42 191.823 1361.97 191.823ZM1365.94 191.688V185.388H1368.21C1368.62 185.388 1368.98 185.463 1369.28 185.613C1369.58 185.763 1369.81 185.976 1369.98 186.252C1370.14 186.525 1370.22 186.846 1370.22 187.215C1370.22 187.533 1370.15 187.813 1370.01 188.056C1369.86 188.299 1369.66 188.497 1369.4 188.65C1369.13 188.8 1368.83 188.896 1368.47 188.938L1370.51 191.688H1369.66L1367.69 188.997H1366.63V191.688H1365.94ZM1366.63 188.394H1368.05C1368.52 188.394 1368.89 188.29 1369.14 188.083C1369.4 187.876 1369.54 187.593 1369.54 187.233C1369.54 186.858 1369.42 186.558 1369.19 186.333C1368.97 186.108 1368.62 185.995 1368.14 185.995H1366.63V188.394ZM1372.33 191.688V185.388H1373.01V191.688H1372.33ZM1375.29 191.688V185.388H1377.41C1377.84 185.388 1378.23 185.461 1378.55 185.608C1378.88 185.755 1379.14 185.967 1379.33 186.243C1379.51 186.519 1379.61 186.849 1379.61 187.233C1379.61 187.632 1379.52 187.968 1379.35 188.241C1379.18 188.511 1378.93 188.716 1378.6 188.857C1378.27 188.995 1377.87 189.064 1377.4 189.064H1375.98V191.688H1375.29ZM1375.98 188.452H1377.45C1377.91 188.452 1378.28 188.352 1378.53 188.151C1378.79 187.947 1378.92 187.648 1378.92 187.255C1378.92 186.868 1378.79 186.564 1378.53 186.342C1378.26 186.117 1377.91 186.004 1377.45 186.004H1375.98V188.452ZM1382.65 191.688V186.018H1380.82V185.388H1385.16V186.018H1383.33V191.688H1382.65ZM1386.87 191.688V185.388H1387.55V191.688H1386.87ZM1389.83 191.688V185.388H1390.46L1394.02 190.441V185.388H1394.7V191.688H1394.08L1390.51 186.58V191.688H1389.83ZM1400.08 191.823C1399.58 191.823 1399.11 191.746 1398.69 191.593C1398.26 191.437 1397.89 191.215 1397.57 190.927C1397.26 190.639 1397.02 190.296 1396.84 189.897C1396.67 189.495 1396.59 189.046 1396.59 188.551C1396.59 188.059 1396.67 187.612 1396.84 187.21C1397 186.805 1397.24 186.457 1397.54 186.166C1397.84 185.872 1398.2 185.647 1398.61 185.491C1399.02 185.332 1399.48 185.253 1399.97 185.253C1400.2 185.253 1400.43 185.272 1400.66 185.311C1400.89 185.347 1401.11 185.406 1401.32 185.487C1401.53 185.565 1401.72 185.668 1401.9 185.797L1401.58 186.346C1401.35 186.196 1401.09 186.084 1400.8 186.009C1400.52 185.934 1400.24 185.896 1399.95 185.896C1399.55 185.896 1399.19 185.958 1398.86 186.081C1398.53 186.204 1398.25 186.381 1398.02 186.612C1397.79 186.843 1397.61 187.12 1397.48 187.444C1397.36 187.768 1397.29 188.133 1397.29 188.538C1397.29 189.099 1397.41 189.579 1397.65 189.978C1397.88 190.374 1398.21 190.677 1398.63 190.887C1399.05 191.097 1399.55 191.202 1400.11 191.202C1400.41 191.202 1400.68 191.172 1400.91 191.112C1401.14 191.052 1401.32 190.984 1401.44 190.909V189.118H1399.92V188.515H1402.08V191.278C1401.93 191.392 1401.74 191.49 1401.5 191.571C1401.26 191.652 1401.01 191.713 1400.76 191.755C1400.5 191.8 1400.28 191.823 1400.08 191.823Z" fill="#DFEEFE"/>
<path d="M1299.17 389.141V382.841H1299.85V388.506H1302.74V389.141H1299.17ZM1304.5 389.141V382.841H1308.33V383.462H1305.18V385.518H1307.95V386.121H1305.18V388.515H1308.35V389.141H1304.5ZM1309.68 389.141L1312.19 382.841H1312.85L1315.45 389.141H1314.69L1314.01 387.489H1311.07L1310.43 389.141H1309.68ZM1311.28 386.873H1313.79L1312.5 383.75L1311.28 386.873ZM1317.01 389.141V382.841H1319.27C1319.69 382.841 1320.05 382.916 1320.35 383.066C1320.65 383.216 1320.88 383.429 1321.04 383.705C1321.21 383.978 1321.29 384.299 1321.29 384.668C1321.29 384.986 1321.22 385.266 1321.07 385.509C1320.93 385.752 1320.73 385.95 1320.46 386.103C1320.2 386.253 1319.89 386.349 1319.54 386.391L1321.57 389.141H1320.72L1318.76 386.45H1317.69V389.141H1317.01ZM1317.69 385.847H1319.12C1319.59 385.847 1319.95 385.743 1320.21 385.536C1320.47 385.329 1320.6 385.046 1320.6 384.686C1320.6 384.311 1320.49 384.011 1320.26 383.786C1320.03 383.561 1319.69 383.448 1319.21 383.448H1317.69V385.847ZM1323.4 389.141V382.841H1324.02L1327.58 387.894V382.841H1328.26V389.141H1327.64L1324.07 384.033V389.141H1323.4ZM1330.54 389.141V382.841H1331.23V389.141H1330.54ZM1333.51 389.141V382.841H1334.13L1337.7 387.894V382.841H1338.37V389.141H1337.75L1334.19 384.033V389.141H1333.51ZM1343.76 389.276C1343.25 389.276 1342.79 389.199 1342.36 389.046C1341.93 388.89 1341.56 388.668 1341.25 388.38C1340.94 388.092 1340.69 387.749 1340.52 387.35C1340.35 386.948 1340.26 386.499 1340.26 386.004C1340.26 385.512 1340.35 385.065 1340.51 384.663C1340.68 384.258 1340.91 383.91 1341.21 383.619C1341.52 383.325 1341.87 383.1 1342.28 382.944C1342.7 382.785 1343.15 382.706 1343.65 382.706C1343.88 382.706 1344.11 382.725 1344.34 382.764C1344.56 382.8 1344.78 382.859 1344.99 382.94C1345.2 383.018 1345.4 383.121 1345.57 383.25L1345.26 383.799C1345.02 383.649 1344.76 383.537 1344.48 383.462C1344.2 383.387 1343.91 383.349 1343.63 383.349C1343.23 383.349 1342.86 383.411 1342.54 383.534C1342.21 383.657 1341.93 383.834 1341.69 384.065C1341.46 384.296 1341.29 384.573 1341.16 384.897C1341.03 385.221 1340.97 385.586 1340.97 385.991C1340.97 386.552 1341.09 387.032 1341.32 387.431C1341.56 387.827 1341.89 388.13 1342.31 388.34C1342.73 388.55 1343.22 388.655 1343.78 388.655C1344.09 388.655 1344.35 388.625 1344.58 388.565C1344.81 388.505 1344.99 388.437 1345.12 388.362V386.571H1343.6V385.968H1345.76V388.731C1345.61 388.845 1345.41 388.943 1345.17 389.024C1344.93 389.105 1344.69 389.166 1344.43 389.208C1344.18 389.253 1343.95 389.276 1343.76 389.276Z" fill="#DFEEFE"/>
<path d="M1116.67 389.141V382.841H1118.94C1119.35 382.841 1119.71 382.916 1120.01 383.066C1120.31 383.216 1120.54 383.429 1120.7 383.705C1120.87 383.978 1120.95 384.299 1120.95 384.668C1120.95 384.986 1120.88 385.266 1120.74 385.509C1120.59 385.752 1120.39 385.95 1120.12 386.103C1119.86 386.253 1119.55 386.349 1119.2 386.391L1121.23 389.141H1120.38L1118.42 386.45H1117.36V389.141H1116.67ZM1117.36 385.847H1118.78C1119.25 385.847 1119.61 385.743 1119.87 385.536C1120.13 385.329 1120.26 385.046 1120.26 384.686C1120.26 384.311 1120.15 384.011 1119.92 383.786C1119.7 383.561 1119.35 383.448 1118.87 383.448H1117.36V385.847ZM1123.06 389.141V382.841H1123.74V389.141H1123.06ZM1128.86 389.276C1128.21 389.276 1127.64 389.139 1127.15 388.866C1126.67 388.593 1126.29 388.209 1126.03 387.714C1125.76 387.219 1125.63 386.643 1125.63 385.986C1125.63 385.509 1125.71 385.073 1125.86 384.677C1126.02 384.278 1126.25 383.931 1126.54 383.637C1126.83 383.34 1127.17 383.111 1127.56 382.949C1127.96 382.787 1128.39 382.706 1128.86 382.706C1129.31 382.706 1129.7 382.763 1130.05 382.877C1130.39 382.988 1130.69 383.145 1130.94 383.349L1130.56 383.907C1130.35 383.721 1130.1 383.583 1129.82 383.493C1129.55 383.403 1129.25 383.358 1128.92 383.358C1128.53 383.358 1128.17 383.42 1127.85 383.543C1127.54 383.666 1127.27 383.841 1127.04 384.069C1126.81 384.294 1126.64 384.569 1126.52 384.893C1126.4 385.214 1126.34 385.577 1126.34 385.982C1126.34 386.54 1126.45 387.015 1126.66 387.408C1126.88 387.798 1127.18 388.097 1127.57 388.304C1127.97 388.511 1128.44 388.614 1128.97 388.614C1129.31 388.614 1129.64 388.565 1129.94 388.466C1130.25 388.364 1130.54 388.197 1130.8 387.966L1131.13 388.551C1130.81 388.797 1130.47 388.98 1130.09 389.1C1129.72 389.217 1129.3 389.276 1128.86 389.276ZM1132.83 389.141V382.841H1133.51V389.141H1132.83ZM1135.79 389.141V382.841H1136.42L1139.98 387.894V382.841H1140.66V389.141H1140.04L1136.47 384.033V389.141H1135.79ZM1146.04 389.276C1145.54 389.276 1145.07 389.199 1144.65 389.046C1144.22 388.89 1143.85 388.668 1143.53 388.38C1143.22 388.092 1142.98 387.749 1142.8 387.35C1142.63 386.948 1142.55 386.499 1142.55 386.004C1142.55 385.512 1142.63 385.065 1142.8 384.663C1142.96 384.258 1143.2 383.91 1143.5 383.619C1143.8 383.325 1144.16 383.1 1144.57 382.944C1144.98 382.785 1145.44 382.706 1145.93 382.706C1146.16 382.706 1146.39 382.725 1146.62 382.764C1146.85 382.8 1147.07 382.859 1147.28 382.94C1147.49 383.018 1147.68 383.121 1147.86 383.25L1147.54 383.799C1147.31 383.649 1147.05 383.537 1146.76 383.462C1146.48 383.387 1146.2 383.349 1145.91 383.349C1145.51 383.349 1145.15 383.411 1144.82 383.534C1144.49 383.657 1144.21 383.834 1143.98 384.065C1143.75 384.296 1143.57 384.573 1143.44 384.897C1143.32 385.221 1143.25 385.586 1143.25 385.991C1143.25 386.552 1143.37 387.032 1143.61 387.431C1143.84 387.827 1144.17 388.13 1144.59 388.34C1145.01 388.55 1145.51 388.655 1146.07 388.655C1146.37 388.655 1146.64 388.625 1146.87 388.565C1147.1 388.505 1147.28 388.437 1147.4 388.362V386.571H1145.88V385.968H1148.04V388.731C1147.89 388.845 1147.7 388.943 1147.46 389.024C1147.22 389.105 1146.97 389.166 1146.72 389.208C1146.46 389.253 1146.24 389.276 1146.04 389.276Z" fill="#DFEEFE"/>
<path d="M1045.12 186.702V181.032H1043.29V180.402H1047.64V181.032H1045.81V186.702H1045.12ZM1049.34 186.702V180.402H1050.03V183.016H1053.46V180.402H1054.14V186.702H1053.46V183.651H1050.03V186.702H1049.34ZM1056.42 186.702V180.402H1060.25V181.023H1057.11V183.079H1059.87V183.682H1057.11V186.076H1060.28V186.702H1056.42ZM1065.23 186.837C1064.77 186.837 1064.33 186.754 1063.93 186.589C1063.53 186.421 1063.18 186.189 1062.89 185.892C1062.59 185.595 1062.36 185.247 1062.19 184.848C1062.03 184.449 1061.95 184.017 1061.95 183.552C1061.95 183.084 1062.03 182.65 1062.19 182.251C1062.36 181.852 1062.59 181.504 1062.89 181.207C1063.18 180.91 1063.53 180.679 1063.93 180.514C1064.33 180.349 1064.77 180.267 1065.23 180.267C1065.69 180.267 1066.12 180.351 1066.52 180.519C1066.92 180.687 1067.27 180.921 1067.57 181.221C1067.86 181.521 1068.09 181.87 1068.26 182.269C1068.43 182.665 1068.51 183.093 1068.51 183.552C1068.51 184.017 1068.43 184.449 1068.26 184.848C1068.09 185.247 1067.86 185.595 1067.57 185.892C1067.27 186.189 1066.92 186.421 1066.52 186.589C1066.12 186.754 1065.69 186.837 1065.23 186.837ZM1065.23 186.184C1065.59 186.184 1065.92 186.123 1066.23 186C1066.55 185.874 1066.82 185.695 1067.05 185.464C1067.29 185.23 1067.47 184.953 1067.6 184.632C1067.73 184.308 1067.8 183.948 1067.8 183.552C1067.8 183.024 1067.68 182.563 1067.45 182.17C1067.23 181.774 1066.92 181.467 1066.53 181.248C1066.14 181.029 1065.71 180.919 1065.23 180.919C1064.87 180.919 1064.54 180.982 1064.23 181.108C1063.92 181.231 1063.64 181.408 1063.41 181.639C1063.17 181.87 1062.99 182.148 1062.85 182.472C1062.72 182.793 1062.66 183.153 1062.66 183.552C1062.66 184.08 1062.77 184.542 1063 184.938C1063.23 185.331 1063.54 185.637 1063.93 185.856C1064.32 186.075 1064.75 186.184 1065.23 186.184ZM1070.41 186.702V180.402H1072.67C1073.08 180.402 1073.44 180.477 1073.74 180.627C1074.04 180.777 1074.28 180.99 1074.44 181.266C1074.6 181.539 1074.68 181.86 1074.68 182.229C1074.68 182.547 1074.61 182.827 1074.47 183.07C1074.32 183.313 1074.12 183.511 1073.86 183.664C1073.6 183.814 1073.29 183.91 1072.93 183.952L1074.97 186.702H1074.12L1072.15 184.011H1071.09V186.702H1070.41ZM1071.09 183.408H1072.51C1072.98 183.408 1073.35 183.304 1073.6 183.097C1073.87 182.89 1074 182.607 1074 182.247C1074 181.872 1073.88 181.572 1073.65 181.347C1073.43 181.122 1073.08 181.009 1072.61 181.009H1071.09V183.408ZM1078.1 186.702V183.921L1075.86 180.402H1076.67L1078.46 183.255L1080.24 180.402H1081.02L1078.78 183.925V186.702H1078.1ZM1081.68 187.737L1081.11 187.507L1084.46 179.457L1085.03 179.686L1081.68 187.737ZM1086.5 186.702V180.402H1087.18V186.702H1086.5ZM1089.47 186.702V180.402H1093.3V181.023H1090.15V183.079H1092.92V183.682H1090.15V186.076H1093.32V186.702H1089.47ZM1097.33 186.837C1096.93 186.837 1096.53 186.781 1096.14 186.67C1095.75 186.556 1095.42 186.393 1095.15 186.18L1095.51 185.635C1095.67 185.761 1095.84 185.868 1096.04 185.955C1096.24 186.042 1096.44 186.108 1096.66 186.153C1096.89 186.198 1097.11 186.22 1097.34 186.22C1097.82 186.22 1098.21 186.126 1098.5 185.937C1098.79 185.745 1098.94 185.464 1098.94 185.095C1098.94 184.828 1098.84 184.602 1098.65 184.416C1098.46 184.23 1098.1 184.06 1097.58 183.907L1096.86 183.696C1096.3 183.531 1095.88 183.316 1095.62 183.052C1095.36 182.788 1095.23 182.454 1095.23 182.049C1095.23 181.773 1095.29 181.527 1095.39 181.311C1095.5 181.092 1095.65 180.904 1095.85 180.748C1096.05 180.592 1096.28 180.474 1096.55 180.393C1096.82 180.309 1097.12 180.267 1097.44 180.267C1097.83 180.267 1098.19 180.324 1098.53 180.438C1098.86 180.552 1099.14 180.702 1099.36 180.888L1098.99 181.41C1098.86 181.296 1098.7 181.2 1098.52 181.122C1098.35 181.041 1098.16 180.979 1097.96 180.937C1097.77 180.895 1097.56 180.874 1097.36 180.874C1097.07 180.874 1096.81 180.918 1096.59 181.005C1096.36 181.092 1096.19 181.219 1096.06 181.387C1095.94 181.555 1095.88 181.762 1095.88 182.008C1095.88 182.179 1095.91 182.331 1095.99 182.463C1096.07 182.592 1096.21 182.71 1096.41 182.818C1096.6 182.923 1096.87 183.027 1097.22 183.129L1098 183.358C1098.54 183.517 1098.94 183.73 1099.2 183.997C1099.45 184.261 1099.58 184.608 1099.58 185.037C1099.58 185.394 1099.5 185.707 1099.32 185.977C1099.15 186.247 1098.9 186.459 1098.56 186.612C1098.23 186.762 1097.82 186.837 1097.33 186.837Z" fill="#DFEEFE"/>
<path d="M1360.83 205.878L1223.5 106.1L1086.17 205.878L1138.62 367.322H1308.38L1360.83 205.878Z" stroke="#D7DAF9" stroke-linejoin="round"/>
<path opacity="0.3" d="M1271.47 234.672L1224.58 134.408C1224.03 133.231 1222.52 132.883 1221.51 133.701L1120.24 215.687C1119.57 216.226 1119.32 217.127 1119.62 217.93L1161.96 333.453C1162.22 334.163 1162.86 334.666 1163.62 334.752L1292.89 349.485C1294.25 349.64 1295.36 348.423 1295.08 347.088L1271.61 235.109C1271.58 234.958 1271.53 234.812 1271.47 234.672Z" fill="#5FB0FD" stroke="black"/>
<path d="M1271.47 234.672L1224.58 134.408C1224.03 133.231 1222.52 132.883 1221.51 133.701L1120.24 215.687C1119.57 216.226 1119.32 217.127 1119.62 217.93L1161.96 333.453C1162.22 334.163 1162.86 334.666 1163.62 334.752L1292.89 349.485C1294.25 349.64 1295.36 348.423 1295.08 347.088L1271.61 235.109C1271.58 234.958 1271.53 234.812 1271.47 234.672Z" stroke="#72BBFF" stroke-linejoin="round"/>
<circle cx="1222.52" cy="132.683" r="2.29727" fill="#72BBFF"/>
<circle cx="1271.09" cy="235.075" r="2.29727" fill="#72BBFF"/>
<circle cx="1296.03" cy="349.283" r="2.29727" fill="#72BBFF"/>
<circle cx="1162.79" cy="334.186" r="2.29727" fill="#72BBFF"/>
<circle cx="1119.47" cy="217.354" r="2.29727" fill="#72BBFF"/>
</g>
</g>
<defs>
<filter id="filter0_f_283_79" x="-370" y="54" width="1355" height="1228" filterUnits="userSpaceOnUse" color-interpolation-filters="sRGB">
<feFlood flood-opacity="0" result="BackgroundImageFix"/>
<feBlend mode="normal" in="SourceGraphic" in2="BackgroundImageFix" result="shape"/>
<feGaussianBlur stdDeviation="250" result="effect1_foregroundBlur_283_79"/>
</filter>
<filter id="filter1_f_283_79" x="1037" y="-303" width="500" height="500" filterUnits="userSpaceOnUse" color-interpolation-filters="sRGB">
<feFlood flood-opacity="0" result="BackgroundImageFix"/>
<feBlend mode="normal" in="SourceGraphic" in2="BackgroundImageFix" result="shape"/>
<feGaussianBlur stdDeviation="100" result="effect1_foregroundBlur_283_79"/>
</filter>
<filter id="filter2_f_283_79" x="913" y="-277" width="500" height="500" filterUnits="userSpaceOnUse" color-interpolation-filters="sRGB">
<feFlood flood-opacity="0" result="BackgroundImageFix"/>
<feBlend mode="normal" in="SourceGraphic" in2="BackgroundImageFix" result="shape"/>
<feGaussianBlur stdDeviation="100" result="effect1_foregroundBlur_283_79"/>
</filter>
<filter id="filter3_f_283_79" x="450" y="250" width="500" height="500" filterUnits="userSpaceOnUse" color-interpolation-filters="sRGB">
<feFlood flood-opacity="0" result="BackgroundImageFix"/>
<feBlend mode="normal" in="SourceGraphic" in2="BackgroundImageFix" result="shape"/>
<feGaussianBlur stdDeviation="100" result="effect1_foregroundBlur_283_79"/>
</filter>
<filter id="filter4_f_283_79" x="-74" y="67" width="300" height="300" filterUnits="userSpaceOnUse" color-interpolation-filters="sRGB">
<feFlood flood-opacity="0" result="BackgroundImageFix"/>
<feBlend mode="normal" in="SourceGraphic" in2="BackgroundImageFix" result="shape"/>
<feGaussianBlur stdDeviation="50" result="effect1_foregroundBlur_283_79"/>
</filter>
<filter id="filter5_f_283_79" x="-124" y="-68" width="300" height="300" filterUnits="userSpaceOnUse" color-interpolation-filters="sRGB">
<feFlood flood-opacity="0" result="BackgroundImageFix"/>
<feBlend mode="normal" in="SourceGraphic" in2="BackgroundImageFix" result="shape"/>
<feGaussianBlur stdDeviation="50" result="effect1_foregroundBlur_283_79"/>
</filter>
<filter id="filter6_f_283_79" x="-124" y="-89" width="300" height="300" filterUnits="userSpaceOnUse" color-interpolation-filters="sRGB">
<feFlood flood-opacity="0" result="BackgroundImageFix"/>
<feBlend mode="normal" in="SourceGraphic" in2="BackgroundImageFix" result="shape"/>
<feGaussianBlur stdDeviation="50" result="effect1_foregroundBlur_283_79"/>
</filter>
<filter id="filter7_f_283_79" x="-35" y="-20" width="300" height="300" filterUnits="userSpaceOnUse" color-interpolation-filters="sRGB">
<feFlood flood-opacity="0" result="BackgroundImageFix"/>
<feBlend mode="normal" in="SourceGraphic" in2="BackgroundImageFix" result="shape"/>
<feGaussianBlur stdDeviation="50" result="effect1_foregroundBlur_283_79"/>
</filter>
<filter id="filter8_f_283_79" x="87" y="-118" width="300" height="300" filterUnits="userSpaceOnUse" color-interpolation-filters="sRGB">
<feFlood flood-opacity="0" result="BackgroundImageFix"/>
<feBlend mode="normal" in="SourceGraphic" in2="BackgroundImageFix" result="shape"/>
<feGaussianBlur stdDeviation="50" result="effect1_foregroundBlur_283_79"/>
</filter>
<linearGradient id="paint0_linear_283_79" x1="1851.95" y1="1463.2" x2="366.097" y2="1598.15" gradientUnits="userSpaceOnUse">
<stop stop-color="#CFFCFF"/>
<stop offset="1" stop-color="#152E35" stop-opacity="0"/>
</linearGradient>
<linearGradient id="paint1_linear_283_79" x1="2455.12" y1="48.4745" x2="1395.71" y2="159.544" gradientUnits="userSpaceOnUse">
<stop stop-color="#CFFCFF"/>
<stop offset="1" stop-color="#152E35" stop-opacity="0"/>
</linearGradient>
<linearGradient id="paint2_linear_283_79" x1="2340.12" y1="33.4745" x2="1280.71" y2="144.544" gradientUnits="userSpaceOnUse">
<stop stop-color="#CFFCFF"/>
<stop offset="1" stop-color="#152E35" stop-opacity="0"/>
</linearGradient>
<linearGradient id="paint3_linear_283_79" x1="1155.89" y1="686.381" x2="92.9088" y2="779.006" gradientUnits="userSpaceOnUse">
<stop stop-color="#CFFCFF"/>
<stop offset="1" stop-color="#152E35" stop-opacity="0"/>
</linearGradient>
<linearGradient id="paint4_linear_283_79" x1="2378.94" y1="1393.93" x2="1091.39" y2="233.391" gradientUnits="userSpaceOnUse">
<stop stop-color="#43F0FD"/>
<stop offset="1" stop-color="#152E35" stop-opacity="0"/>
</linearGradient>
<clipPath id="clip0_283_79">
<rect width="1500" height="500" fill="white"/>
</clipPath>
<clipPath id="clip1_283_79">
<rect width="361" height="361" fill="white" transform="translate(1043 70)"/>
</clipPath>
</defs>
</svg>
