<svg width="550" height="550" viewBox="0 0 550 550" fill="none" xmlns="http://www.w3.org/2000/svg">
<g clip-path="url(#clip0_385_219)">
<path d="M266.907 251.25V249.92L270.014 247.044C270.278 246.788 270.5 246.558 270.679 246.354C270.86 246.149 270.998 245.949 271.092 245.753C271.186 245.554 271.233 245.339 271.233 245.109C271.233 244.854 271.174 244.634 271.058 244.449C270.941 244.261 270.782 244.118 270.581 244.018C270.379 243.916 270.15 243.865 269.895 243.865C269.628 243.865 269.395 243.919 269.196 244.027C268.997 244.135 268.843 244.29 268.735 244.491C268.628 244.693 268.574 244.933 268.574 245.212H266.822C266.822 244.641 266.951 244.145 267.21 243.724C267.468 243.304 267.831 242.979 268.297 242.749C268.762 242.518 269.299 242.403 269.907 242.403C270.532 242.403 271.076 242.514 271.539 242.736C272.005 242.955 272.368 243.259 272.626 243.648C272.885 244.037 273.014 244.483 273.014 244.986C273.014 245.315 272.949 245.641 272.818 245.962C272.69 246.283 272.461 246.639 272.132 247.031C271.802 247.42 271.338 247.888 270.738 248.433L269.464 249.682V249.741H273.129V251.25H266.907ZM277.888 251.442C277.155 251.439 276.524 251.259 275.996 250.901C275.47 250.543 275.065 250.024 274.781 249.345C274.5 248.666 274.361 247.849 274.364 246.895C274.364 245.943 274.504 245.132 274.786 244.462C275.07 243.791 275.474 243.281 276 242.932C276.528 242.58 277.158 242.403 277.888 242.403C278.618 242.403 279.246 242.58 279.771 242.932C280.3 243.284 280.706 243.795 280.99 244.466C281.274 245.134 281.415 245.943 281.412 246.895C281.412 247.852 281.27 248.67 280.986 249.349C280.705 250.028 280.301 250.547 279.776 250.905C279.25 251.263 278.621 251.442 277.888 251.442ZM277.888 249.912C278.388 249.912 278.787 249.661 279.085 249.158C279.384 248.655 279.531 247.901 279.528 246.895C279.528 246.233 279.46 245.682 279.324 245.241C279.19 244.801 279 244.47 278.753 244.249C278.509 244.027 278.22 243.916 277.888 243.916C277.391 243.916 276.993 244.165 276.695 244.662C276.396 245.159 276.246 245.903 276.243 246.895C276.243 247.565 276.31 248.125 276.443 248.574C276.58 249.02 276.771 249.355 277.018 249.58C277.266 249.801 277.555 249.912 277.888 249.912Z" fill="#D7DAF9"/>
<path d="M316.847 261.403L275 231L233.154 261.403L249.137 310.597H300.863L316.847 261.403Z" stroke="#D7DAF9" stroke-width="1.5" stroke-linejoin="round"/>
<path d="M266.225 205.716V204.263L269.869 198.523H271.122V200.534H270.38L268.083 204.169V204.237H273.261V205.716H266.225ZM270.414 207.25V205.273L270.448 204.629V198.523H272.178V207.25H270.414ZM277.912 207.442C277.179 207.439 276.548 207.259 276.02 206.901C275.494 206.543 275.09 206.024 274.806 205.345C274.524 204.666 274.385 203.849 274.388 202.895C274.388 201.943 274.529 201.132 274.81 200.462C275.094 199.791 275.499 199.281 276.024 198.932C276.553 198.58 277.182 198.403 277.912 198.403C278.642 198.403 279.27 198.58 279.796 198.932C280.324 199.284 280.73 199.795 281.014 200.466C281.298 201.134 281.439 201.943 281.436 202.895C281.436 203.852 281.294 204.67 281.01 205.349C280.729 206.028 280.325 206.547 279.8 206.905C279.274 207.263 278.645 207.442 277.912 207.442ZM277.912 205.912C278.412 205.912 278.811 205.661 279.11 205.158C279.408 204.655 279.556 203.901 279.553 202.895C279.553 202.233 279.485 201.682 279.348 201.241C279.215 200.801 279.024 200.47 278.777 200.249C278.533 200.027 278.244 199.916 277.912 199.916C277.415 199.916 277.017 200.165 276.719 200.662C276.421 201.159 276.27 201.903 276.267 202.895C276.267 203.565 276.334 204.125 276.467 204.574C276.604 205.02 276.796 205.355 277.043 205.58C277.29 205.801 277.58 205.912 277.912 205.912Z" fill="#D7DAF9"/>
<path d="M358.693 247.807L275 187L191.307 247.807L223.275 346.193H326.725L358.693 247.807Z" stroke="#D7DAF9" stroke-width="1.5" stroke-linejoin="round"/>
<path d="M269.707 163.369C269.258 163.366 268.825 163.291 268.407 163.143C267.992 162.996 267.62 162.756 267.291 162.423C266.961 162.091 266.7 161.651 266.507 161.102C266.316 160.554 266.221 159.881 266.221 159.082C266.224 158.349 266.308 157.695 266.472 157.118C266.64 156.538 266.879 156.047 267.188 155.643C267.501 155.24 267.874 154.933 268.309 154.723C268.744 154.51 269.231 154.403 269.771 154.403C270.353 154.403 270.867 154.517 271.313 154.744C271.759 154.969 272.117 155.274 272.387 155.661C272.66 156.047 272.825 156.48 272.882 156.96H271.062C270.991 156.656 270.842 156.418 270.615 156.244C270.387 156.071 270.106 155.984 269.771 155.984C269.203 155.984 268.771 156.232 268.475 156.726C268.183 157.22 268.034 157.892 268.028 158.741H268.088C268.218 158.483 268.394 158.263 268.616 158.081C268.84 157.896 269.095 157.756 269.379 157.659C269.666 157.56 269.968 157.51 270.286 157.51C270.803 157.51 271.264 157.632 271.667 157.876C272.07 158.118 272.389 158.45 272.622 158.874C272.855 159.297 272.971 159.781 272.971 160.327C272.971 160.918 272.833 161.443 272.558 161.903C272.285 162.364 271.903 162.724 271.411 162.986C270.923 163.244 270.355 163.372 269.707 163.369ZM269.698 161.92C269.982 161.92 270.237 161.852 270.461 161.716C270.686 161.58 270.862 161.395 270.99 161.162C271.117 160.929 271.181 160.668 271.181 160.378C271.181 160.088 271.117 159.828 270.99 159.598C270.865 159.368 270.691 159.185 270.47 159.048C270.248 158.912 269.995 158.844 269.711 158.844C269.498 158.844 269.301 158.884 269.119 158.963C268.94 159.043 268.782 159.153 268.646 159.295C268.512 159.437 268.407 159.602 268.33 159.79C268.254 159.974 268.215 160.172 268.215 160.382C268.215 160.663 268.279 160.92 268.407 161.153C268.538 161.386 268.714 161.572 268.936 161.712C269.16 161.851 269.414 161.92 269.698 161.92ZM277.701 163.442C276.968 163.439 276.338 163.259 275.809 162.901C275.284 162.543 274.879 162.024 274.595 161.345C274.313 160.666 274.174 159.849 274.177 158.895C274.177 157.943 274.318 157.132 274.599 156.462C274.883 155.791 275.288 155.281 275.813 154.932C276.342 154.58 276.971 154.403 277.701 154.403C278.431 154.403 279.059 154.58 279.585 154.932C280.113 155.284 280.519 155.795 280.803 156.466C281.088 157.134 281.228 157.943 281.225 158.895C281.225 159.852 281.083 160.67 280.799 161.349C280.518 162.028 280.115 162.547 279.589 162.905C279.063 163.263 278.434 163.442 277.701 163.442ZM277.701 161.912C278.201 161.912 278.6 161.661 278.899 161.158C279.197 160.655 279.345 159.901 279.342 158.895C279.342 158.233 279.274 157.682 279.137 157.241C279.004 156.801 278.813 156.47 278.566 156.249C278.322 156.027 278.034 155.916 277.701 155.916C277.204 155.916 276.806 156.165 276.508 156.662C276.21 157.159 276.059 157.903 276.056 158.895C276.056 159.565 276.123 160.125 276.257 160.574C276.393 161.02 276.585 161.355 276.832 161.58C277.079 161.801 277.369 161.912 277.701 161.912Z" fill="#D7DAF9"/>
<path d="M400.54 234.21L275 143L149.461 234.21L197.412 381.79H352.588L400.54 234.21Z" stroke="#D7DAF9" stroke-width="1.5" stroke-linejoin="round"/>
<path d="M269.613 119.369C268.957 119.369 268.373 119.263 267.862 119.05C267.353 118.834 266.954 118.54 266.664 118.168C266.374 117.795 266.23 117.374 266.23 116.902C266.23 116.538 266.312 116.205 266.477 115.901C266.644 115.594 266.872 115.339 267.159 115.138C267.445 114.933 267.767 114.803 268.122 114.746V114.686C267.656 114.592 267.278 114.366 266.988 114.009C266.698 113.648 266.553 113.229 266.553 112.751C266.553 112.3 266.686 111.898 266.95 111.545C267.214 111.19 267.576 110.912 268.036 110.71C268.499 110.506 269.025 110.403 269.613 110.403C270.201 110.403 270.725 110.506 271.186 110.71C271.649 110.915 272.012 111.195 272.276 111.55C272.541 111.902 272.674 112.303 272.677 112.751C272.674 113.232 272.526 113.651 272.234 114.009C271.941 114.366 271.566 114.592 271.109 114.686V114.746C271.458 114.803 271.775 114.933 272.059 115.138C272.346 115.339 272.573 115.594 272.741 115.901C272.911 116.205 272.998 116.538 273.001 116.902C272.998 117.374 272.852 117.795 272.562 118.168C272.272 118.54 271.872 118.834 271.36 119.05C270.852 119.263 270.269 119.369 269.613 119.369ZM269.613 118.014C269.906 118.014 270.161 117.962 270.38 117.857C270.599 117.749 270.769 117.601 270.892 117.413C271.017 117.223 271.079 117.004 271.079 116.757C271.079 116.504 271.015 116.281 270.887 116.088C270.759 115.892 270.586 115.739 270.367 115.628C270.149 115.514 269.897 115.457 269.613 115.457C269.332 115.457 269.08 115.514 268.859 115.628C268.637 115.739 268.463 115.892 268.335 116.088C268.21 116.281 268.147 116.504 268.147 116.757C268.147 117.004 268.208 117.223 268.33 117.413C268.453 117.601 268.624 117.749 268.846 117.857C269.068 117.962 269.323 118.014 269.613 118.014ZM269.613 114.115C269.857 114.115 270.075 114.065 270.265 113.966C270.455 113.866 270.605 113.729 270.713 113.553C270.82 113.376 270.874 113.173 270.874 112.943C270.874 112.716 270.82 112.517 270.713 112.347C270.605 112.173 270.457 112.038 270.269 111.942C270.082 111.842 269.863 111.793 269.613 111.793C269.366 111.793 269.147 111.842 268.957 111.942C268.767 112.038 268.617 112.173 268.509 112.347C268.404 112.517 268.352 112.716 268.352 112.943C268.352 113.173 268.406 113.376 268.514 113.553C268.622 113.729 268.771 113.866 268.961 113.966C269.151 114.065 269.369 114.115 269.613 114.115ZM277.713 119.442C276.98 119.439 276.349 119.259 275.821 118.901C275.295 118.543 274.89 118.024 274.606 117.345C274.325 116.666 274.186 115.849 274.189 114.895C274.189 113.943 274.329 113.132 274.611 112.462C274.895 111.791 275.3 111.281 275.825 110.932C276.354 110.58 276.983 110.403 277.713 110.403C278.443 110.403 279.071 110.58 279.596 110.932C280.125 111.284 280.531 111.795 280.815 112.466C281.099 113.134 281.24 113.943 281.237 114.895C281.237 115.852 281.095 116.67 280.811 117.349C280.53 118.028 280.126 118.547 279.601 118.905C279.075 119.263 278.446 119.442 277.713 119.442ZM277.713 117.912C278.213 117.912 278.612 117.661 278.91 117.158C279.209 116.655 279.356 115.901 279.354 114.895C279.354 114.233 279.285 113.682 279.149 113.241C279.015 112.801 278.825 112.47 278.578 112.249C278.334 112.027 278.045 111.916 277.713 111.916C277.216 111.916 276.818 112.165 276.52 112.662C276.221 113.159 276.071 113.903 276.068 114.895C276.068 115.565 276.135 116.125 276.268 116.574C276.405 117.02 276.596 117.355 276.844 117.58C277.091 117.801 277.38 117.912 277.713 117.912Z" fill="#D7DAF9"/>
<path d="M442.386 220.613L275 99L107.614 220.613L171.55 417.387H378.45L442.386 220.613Z" stroke="#D7DAF9" stroke-width="1.5" stroke-linejoin="round"/>
<path d="M266.854 66.5227V75.25H265.009V68.2741H264.958L262.959 69.527V67.8906L265.12 66.5227H266.854ZM272.35 75.4418C271.617 75.4389 270.987 75.2585 270.458 74.9006C269.933 74.5426 269.528 74.0241 269.244 73.3452C268.963 72.6662 268.823 71.8494 268.826 70.8949C268.826 69.9432 268.967 69.1321 269.248 68.4616C269.532 67.7912 269.937 67.2812 270.463 66.9318C270.991 66.5795 271.62 66.4034 272.35 66.4034C273.08 66.4034 273.708 66.5795 274.234 66.9318C274.762 67.2841 275.169 67.7955 275.453 68.4659C275.737 69.1335 275.877 69.9432 275.874 70.8949C275.874 71.8523 275.732 72.6705 275.448 73.3494C275.167 74.0284 274.764 74.5469 274.238 74.9048C273.713 75.2628 273.083 75.4418 272.35 75.4418ZM272.35 73.9119C272.85 73.9119 273.249 73.6605 273.548 73.1577C273.846 72.6548 273.994 71.9006 273.991 70.8949C273.991 70.233 273.923 69.6818 273.786 69.2415C273.653 68.8011 273.463 68.4702 273.215 68.2486C272.971 68.027 272.683 67.9162 272.35 67.9162C271.853 67.9162 271.455 68.1648 271.157 68.6619C270.859 69.1591 270.708 69.9034 270.705 70.8949C270.705 71.5653 270.772 72.125 270.906 72.5739C271.042 73.0199 271.234 73.3551 271.481 73.5795C271.728 73.8011 272.018 73.9119 272.35 73.9119ZM280.612 75.4418C279.879 75.4389 279.248 75.2585 278.72 74.9006C278.194 74.5426 277.79 74.0241 277.506 73.3452C277.224 72.6662 277.085 71.8494 277.088 70.8949C277.088 69.9432 277.229 69.1321 277.51 68.4616C277.794 67.7912 278.199 67.2812 278.724 66.9318C279.253 66.5795 279.882 66.4034 280.612 66.4034C281.342 66.4034 281.97 66.5795 282.496 66.9318C283.024 67.2841 283.43 67.7955 283.714 68.4659C283.998 69.1335 284.139 69.9432 284.136 70.8949C284.136 71.8523 283.994 72.6705 283.71 73.3494C283.429 74.0284 283.025 74.5469 282.5 74.9048C281.974 75.2628 281.345 75.4418 280.612 75.4418ZM280.612 73.9119C281.112 73.9119 281.511 73.6605 281.809 73.1577C282.108 72.6548 282.256 71.9006 282.253 70.8949C282.253 70.233 282.184 69.6818 282.048 69.2415C281.915 68.8011 281.724 68.4702 281.477 68.2486C281.233 68.027 280.944 67.9162 280.612 67.9162C280.115 67.9162 279.717 68.1648 279.419 68.6619C279.121 69.1591 278.97 69.9034 278.967 70.8949C278.967 71.5653 279.034 72.125 279.167 72.5739C279.304 73.0199 279.496 73.3551 279.743 73.5795C279.99 73.8011 280.28 73.9119 280.612 73.9119Z" fill="#D7DAF9"/>
<path d="M223.164 40V31.6H225.984C226.564 31.6 227.072 31.698 227.508 31.894C227.948 32.09 228.292 32.372 228.54 32.74C228.788 33.108 228.912 33.548 228.912 34.06C228.912 34.592 228.798 35.04 228.57 35.404C228.342 35.764 228.008 36.038 227.568 36.226C227.132 36.41 226.598 36.502 225.966 36.502H224.076V40H223.164ZM224.076 35.686H226.032C226.656 35.686 227.14 35.552 227.484 35.284C227.828 35.012 228 34.614 228 34.09C228 33.574 227.824 33.168 227.472 32.872C227.124 32.572 226.648 32.422 226.044 32.422H224.076V35.686ZM231.302 40V31.6H234.32C234.872 31.6 235.348 31.7 235.748 31.9C236.152 32.1 236.462 32.384 236.678 32.752C236.898 33.116 237.008 33.544 237.008 34.036C237.008 34.46 236.912 34.834 236.72 35.158C236.528 35.482 236.256 35.746 235.904 35.95C235.556 36.15 235.144 36.278 234.668 36.334L237.386 40H236.252L233.63 36.412H232.214V40H231.302ZM232.214 35.608H234.11C234.738 35.608 235.224 35.47 235.568 35.194C235.916 34.918 236.09 34.54 236.09 34.06C236.09 33.56 235.938 33.16 235.634 32.86C235.334 32.56 234.868 32.41 234.236 32.41H232.214V35.608ZM243.55 40.18C242.93 40.18 242.352 40.07 241.816 39.85C241.284 39.626 240.82 39.316 240.424 38.92C240.032 38.524 239.724 38.06 239.5 37.528C239.28 36.996 239.17 36.42 239.17 35.8C239.17 35.176 239.28 34.598 239.5 34.066C239.724 33.534 240.032 33.07 240.424 32.674C240.82 32.278 241.284 31.97 241.816 31.75C242.352 31.53 242.93 31.42 243.55 31.42C244.166 31.42 244.74 31.532 245.272 31.756C245.804 31.98 246.268 32.292 246.664 32.692C247.06 33.092 247.368 33.558 247.588 34.09C247.812 34.618 247.924 35.188 247.924 35.8C247.924 36.42 247.812 36.996 247.588 37.528C247.368 38.06 247.06 38.524 246.664 38.92C246.268 39.316 245.804 39.626 245.272 39.85C244.74 40.07 244.166 40.18 243.55 40.18ZM243.55 39.31C244.026 39.31 244.472 39.228 244.888 39.064C245.304 38.896 245.668 38.658 245.98 38.35C246.292 38.038 246.536 37.668 246.712 37.24C246.888 36.808 246.976 36.328 246.976 35.8C246.976 35.096 246.822 34.482 246.514 33.958C246.21 33.43 245.798 33.02 245.278 32.728C244.762 32.436 244.186 32.29 243.55 32.29C243.074 32.29 242.628 32.374 242.212 32.542C241.796 32.706 241.432 32.942 241.12 33.25C240.808 33.558 240.562 33.928 240.382 34.36C240.206 34.788 240.118 35.268 240.118 35.8C240.118 36.504 240.272 37.12 240.58 37.648C240.888 38.172 241.3 38.58 241.816 38.872C242.336 39.164 242.914 39.31 243.55 39.31ZM254.7 40.18C254.024 40.18 253.402 40.078 252.834 39.874C252.266 39.666 251.772 39.37 251.352 38.986C250.936 38.602 250.612 38.144 250.38 37.612C250.152 37.076 250.038 36.478 250.038 35.818C250.038 35.162 250.148 34.566 250.368 34.03C250.592 33.49 250.904 33.026 251.304 32.638C251.708 32.246 252.184 31.946 252.732 31.738C253.284 31.526 253.89 31.42 254.55 31.42C254.858 31.42 255.164 31.446 255.468 31.498C255.772 31.546 256.064 31.624 256.344 31.732C256.624 31.836 256.882 31.974 257.118 32.146L256.698 32.878C256.382 32.678 256.036 32.528 255.66 32.428C255.284 32.328 254.906 32.278 254.526 32.278C253.99 32.278 253.504 32.36 253.068 32.524C252.632 32.688 252.258 32.924 251.946 33.232C251.638 33.54 251.4 33.91 251.232 34.342C251.064 34.774 250.98 35.26 250.98 35.8C250.98 36.548 251.136 37.188 251.448 37.72C251.764 38.248 252.202 38.652 252.762 38.932C253.326 39.212 253.982 39.352 254.73 39.352C255.134 39.352 255.49 39.312 255.798 39.232C256.106 39.152 256.344 39.062 256.512 38.962V36.574H254.484V35.77H257.364V39.454C257.164 39.606 256.904 39.736 256.584 39.844C256.264 39.952 255.934 40.034 255.594 40.09C255.254 40.15 254.956 40.18 254.7 40.18ZM260.298 40V31.6H263.316C263.868 31.6 264.344 31.7 264.744 31.9C265.148 32.1 265.458 32.384 265.674 32.752C265.894 33.116 266.004 33.544 266.004 34.036C266.004 34.46 265.908 34.834 265.716 35.158C265.524 35.482 265.252 35.746 264.9 35.95C264.552 36.15 264.14 36.278 263.664 36.334L266.382 40H265.248L262.626 36.412H261.21V40H260.298ZM261.21 35.608H263.106C263.734 35.608 264.22 35.47 264.564 35.194C264.912 34.918 265.086 34.54 265.086 34.06C265.086 33.56 264.934 33.16 264.63 32.86C264.33 32.56 263.864 32.41 263.232 32.41H261.21V35.608ZM267.833 40L271.175 31.6H272.063L275.531 40H274.505L273.605 37.798H269.687L268.829 40H267.833ZM269.969 36.976H273.311L271.595 32.812L269.969 36.976ZM277.605 40V31.6H278.493L282.075 37.36L281.733 37.366L285.213 31.6H286.071V40H285.165L285.171 32.884L285.363 32.944L282.219 38.038H281.469L278.295 32.944L278.433 32.884L278.439 40H277.605ZM289.118 40V31.6H290.006L293.588 37.36L293.246 37.366L296.726 31.6H297.584V40H296.678L296.684 32.884L296.876 32.944L293.732 38.038H292.982L289.808 32.944L289.946 32.884L289.952 40H289.118ZM300.631 40V31.6H301.543V40H300.631ZM304.585 40V31.6H305.413L310.171 38.338V31.6H311.071V40H310.243L305.485 33.19V40H304.585ZM318.252 40.18C317.576 40.18 316.954 40.078 316.386 39.874C315.818 39.666 315.324 39.37 314.904 38.986C314.488 38.602 314.164 38.144 313.932 37.612C313.704 37.076 313.59 36.478 313.59 35.818C313.59 35.162 313.7 34.566 313.92 34.03C314.144 33.49 314.456 33.026 314.856 32.638C315.26 32.246 315.736 31.946 316.284 31.738C316.836 31.526 317.442 31.42 318.102 31.42C318.41 31.42 318.716 31.446 319.02 31.498C319.324 31.546 319.616 31.624 319.896 31.732C320.176 31.836 320.434 31.974 320.67 32.146L320.25 32.878C319.934 32.678 319.588 32.528 319.212 32.428C318.836 32.328 318.458 32.278 318.078 32.278C317.542 32.278 317.056 32.36 316.62 32.524C316.184 32.688 315.81 32.924 315.498 33.232C315.19 33.54 314.952 33.91 314.784 34.342C314.616 34.774 314.532 35.26 314.532 35.8C314.532 36.548 314.688 37.188 315 37.72C315.316 38.248 315.754 38.652 316.314 38.932C316.878 39.212 317.534 39.352 318.282 39.352C318.686 39.352 319.042 39.312 319.35 39.232C319.658 39.152 319.896 39.062 320.064 38.962V36.574H318.036V35.77H320.916V39.454C320.716 39.606 320.456 39.736 320.136 39.844C319.816 39.952 319.486 40.034 319.146 40.09C318.806 40.15 318.508 40.18 318.252 40.18Z" fill="#DFEEFE"/>
<path d="M485.762 187.18C485.218 187.18 484.686 187.106 484.166 186.958C483.646 186.806 483.208 186.588 482.852 186.304L483.326 185.578C483.538 185.746 483.774 185.888 484.034 186.004C484.298 186.12 484.576 186.208 484.868 186.268C485.164 186.328 485.466 186.358 485.774 186.358C486.414 186.358 486.928 186.232 487.316 185.98C487.704 185.724 487.898 185.35 487.898 184.858C487.898 184.502 487.77 184.2 487.514 183.952C487.258 183.704 486.782 183.478 486.086 183.274L485.126 182.992C484.378 182.772 483.83 182.486 483.482 182.134C483.134 181.782 482.96 181.336 482.96 180.796C482.96 180.428 483.032 180.1 483.176 179.812C483.32 179.52 483.522 179.27 483.782 179.062C484.046 178.854 484.358 178.696 484.718 178.588C485.078 178.476 485.474 178.42 485.906 178.42C486.426 178.42 486.908 178.496 487.352 178.648C487.796 178.8 488.168 179 488.468 179.248L487.976 179.944C487.792 179.792 487.582 179.664 487.346 179.56C487.114 179.452 486.866 179.37 486.602 179.314C486.338 179.258 486.07 179.23 485.798 179.23C485.41 179.23 485.066 179.288 484.766 179.404C484.47 179.52 484.238 179.69 484.07 179.914C483.902 180.138 483.818 180.414 483.818 180.742C483.818 180.97 483.87 181.172 483.974 181.348C484.082 181.52 484.266 181.678 484.526 181.822C484.786 181.962 485.148 182.1 485.612 182.236L486.644 182.542C487.368 182.754 487.902 183.038 488.246 183.394C488.59 183.746 488.762 184.208 488.762 184.78C488.762 185.256 488.646 185.674 488.414 186.034C488.186 186.394 487.848 186.676 487.4 186.88C486.952 187.08 486.406 187.18 485.762 187.18ZM495.105 187.18C494.237 187.18 493.479 186.998 492.831 186.634C492.187 186.27 491.687 185.758 491.331 185.098C490.975 184.438 490.797 183.67 490.797 182.794C490.797 182.158 490.903 181.576 491.115 181.048C491.327 180.516 491.625 180.054 492.009 179.662C492.397 179.266 492.853 178.96 493.377 178.744C493.905 178.528 494.483 178.42 495.111 178.42C495.707 178.42 496.235 178.496 496.695 178.648C497.155 178.796 497.549 179.006 497.877 179.278L497.373 180.022C497.089 179.774 496.763 179.59 496.395 179.47C496.027 179.35 495.623 179.29 495.183 179.29C494.663 179.29 494.191 179.372 493.767 179.536C493.347 179.7 492.985 179.934 492.681 180.238C492.381 180.538 492.149 180.904 491.985 181.336C491.825 181.764 491.745 182.248 491.745 182.788C491.745 183.532 491.889 184.166 492.177 184.69C492.465 185.21 492.871 185.608 493.395 185.884C493.923 186.16 494.543 186.298 495.255 186.298C495.711 186.298 496.143 186.232 496.551 186.1C496.963 185.964 497.345 185.742 497.697 185.434L498.129 186.214C497.713 186.542 497.253 186.786 496.749 186.946C496.249 187.102 495.701 187.18 495.105 187.18ZM500.401 187V178.6H503.419C503.971 178.6 504.447 178.7 504.847 178.9C505.251 179.1 505.561 179.384 505.777 179.752C505.997 180.116 506.107 180.544 506.107 181.036C506.107 181.46 506.011 181.834 505.819 182.158C505.627 182.482 505.355 182.746 505.003 182.95C504.655 183.15 504.243 183.278 503.767 183.334L506.485 187H505.351L502.729 183.412H501.313V187H500.401ZM501.313 182.608H503.209C503.837 182.608 504.323 182.47 504.667 182.194C505.015 181.918 505.189 181.54 505.189 181.06C505.189 180.56 505.037 180.16 504.733 179.86C504.433 179.56 503.967 179.41 503.335 179.41H501.313V182.608ZM508.914 187V178.6H509.826V187H508.914ZM512.868 187V178.6H515.688C516.268 178.6 516.776 178.698 517.212 178.894C517.652 179.09 517.996 179.372 518.244 179.74C518.492 180.108 518.616 180.548 518.616 181.06C518.616 181.592 518.502 182.04 518.274 182.404C518.046 182.764 517.712 183.038 517.272 183.226C516.836 183.41 516.302 183.502 515.67 183.502H513.78V187H512.868ZM513.78 182.686H515.736C516.36 182.686 516.844 182.552 517.188 182.284C517.532 182.012 517.704 181.614 517.704 181.09C517.704 180.574 517.528 180.168 517.176 179.872C516.828 179.572 516.352 179.422 515.748 179.422H513.78V182.686ZM522.674 187V179.44H520.232V178.6H526.028V179.44H523.586V187H522.674ZM528.3 187V178.6H529.212V187H528.3ZM532.255 187V178.6H533.083L537.841 185.338V178.6H538.741V187H537.913L533.155 180.19V187H532.255ZM545.921 187.18C545.245 187.18 544.623 187.078 544.055 186.874C543.487 186.666 542.993 186.37 542.573 185.986C542.157 185.602 541.833 185.144 541.601 184.612C541.373 184.076 541.259 183.478 541.259 182.818C541.259 182.162 541.369 181.566 541.589 181.03C541.813 180.49 542.125 180.026 542.525 179.638C542.929 179.246 543.405 178.946 543.953 178.738C544.505 178.526 545.111 178.42 545.771 178.42C546.079 178.42 546.385 178.446 546.689 178.498C546.993 178.546 547.285 178.624 547.565 178.732C547.845 178.836 548.103 178.974 548.339 179.146L547.919 179.878C547.603 179.678 547.257 179.528 546.881 179.428C546.505 179.328 546.127 179.278 545.747 179.278C545.211 179.278 544.725 179.36 544.289 179.524C543.853 179.688 543.479 179.924 543.167 180.232C542.859 180.54 542.621 180.91 542.453 181.342C542.285 181.774 542.201 182.26 542.201 182.8C542.201 183.548 542.357 184.188 542.669 184.72C542.985 185.248 543.423 185.652 543.983 185.932C544.547 186.212 545.203 186.352 545.951 186.352C546.355 186.352 546.711 186.312 547.019 186.232C547.327 186.152 547.565 186.062 547.733 185.962V183.574H545.705V182.77H548.585V186.454C548.385 186.606 548.125 186.736 547.805 186.844C547.485 186.952 547.155 187.034 546.815 187.09C546.475 187.15 546.177 187.18 545.921 187.18Z" fill="#DFEEFE"/>
<path d="M400.853 478.685V470.285H401.765V477.839H405.617V478.685H400.853ZM407.96 478.685V470.285H413.066V471.113H408.872V473.855H412.562V474.659H408.872V477.851H413.102V478.685H407.96ZM414.874 478.685L418.216 470.285H419.104L422.572 478.685H421.546L420.646 476.483H416.728L415.87 478.685H414.874ZM417.01 475.661H420.352L418.636 471.497L417.01 475.661ZM424.646 478.685V470.285H427.664C428.216 470.285 428.692 470.385 429.092 470.585C429.496 470.785 429.806 471.069 430.022 471.437C430.242 471.801 430.352 472.229 430.352 472.721C430.352 473.145 430.256 473.519 430.064 473.843C429.872 474.167 429.6 474.431 429.248 474.635C428.9 474.835 428.488 474.963 428.012 475.019L430.73 478.685H429.596L426.974 475.097H425.558V478.685H424.646ZM425.558 474.293H427.454C428.082 474.293 428.568 474.155 428.912 473.879C429.26 473.603 429.434 473.225 429.434 472.745C429.434 472.245 429.282 471.845 428.978 471.545C428.678 471.245 428.212 471.095 427.58 471.095H425.558V474.293ZM433.159 478.685V470.285H433.987L438.745 477.023V470.285H439.645V478.685H438.817L434.059 471.875V478.685H433.159ZM442.692 478.685V470.285H443.604V478.685H442.692ZM446.646 478.685V470.285H447.474L452.232 477.023V470.285H453.132V478.685H452.304L447.546 471.875V478.685H446.646ZM460.313 478.865C459.637 478.865 459.015 478.763 458.447 478.559C457.879 478.351 457.385 478.055 456.965 477.671C456.549 477.287 456.225 476.829 455.993 476.297C455.765 475.761 455.651 475.163 455.651 474.503C455.651 473.847 455.761 473.251 455.981 472.715C456.205 472.175 456.517 471.711 456.917 471.323C457.321 470.931 457.797 470.631 458.345 470.423C458.897 470.211 459.503 470.105 460.163 470.105C460.471 470.105 460.777 470.131 461.081 470.183C461.385 470.231 461.677 470.309 461.957 470.417C462.237 470.521 462.495 470.659 462.731 470.831L462.311 471.563C461.995 471.363 461.649 471.213 461.273 471.113C460.897 471.013 460.519 470.963 460.139 470.963C459.603 470.963 459.117 471.045 458.681 471.209C458.245 471.373 457.871 471.609 457.559 471.917C457.251 472.225 457.013 472.595 456.845 473.027C456.677 473.459 456.593 473.945 456.593 474.485C456.593 475.233 456.749 475.873 457.061 476.405C457.377 476.933 457.815 477.337 458.375 477.617C458.939 477.897 459.595 478.037 460.343 478.037C460.747 478.037 461.103 477.997 461.411 477.917C461.719 477.837 461.957 477.747 462.125 477.647V475.259H460.097V474.455H462.977V478.139C462.777 478.291 462.517 478.421 462.197 478.529C461.877 478.637 461.547 478.719 461.207 478.775C460.867 478.835 460.569 478.865 460.313 478.865Z" fill="#DFEEFE"/>
<path d="M120.9 478.685V470.285H123.918C124.47 470.285 124.946 470.385 125.346 470.585C125.75 470.785 126.06 471.069 126.276 471.437C126.496 471.801 126.606 472.229 126.606 472.721C126.606 473.145 126.51 473.519 126.318 473.843C126.126 474.167 125.854 474.431 125.502 474.635C125.154 474.835 124.742 474.963 124.266 475.019L126.984 478.685H125.85L123.228 475.097H121.812V478.685H120.9ZM121.812 474.293H123.708C124.336 474.293 124.822 474.155 125.166 473.879C125.514 473.603 125.688 473.225 125.688 472.745C125.688 472.245 125.536 471.845 125.232 471.545C124.932 471.245 124.466 471.095 123.834 471.095H121.812V474.293ZM129.413 478.685V470.285H130.325V478.685H129.413ZM137.147 478.865C136.279 478.865 135.521 478.683 134.873 478.319C134.229 477.955 133.729 477.443 133.373 476.783C133.017 476.123 132.839 475.355 132.839 474.479C132.839 473.843 132.945 473.261 133.157 472.733C133.369 472.201 133.667 471.739 134.051 471.347C134.439 470.951 134.895 470.645 135.419 470.429C135.947 470.213 136.525 470.105 137.153 470.105C137.749 470.105 138.277 470.181 138.737 470.333C139.197 470.481 139.591 470.691 139.919 470.963L139.415 471.707C139.131 471.459 138.805 471.275 138.437 471.155C138.069 471.035 137.665 470.975 137.225 470.975C136.705 470.975 136.233 471.057 135.809 471.221C135.389 471.385 135.027 471.619 134.723 471.923C134.423 472.223 134.191 472.589 134.027 473.021C133.867 473.449 133.787 473.933 133.787 474.473C133.787 475.217 133.931 475.851 134.219 476.375C134.507 476.895 134.913 477.293 135.437 477.569C135.965 477.845 136.585 477.983 137.297 477.983C137.753 477.983 138.185 477.917 138.593 477.785C139.005 477.649 139.387 477.427 139.739 477.119L140.171 477.899C139.755 478.227 139.295 478.471 138.791 478.631C138.291 478.787 137.743 478.865 137.147 478.865ZM142.442 478.685V470.285H143.354V478.685H142.442ZM146.397 478.685V470.285H147.225L151.983 477.023V470.285H152.883V478.685H152.055L147.297 471.875V478.685H146.397ZM160.063 478.865C159.387 478.865 158.765 478.763 158.197 478.559C157.629 478.351 157.135 478.055 156.715 477.671C156.299 477.287 155.975 476.829 155.743 476.297C155.515 475.761 155.401 475.163 155.401 474.503C155.401 473.847 155.511 473.251 155.731 472.715C155.955 472.175 156.267 471.711 156.667 471.323C157.071 470.931 157.547 470.631 158.095 470.423C158.647 470.211 159.253 470.105 159.913 470.105C160.221 470.105 160.527 470.131 160.831 470.183C161.135 470.231 161.427 470.309 161.707 470.417C161.987 470.521 162.245 470.659 162.481 470.831L162.061 471.563C161.745 471.363 161.399 471.213 161.023 471.113C160.647 471.013 160.269 470.963 159.889 470.963C159.353 470.963 158.867 471.045 158.431 471.209C157.995 471.373 157.621 471.609 157.309 471.917C157.001 472.225 156.763 472.595 156.595 473.027C156.427 473.459 156.343 473.945 156.343 474.485C156.343 475.233 156.499 475.873 156.811 476.405C157.127 476.933 157.565 477.337 158.125 477.617C158.689 477.897 159.345 478.037 160.093 478.037C160.497 478.037 160.853 477.997 161.161 477.917C161.469 477.837 161.707 477.747 161.875 477.647V475.259H159.847V474.455H162.727V478.139C162.527 478.291 162.267 478.421 161.947 478.529C161.627 478.637 161.297 478.719 160.957 478.775C160.617 478.835 160.319 478.865 160.063 478.865Z" fill="#DFEEFE"/>
<path d="M2.15817 185.972V178.412H-0.283828V177.572H5.51217V178.412H3.07017V185.972H2.15817ZM7.78439 185.972V177.572H8.69639V181.058H13.2684V177.572H14.1804V185.972H13.2684V181.904H8.69639V185.972H7.78439ZM17.2231 185.972V177.572H22.3291V178.4H18.1351V181.142H21.8251V181.946H18.1351V185.138H22.3651V185.972H17.2231ZM28.967 186.152C28.347 186.152 27.769 186.042 27.233 185.822C26.701 185.598 26.237 185.288 25.841 184.892C25.449 184.496 25.141 184.032 24.917 183.5C24.697 182.968 24.587 182.392 24.587 181.772C24.587 181.148 24.697 180.57 24.917 180.038C25.141 179.506 25.449 179.042 25.841 178.646C26.237 178.25 26.701 177.942 27.233 177.722C27.769 177.502 28.347 177.392 28.967 177.392C29.583 177.392 30.157 177.504 30.689 177.728C31.221 177.952 31.685 178.264 32.081 178.664C32.477 179.064 32.785 179.53 33.005 180.062C33.229 180.59 33.341 181.16 33.341 181.772C33.341 182.392 33.229 182.968 33.005 183.5C32.785 184.032 32.477 184.496 32.081 184.892C31.685 185.288 31.221 185.598 30.689 185.822C30.157 186.042 29.583 186.152 28.967 186.152ZM28.967 185.282C29.443 185.282 29.889 185.2 30.305 185.036C30.721 184.868 31.085 184.63 31.397 184.322C31.709 184.01 31.953 183.64 32.129 183.212C32.305 182.78 32.393 182.3 32.393 181.772C32.393 181.068 32.239 180.454 31.931 179.93C31.627 179.402 31.215 178.992 30.695 178.7C30.179 178.408 29.603 178.262 28.967 178.262C28.491 178.262 28.045 178.346 27.629 178.514C27.213 178.678 26.849 178.914 26.537 179.222C26.225 179.53 25.979 179.9 25.799 180.332C25.623 180.76 25.535 181.24 25.535 181.772C25.535 182.476 25.689 183.092 25.997 183.62C26.305 184.144 26.717 184.552 27.233 184.844C27.753 185.136 28.331 185.282 28.967 185.282ZM35.8663 185.972V177.572H38.8843C39.4363 177.572 39.9123 177.672 40.3123 177.872C40.7163 178.072 41.0263 178.356 41.2423 178.724C41.4623 179.088 41.5723 179.516 41.5723 180.008C41.5723 180.432 41.4763 180.806 41.2843 181.13C41.0923 181.454 40.8203 181.718 40.4683 181.922C40.1203 182.122 39.7083 182.25 39.2323 182.306L41.9503 185.972H40.8163L38.1943 182.384H36.7783V185.972H35.8663ZM36.7783 181.58H38.6743C39.3023 181.58 39.7883 181.442 40.1323 181.166C40.4803 180.89 40.6543 180.512 40.6543 180.032C40.6543 179.532 40.5023 179.132 40.1983 178.832C39.8983 178.532 39.4323 178.382 38.8003 178.382H36.7783V181.58ZM46.1249 185.972V182.264L43.1429 177.572H44.2169L46.6049 181.376L48.9749 177.572H50.0189L47.0369 182.27V185.972H46.1249ZM50.9044 187.352L50.1364 187.046L54.6004 176.312L55.3624 176.618L50.9044 187.352ZM57.327 185.972V177.572H58.239V185.972H57.327ZM61.2814 185.972V177.572H66.3874V178.4H62.1934V181.142H65.8834V181.946H62.1934V185.138H66.4234V185.972H61.2814ZM71.7713 186.152C71.2273 186.152 70.6953 186.078 70.1753 185.93C69.6553 185.778 69.2173 185.56 68.8613 185.276L69.3353 184.55C69.5473 184.718 69.7833 184.86 70.0433 184.976C70.3073 185.092 70.5853 185.18 70.8773 185.24C71.1733 185.3 71.4753 185.33 71.7833 185.33C72.4233 185.33 72.9373 185.204 73.3253 184.952C73.7133 184.696 73.9073 184.322 73.9073 183.83C73.9073 183.474 73.7793 183.172 73.5233 182.924C73.2673 182.676 72.7913 182.45 72.0953 182.246L71.1353 181.964C70.3873 181.744 69.8393 181.458 69.4913 181.106C69.1433 180.754 68.9693 180.308 68.9693 179.768C68.9693 179.4 69.0413 179.072 69.1853 178.784C69.3293 178.492 69.5313 178.242 69.7913 178.034C70.0553 177.826 70.3673 177.668 70.7273 177.56C71.0873 177.448 71.4833 177.392 71.9153 177.392C72.4353 177.392 72.9173 177.468 73.3613 177.62C73.8053 177.772 74.1773 177.972 74.4773 178.22L73.9853 178.916C73.8013 178.764 73.5913 178.636 73.3553 178.532C73.1233 178.424 72.8753 178.342 72.6113 178.286C72.3473 178.23 72.0793 178.202 71.8073 178.202C71.4193 178.202 71.0753 178.26 70.7753 178.376C70.4793 178.492 70.2473 178.662 70.0793 178.886C69.9113 179.11 69.8273 179.386 69.8273 179.714C69.8273 179.942 69.8793 180.144 69.9833 180.32C70.0913 180.492 70.2753 180.65 70.5353 180.794C70.7953 180.934 71.1573 181.072 71.6213 181.208L72.6533 181.514C73.3773 181.726 73.9113 182.01 74.2553 182.366C74.5993 182.718 74.7713 183.18 74.7713 183.752C74.7713 184.228 74.6553 184.646 74.4233 185.006C74.1953 185.366 73.8573 185.648 73.4093 185.852C72.9613 186.052 72.4153 186.152 71.7713 186.152Z" fill="#DFEEFE"/>
<path d="M484.232 207.016L275 55L65.7676 207.016L145.687 452.984H404.313L484.232 207.016Z" stroke="#D7DAF9" stroke-width="1.5" stroke-linejoin="round"/>
<path opacity="0.3" d="M348.133 250.996L276.083 96.916C275.533 95.7387 274.023 95.3909 273.013 96.2087L117.095 222.432C116.43 222.971 116.181 223.872 116.476 224.675L181.47 401.989C181.73 402.7 182.37 403.202 183.121 403.288L382.164 425.973C383.519 426.127 384.628 424.91 384.348 423.575L348.279 251.433C348.247 251.282 348.198 251.135 348.133 250.996Z" fill="#72BBFF" stroke="black"/>
<path d="M348.133 250.996L276.083 96.916C275.533 95.7387 274.023 95.3909 273.013 96.2087L117.095 222.432C116.43 222.971 116.181 223.872 116.476 224.675L181.47 401.989C181.73 402.7 182.37 403.202 183.121 403.288L382.164 425.973C383.519 426.127 384.628 424.91 384.348 423.575L348.279 251.433C348.247 251.282 348.198 251.135 348.133 250.996Z" stroke="#72BBFF" stroke-width="2" stroke-linejoin="round"/>
<circle cx="273.5" cy="95.5" r="3.5" fill="#72BBFF"/>
<circle cx="347.5" cy="251.5" r="3.5" fill="#72BBFF"/>
<circle cx="385.5" cy="425.5" r="3.5" fill="#72BBFF"/>
<circle cx="182.5" cy="402.5" r="3.5" fill="#72BBFF"/>
<circle cx="116.5" cy="224.5" r="3.5" fill="#72BBFF"/>
</g>
<defs>
<clipPath id="clip0_385_219">
<rect width="550" height="550" fill="white"/>
</clipPath>
</defs>
</svg>
